G04 #@! TF.FileFunction,Other,Fab,Top*
%FSLAX46Y46*%
G04 Gerber Fmt 4.6, Leading zero omitted, Abs format (unit mm)*
G04 Created by KiCad (PCBNEW 4.0.4-stable) date Wednesday, May 10, 2017 'PMt' 03:49:53 PM*
%MOMM*%
%LPD*%
G01*
G04 APERTURE LIST*
%ADD10C,0.100000*%
%ADD11C,0.150000*%
G04 APERTURE END LIST*
D10*
D11*
X40298420Y-61663680D02*
X41098420Y-61663680D01*
X40298420Y-63263680D02*
X40298420Y-61663680D01*
X41098420Y-63263680D02*
X40298420Y-63263680D01*
X41098420Y-61663680D02*
X41098420Y-63263680D01*
X38379300Y-58134300D02*
X38379300Y-58934300D01*
X36779300Y-58134300D02*
X38379300Y-58134300D01*
X36779300Y-58934300D02*
X36779300Y-58134300D01*
X38379300Y-58934300D02*
X36779300Y-58934300D01*
X38379300Y-56584900D02*
X38379300Y-57384900D01*
X36779300Y-56584900D02*
X38379300Y-56584900D01*
X36779300Y-57384900D02*
X36779300Y-56584900D01*
X38379300Y-57384900D02*
X36779300Y-57384900D01*
X55297020Y-57538520D02*
X54497020Y-57538520D01*
X55297020Y-55938520D02*
X55297020Y-57538520D01*
X54497020Y-55938520D02*
X55297020Y-55938520D01*
X54497020Y-57538520D02*
X54497020Y-55938520D01*
X56897220Y-57538520D02*
X56097220Y-57538520D01*
X56897220Y-55938520D02*
X56897220Y-57538520D01*
X56097220Y-55938520D02*
X56897220Y-55938520D01*
X56097220Y-57538520D02*
X56097220Y-55938520D01*
X57639000Y-45212100D02*
X58439000Y-45212100D01*
X57639000Y-46812100D02*
X57639000Y-45212100D01*
X58439000Y-46812100D02*
X57639000Y-46812100D01*
X58439000Y-45212100D02*
X58439000Y-46812100D01*
X38290300Y-53321900D02*
X38290300Y-55821900D01*
X35090300Y-53321900D02*
X38290300Y-53321900D01*
X35090300Y-55821900D02*
X35090300Y-53321900D01*
X38290300Y-55821900D02*
X35090300Y-55821900D01*
D10*
X35706000Y-42989400D02*
X34906000Y-42989400D01*
X35706000Y-41389400D02*
X35706000Y-42989400D01*
X34906000Y-41389400D02*
X35706000Y-41389400D01*
X34906000Y-42989400D02*
X34906000Y-41389400D01*
X38220600Y-42964000D02*
X37420600Y-42964000D01*
X38220600Y-41364000D02*
X38220600Y-42964000D01*
X37420600Y-41364000D02*
X38220600Y-41364000D01*
X37420600Y-42964000D02*
X37420600Y-41364000D01*
X40760600Y-42964000D02*
X39960600Y-42964000D01*
X40760600Y-41364000D02*
X40760600Y-42964000D01*
X39960600Y-41364000D02*
X40760600Y-41364000D01*
X39960600Y-42964000D02*
X39960600Y-41364000D01*
X43300600Y-42964000D02*
X42500600Y-42964000D01*
X43300600Y-41364000D02*
X43300600Y-42964000D01*
X42500600Y-41364000D02*
X43300600Y-41364000D01*
X42500600Y-42964000D02*
X42500600Y-41364000D01*
X45840600Y-42964000D02*
X45040600Y-42964000D01*
X45840600Y-41364000D02*
X45840600Y-42964000D01*
X45040600Y-41364000D02*
X45840600Y-41364000D01*
X45040600Y-42964000D02*
X45040600Y-41364000D01*
X59239200Y-45212100D02*
X60039200Y-45212100D01*
X59239200Y-46812100D02*
X59239200Y-45212100D01*
X60039200Y-46812100D02*
X59239200Y-46812100D01*
X60039200Y-45212100D02*
X60039200Y-46812100D01*
X48380600Y-42964000D02*
X47580600Y-42964000D01*
X48380600Y-41364000D02*
X48380600Y-42964000D01*
X47580600Y-41364000D02*
X48380600Y-41364000D01*
X47580600Y-42964000D02*
X47580600Y-41364000D01*
X50920600Y-42964000D02*
X50120600Y-42964000D01*
X50920600Y-41364000D02*
X50920600Y-42964000D01*
X50120600Y-41364000D02*
X50920600Y-41364000D01*
X50120600Y-42964000D02*
X50120600Y-41364000D01*
X53435200Y-42964000D02*
X52635200Y-42964000D01*
X53435200Y-41364000D02*
X53435200Y-42964000D01*
X52635200Y-41364000D02*
X53435200Y-41364000D01*
X52635200Y-42964000D02*
X52635200Y-41364000D01*
X56026000Y-42964000D02*
X55226000Y-42964000D01*
X56026000Y-41364000D02*
X56026000Y-42964000D01*
X55226000Y-41364000D02*
X56026000Y-41364000D01*
X55226000Y-42964000D02*
X55226000Y-41364000D01*
X58540600Y-42964000D02*
X57740600Y-42964000D01*
X58540600Y-41364000D02*
X58540600Y-42964000D01*
X57740600Y-41364000D02*
X58540600Y-41364000D01*
X57740600Y-42964000D02*
X57740600Y-41364000D01*
D11*
X35887060Y-61091240D02*
X35887060Y-62891240D01*
X35887060Y-62891240D02*
X38987060Y-62891240D01*
X38987060Y-61091240D02*
X38987060Y-62891240D01*
X35887060Y-61091240D02*
X38987060Y-61091240D01*
X51380400Y-49035200D02*
X51380400Y-58035200D01*
X51380400Y-58035200D02*
X41380400Y-58035200D01*
X41380400Y-58035200D02*
X41380400Y-48035200D01*
X41380400Y-48035200D02*
X50380400Y-48035200D01*
X50380400Y-48035200D02*
X51380400Y-49035200D01*
X62333143Y-43266809D02*
X62380762Y-43314428D01*
X62428381Y-43457285D01*
X62428381Y-43552523D01*
X62380762Y-43695381D01*
X62285524Y-43790619D01*
X62190286Y-43838238D01*
X61999810Y-43885857D01*
X61856952Y-43885857D01*
X61666476Y-43838238D01*
X61571238Y-43790619D01*
X61476000Y-43695381D01*
X61428381Y-43552523D01*
X61428381Y-43457285D01*
X61476000Y-43314428D01*
X61523619Y-43266809D01*
X61428381Y-42647762D02*
X61428381Y-42457285D01*
X61476000Y-42362047D01*
X61571238Y-42266809D01*
X61761714Y-42219190D01*
X62095048Y-42219190D01*
X62285524Y-42266809D01*
X62380762Y-42362047D01*
X62428381Y-42457285D01*
X62428381Y-42647762D01*
X62380762Y-42743000D01*
X62285524Y-42838238D01*
X62095048Y-42885857D01*
X61761714Y-42885857D01*
X61571238Y-42838238D01*
X61476000Y-42743000D01*
X61428381Y-42647762D01*
X62428381Y-41790619D02*
X61428381Y-41790619D01*
X62428381Y-41219190D01*
X61428381Y-41219190D01*
X62428381Y-40743000D02*
X61428381Y-40743000D01*
X62428381Y-40171571D01*
X61428381Y-40171571D01*
X62523619Y-39933476D02*
X62523619Y-39171571D01*
X61428381Y-38743000D02*
X61428381Y-38647761D01*
X61476000Y-38552523D01*
X61523619Y-38504904D01*
X61618857Y-38457285D01*
X61809333Y-38409666D01*
X62047429Y-38409666D01*
X62237905Y-38457285D01*
X62333143Y-38504904D01*
X62380762Y-38552523D01*
X62428381Y-38647761D01*
X62428381Y-38743000D01*
X62380762Y-38838238D01*
X62333143Y-38885857D01*
X62237905Y-38933476D01*
X62047429Y-38981095D01*
X61809333Y-38981095D01*
X61618857Y-38933476D01*
X61523619Y-38885857D01*
X61476000Y-38838238D01*
X61428381Y-38743000D01*
X62428381Y-37457285D02*
X62428381Y-38028714D01*
X62428381Y-37743000D02*
X61428381Y-37743000D01*
X61571238Y-37838238D01*
X61666476Y-37933476D01*
X61714095Y-38028714D01*
X61428381Y-37123952D02*
X62428381Y-36457285D01*
X61428381Y-36457285D02*
X62428381Y-37123952D01*
X62428381Y-35552523D02*
X62428381Y-36123952D01*
X62428381Y-35838238D02*
X61428381Y-35838238D01*
X61571238Y-35933476D01*
X61666476Y-36028714D01*
X61714095Y-36123952D01*
X61428381Y-34933476D02*
X61428381Y-34838237D01*
X61476000Y-34742999D01*
X61523619Y-34695380D01*
X61618857Y-34647761D01*
X61809333Y-34600142D01*
X62047429Y-34600142D01*
X62237905Y-34647761D01*
X62333143Y-34695380D01*
X62380762Y-34742999D01*
X62428381Y-34838237D01*
X62428381Y-34933476D01*
X62380762Y-35028714D01*
X62333143Y-35076333D01*
X62237905Y-35123952D01*
X62047429Y-35171571D01*
X61809333Y-35171571D01*
X61618857Y-35123952D01*
X61523619Y-35076333D01*
X61476000Y-35028714D01*
X61428381Y-34933476D01*
X62409343Y-71765609D02*
X62456962Y-71813228D01*
X62504581Y-71956085D01*
X62504581Y-72051323D01*
X62456962Y-72194181D01*
X62361724Y-72289419D01*
X62266486Y-72337038D01*
X62076010Y-72384657D01*
X61933152Y-72384657D01*
X61742676Y-72337038D01*
X61647438Y-72289419D01*
X61552200Y-72194181D01*
X61504581Y-72051323D01*
X61504581Y-71956085D01*
X61552200Y-71813228D01*
X61599819Y-71765609D01*
X61504581Y-71146562D02*
X61504581Y-70956085D01*
X61552200Y-70860847D01*
X61647438Y-70765609D01*
X61837914Y-70717990D01*
X62171248Y-70717990D01*
X62361724Y-70765609D01*
X62456962Y-70860847D01*
X62504581Y-70956085D01*
X62504581Y-71146562D01*
X62456962Y-71241800D01*
X62361724Y-71337038D01*
X62171248Y-71384657D01*
X61837914Y-71384657D01*
X61647438Y-71337038D01*
X61552200Y-71241800D01*
X61504581Y-71146562D01*
X62504581Y-70289419D02*
X61504581Y-70289419D01*
X62504581Y-69717990D01*
X61504581Y-69717990D01*
X62504581Y-69241800D02*
X61504581Y-69241800D01*
X62504581Y-68670371D01*
X61504581Y-68670371D01*
X62599819Y-68432276D02*
X62599819Y-67670371D01*
X61504581Y-67241800D02*
X61504581Y-67146561D01*
X61552200Y-67051323D01*
X61599819Y-67003704D01*
X61695057Y-66956085D01*
X61885533Y-66908466D01*
X62123629Y-66908466D01*
X62314105Y-66956085D01*
X62409343Y-67003704D01*
X62456962Y-67051323D01*
X62504581Y-67146561D01*
X62504581Y-67241800D01*
X62456962Y-67337038D01*
X62409343Y-67384657D01*
X62314105Y-67432276D01*
X62123629Y-67479895D01*
X61885533Y-67479895D01*
X61695057Y-67432276D01*
X61599819Y-67384657D01*
X61552200Y-67337038D01*
X61504581Y-67241800D01*
X62504581Y-65956085D02*
X62504581Y-66527514D01*
X62504581Y-66241800D02*
X61504581Y-66241800D01*
X61647438Y-66337038D01*
X61742676Y-66432276D01*
X61790295Y-66527514D01*
X61504581Y-65622752D02*
X62504581Y-64956085D01*
X61504581Y-64956085D02*
X62504581Y-65622752D01*
X62504581Y-64051323D02*
X62504581Y-64622752D01*
X62504581Y-64337038D02*
X61504581Y-64337038D01*
X61647438Y-64432276D01*
X61742676Y-64527514D01*
X61790295Y-64622752D01*
X61504581Y-63432276D02*
X61504581Y-63337037D01*
X61552200Y-63241799D01*
X61599819Y-63194180D01*
X61695057Y-63146561D01*
X61885533Y-63098942D01*
X62123629Y-63098942D01*
X62314105Y-63146561D01*
X62409343Y-63194180D01*
X62456962Y-63241799D01*
X62504581Y-63337037D01*
X62504581Y-63432276D01*
X62456962Y-63527514D01*
X62409343Y-63575133D01*
X62314105Y-63622752D01*
X62123629Y-63670371D01*
X61885533Y-63670371D01*
X61695057Y-63622752D01*
X61599819Y-63575133D01*
X61552200Y-63527514D01*
X61504581Y-63432276D01*
X42584667Y-56205048D02*
X42584667Y-55728857D01*
X42870381Y-56300286D02*
X41870381Y-55966953D01*
X42870381Y-55633619D01*
X42870381Y-55300286D02*
X41870381Y-55300286D01*
X41870381Y-55062191D01*
X41918000Y-54919333D01*
X42013238Y-54824095D01*
X42108476Y-54776476D01*
X42298952Y-54728857D01*
X42441810Y-54728857D01*
X42632286Y-54776476D01*
X42727524Y-54824095D01*
X42822762Y-54919333D01*
X42870381Y-55062191D01*
X42870381Y-55300286D01*
X42822762Y-54347905D02*
X42870381Y-54205048D01*
X42870381Y-53966952D01*
X42822762Y-53871714D01*
X42775143Y-53824095D01*
X42679905Y-53776476D01*
X42584667Y-53776476D01*
X42489429Y-53824095D01*
X42441810Y-53871714D01*
X42394190Y-53966952D01*
X42346571Y-54157429D01*
X42298952Y-54252667D01*
X42251333Y-54300286D01*
X42156095Y-54347905D01*
X42060857Y-54347905D01*
X41965619Y-54300286D01*
X41918000Y-54252667D01*
X41870381Y-54157429D01*
X41870381Y-53919333D01*
X41918000Y-53776476D01*
X42870381Y-52824095D02*
X42870381Y-53395524D01*
X42870381Y-53109810D02*
X41870381Y-53109810D01*
X42013238Y-53205048D01*
X42108476Y-53300286D01*
X42156095Y-53395524D01*
X41965619Y-52443143D02*
X41918000Y-52395524D01*
X41870381Y-52300286D01*
X41870381Y-52062190D01*
X41918000Y-51966952D01*
X41965619Y-51919333D01*
X42060857Y-51871714D01*
X42156095Y-51871714D01*
X42298952Y-51919333D01*
X42870381Y-52490762D01*
X42870381Y-51871714D01*
X42870381Y-51395524D02*
X42870381Y-51205048D01*
X42822762Y-51109809D01*
X42775143Y-51062190D01*
X42632286Y-50966952D01*
X42441810Y-50919333D01*
X42060857Y-50919333D01*
X41965619Y-50966952D01*
X41918000Y-51014571D01*
X41870381Y-51109809D01*
X41870381Y-51300286D01*
X41918000Y-51395524D01*
X41965619Y-51443143D01*
X42060857Y-51490762D01*
X42298952Y-51490762D01*
X42394190Y-51443143D01*
X42441810Y-51395524D01*
X42489429Y-51300286D01*
X42489429Y-51109809D01*
X42441810Y-51014571D01*
X42394190Y-50966952D01*
X42298952Y-50919333D01*
X42870381Y-50443143D02*
X42870381Y-50252667D01*
X42822762Y-50157428D01*
X42775143Y-50109809D01*
X42632286Y-50014571D01*
X42441810Y-49966952D01*
X42060857Y-49966952D01*
X41965619Y-50014571D01*
X41918000Y-50062190D01*
X41870381Y-50157428D01*
X41870381Y-50347905D01*
X41918000Y-50443143D01*
X41965619Y-50490762D01*
X42060857Y-50538381D01*
X42298952Y-50538381D01*
X42394190Y-50490762D01*
X42441810Y-50443143D01*
X42489429Y-50347905D01*
X42489429Y-50157428D01*
X42441810Y-50062190D01*
X42394190Y-50014571D01*
X42298952Y-49966952D01*
X45832781Y-53797105D02*
X46642305Y-53797105D01*
X46737543Y-53749486D01*
X46785162Y-53701867D01*
X46832781Y-53606629D01*
X46832781Y-53416152D01*
X46785162Y-53320914D01*
X46737543Y-53273295D01*
X46642305Y-53225676D01*
X45832781Y-53225676D01*
X45832781Y-52320914D02*
X45832781Y-52511391D01*
X45880400Y-52606629D01*
X45928019Y-52654248D01*
X46070876Y-52749486D01*
X46261352Y-52797105D01*
X46642305Y-52797105D01*
X46737543Y-52749486D01*
X46785162Y-52701867D01*
X46832781Y-52606629D01*
X46832781Y-52416152D01*
X46785162Y-52320914D01*
X46737543Y-52273295D01*
X46642305Y-52225676D01*
X46404210Y-52225676D01*
X46308971Y-52273295D01*
X46261352Y-52320914D01*
X46213733Y-52416152D01*
X46213733Y-52606629D01*
X46261352Y-52701867D01*
X46308971Y-52749486D01*
X46404210Y-52797105D01*
M02*
