G04 #@! TF.FileFunction,Copper,L4,Bot,Signal*
%FSLAX46Y46*%
G04 Gerber Fmt 4.6, Leading zero omitted, Abs format (unit mm)*
G04 Created by KiCad (PCBNEW 4.0.4-stable) date Wednesday, May 10, 2017 'PMt' 03:49:53 PM*
%MOMM*%
%LPD*%
G01*
G04 APERTURE LIST*
%ADD10C,0.100000*%
%ADD11R,1.727200X2.032000*%
%ADD12O,1.727200X2.032000*%
%ADD13R,0.800000X0.750000*%
%ADD14R,0.750000X0.800000*%
%ADD15R,0.650000X1.060000*%
%ADD16R,0.850000X0.350000*%
%ADD17R,0.350000X0.850000*%
%ADD18C,0.600000*%
%ADD19C,0.381000*%
%ADD20C,0.250000*%
%ADD21C,0.254000*%
G04 APERTURE END LIST*
D10*
D11*
X58140600Y-39293800D03*
D12*
X55600600Y-39293800D03*
X53060600Y-39293800D03*
X50520600Y-39293800D03*
X47980600Y-39293800D03*
X45440600Y-39293800D03*
X42900600Y-39293800D03*
X40360600Y-39293800D03*
X37820600Y-39293800D03*
X35280600Y-39293800D03*
D13*
X57948260Y-63581280D03*
X56448260Y-63581280D03*
X57948260Y-65166240D03*
X56448260Y-65166240D03*
X47446500Y-51663600D03*
X48946500Y-51663600D03*
X47446500Y-50101500D03*
X48946500Y-50101500D03*
X36513200Y-64719200D03*
X35013200Y-64719200D03*
D14*
X34810700Y-60883100D03*
X34810700Y-62383100D03*
D13*
X38023100Y-64719200D03*
X39523100Y-64719200D03*
D14*
X49002125Y-55397462D03*
X49002125Y-53897462D03*
X47401925Y-55397462D03*
X47401925Y-53897462D03*
X45824923Y-55388801D03*
X45824923Y-53888801D03*
X44224724Y-55401501D03*
X44224724Y-53901501D03*
D13*
X58000200Y-61861700D03*
X59500200Y-61861700D03*
D14*
X37820600Y-41566400D03*
X37820600Y-43066400D03*
X42887900Y-41604500D03*
X42887900Y-43104500D03*
X35318700Y-41579100D03*
X35318700Y-43079100D03*
X40360600Y-41579100D03*
X40360600Y-43079100D03*
X45427900Y-41604500D03*
X45427900Y-43104500D03*
D13*
X56317580Y-53781960D03*
X54817580Y-53781960D03*
X56302340Y-52212240D03*
X54802340Y-52212240D03*
D14*
X57835800Y-52539200D03*
X57835800Y-54039200D03*
X59410600Y-52539200D03*
X59410600Y-54039200D03*
X58140600Y-43104500D03*
X58140600Y-41604500D03*
X53035200Y-43104500D03*
X53035200Y-41604500D03*
X47980600Y-43104500D03*
X47980600Y-41604500D03*
X55638700Y-43104500D03*
X55638700Y-41604500D03*
X50520600Y-43104500D03*
X50520600Y-41604500D03*
D13*
X36829300Y-51676300D03*
X38329300Y-51676300D03*
X38329300Y-55448200D03*
X36829300Y-55448200D03*
X38329300Y-53263800D03*
X36829300Y-53263800D03*
X36829300Y-50114200D03*
X38329300Y-50114200D03*
D11*
X57962800Y-67741800D03*
D12*
X55422800Y-67741800D03*
X52882800Y-67741800D03*
X50342800Y-67741800D03*
X47802800Y-67741800D03*
X45262800Y-67741800D03*
X42722800Y-67741800D03*
X40182800Y-67741800D03*
X37642800Y-67741800D03*
X35102800Y-67741800D03*
D15*
X38389600Y-63088700D03*
X37439600Y-63088700D03*
X36489600Y-63088700D03*
X36489600Y-60888700D03*
X38389600Y-60888700D03*
X54841180Y-62989640D03*
X53891180Y-62989640D03*
X52941180Y-62989640D03*
X52941180Y-60789640D03*
X54841180Y-60789640D03*
D16*
X45270600Y-36946600D03*
X45270600Y-36296600D03*
X45270600Y-35646600D03*
X43070600Y-36946600D03*
X43070600Y-36296600D03*
X43070600Y-35646600D03*
D17*
X36180000Y-37041000D03*
X36830000Y-37041000D03*
X37480000Y-37041000D03*
X36180000Y-34841000D03*
X36830000Y-34841000D03*
X37480000Y-34841000D03*
D16*
X55392500Y-36781500D03*
X55392500Y-36131500D03*
X55392500Y-35481500D03*
X53192500Y-36781500D03*
X53192500Y-36131500D03*
X53192500Y-35481500D03*
D18*
X39611300Y-61711840D03*
X36507420Y-59817000D03*
X43634660Y-60568840D03*
X50833020Y-60665360D03*
X50829140Y-56285200D03*
X39971980Y-60934600D03*
X54952900Y-61889640D03*
X53891180Y-64023240D03*
X41993820Y-58745120D03*
X39530020Y-65796160D03*
X49004220Y-53004720D03*
X47404020Y-52989480D03*
X45829220Y-52969160D03*
X44223940Y-53014880D03*
X41932860Y-56276240D03*
X53281580Y-55788560D03*
X53281580Y-56784240D03*
X53266340Y-51287680D03*
X39220140Y-62448440D03*
X34820860Y-63550800D03*
X34063940Y-64749680D03*
X59499500Y-41617900D03*
X56870600Y-41617900D03*
X54343300Y-41617900D03*
X51790600Y-41630600D03*
X49237900Y-41617900D03*
X46723300Y-41605200D03*
X44170600Y-41617900D03*
X41656000Y-41579800D03*
X39090600Y-41579800D03*
X38379400Y-37033200D03*
X36550600Y-41579800D03*
X59499500Y-63004700D03*
X59499500Y-60731400D03*
X57835800Y-55245000D03*
X59423300Y-55219600D03*
X55397400Y-34848800D03*
X46278800Y-35648900D03*
X54851300Y-58785760D03*
X50838100Y-54264560D03*
X53820060Y-52892960D03*
X50934620Y-51795680D03*
X44213780Y-56327040D03*
X45834300Y-56306720D03*
X47414180Y-56306720D03*
X48988980Y-56311800D03*
X46515020Y-51658520D03*
X46494700Y-50104040D03*
X41821100Y-50279300D03*
X41973500Y-51269900D03*
X39408100Y-51777900D03*
X53317140Y-54782720D03*
X34112200Y-54584600D03*
X39268400Y-58547000D03*
X50807620Y-52786280D03*
X53235860Y-52288440D03*
X39357300Y-56921400D03*
X39382700Y-50787300D03*
X41960800Y-52273200D03*
X41986200Y-53289200D03*
X37442140Y-62062360D03*
X37833300Y-43992800D03*
X42900600Y-44069000D03*
X35306000Y-44081700D03*
X40360600Y-44018200D03*
X45440600Y-44107100D03*
X53891180Y-53766720D03*
X58140600Y-44107100D03*
X53047900Y-44043600D03*
X47967900Y-44069000D03*
X55626000Y-44094400D03*
X50520600Y-44069000D03*
X39255700Y-52590700D03*
X39397940Y-55788560D03*
X39370000Y-53784500D03*
D19*
X57948260Y-65166240D02*
X57962800Y-65180780D01*
D20*
X43634660Y-60563760D02*
X43629580Y-60563760D01*
X43634660Y-60568840D02*
X43634660Y-60563760D01*
D19*
X50829140Y-56285200D02*
X50829140Y-60661480D01*
X50833020Y-60665360D02*
X50829140Y-60661480D01*
X54940200Y-62949000D02*
X54952900Y-62936300D01*
X54952900Y-62936300D02*
X54952900Y-61889640D01*
X56448260Y-65166240D02*
X56448260Y-63581280D01*
X56448260Y-65166240D02*
X55422800Y-66191700D01*
X55422800Y-66191700D02*
X55422800Y-67741800D01*
X53891180Y-62989640D02*
X53891180Y-64023240D01*
D20*
X39523100Y-64719200D02*
X39523100Y-65789240D01*
X39523100Y-65789240D02*
X39530020Y-65796160D01*
X49002125Y-53897462D02*
X49002125Y-53006815D01*
X49002125Y-53006815D02*
X49004220Y-53004720D01*
X47401925Y-53897462D02*
X47401925Y-52991575D01*
X47401925Y-52991575D02*
X47404020Y-52989480D01*
X45824923Y-53888801D02*
X45824923Y-52973457D01*
X45824923Y-52973457D02*
X45829220Y-52969160D01*
X44224724Y-53901501D02*
X44224724Y-53015664D01*
X44224724Y-53015664D02*
X44223940Y-53014880D01*
D19*
X38389600Y-63088700D02*
X38579880Y-63088700D01*
X38579880Y-63088700D02*
X39220140Y-62448440D01*
X34810700Y-62383100D02*
X34810700Y-63540640D01*
X34810700Y-63540640D02*
X34820860Y-63550800D01*
X35013200Y-64719200D02*
X34982720Y-64749680D01*
X34982720Y-64749680D02*
X34063940Y-64749680D01*
D20*
X58140600Y-41604500D02*
X59486100Y-41604500D01*
X59486100Y-41604500D02*
X59499500Y-41617900D01*
X55638700Y-41604500D02*
X56857200Y-41604500D01*
X56857200Y-41604500D02*
X56870600Y-41617900D01*
X53035200Y-41604500D02*
X54329900Y-41604500D01*
X54329900Y-41604500D02*
X54343300Y-41617900D01*
X50520600Y-41604500D02*
X51764500Y-41604500D01*
X51764500Y-41604500D02*
X51790600Y-41630600D01*
X47980600Y-41604500D02*
X49224500Y-41604500D01*
X49224500Y-41604500D02*
X49237900Y-41617900D01*
X45427900Y-41604500D02*
X46722600Y-41604500D01*
X46722600Y-41604500D02*
X46723300Y-41605200D01*
X42887900Y-41604500D02*
X44157200Y-41604500D01*
X44157200Y-41604500D02*
X44170600Y-41617900D01*
X40360600Y-41579100D02*
X41655300Y-41579100D01*
X41655300Y-41579100D02*
X41656000Y-41579800D01*
X37820600Y-41566400D02*
X39077200Y-41566400D01*
X39077200Y-41566400D02*
X39090600Y-41579800D01*
X37480000Y-37041000D02*
X38371600Y-37041000D01*
X38371600Y-37041000D02*
X38379400Y-37033200D01*
X35318700Y-41579100D02*
X36549900Y-41579100D01*
X36549900Y-41579100D02*
X36550600Y-41579800D01*
D19*
X59500200Y-61861700D02*
X59500200Y-63004000D01*
X59500200Y-63004000D02*
X59499500Y-63004700D01*
X59500200Y-61861700D02*
X59500200Y-60732100D01*
X59500200Y-60732100D02*
X59499500Y-60731400D01*
X57835800Y-54039200D02*
X57835800Y-55245000D01*
X59410600Y-54039200D02*
X59410600Y-55206900D01*
X59410600Y-55206900D02*
X59423300Y-55219600D01*
X57835800Y-54039200D02*
X59410600Y-54039200D01*
D20*
X47510700Y-53788687D02*
X47401925Y-53897462D01*
X45812223Y-53901501D02*
X45824923Y-53888801D01*
X47393264Y-53888801D02*
X47401925Y-53897462D01*
X55392500Y-35481500D02*
X55392500Y-34853700D01*
X55392500Y-34853700D02*
X55397400Y-34848800D01*
X45270600Y-35646600D02*
X46276500Y-35646600D01*
X46276500Y-35646600D02*
X46278800Y-35648900D01*
D19*
X54841180Y-60789640D02*
X54841180Y-58795880D01*
X54841180Y-58795880D02*
X54851300Y-58785760D01*
D20*
X44224724Y-55401501D02*
X44224724Y-56316096D01*
X44224724Y-56316096D02*
X44213780Y-56327040D01*
X45824923Y-55388801D02*
X45824923Y-56297343D01*
X45824923Y-56297343D02*
X45834300Y-56306720D01*
X47401925Y-55397462D02*
X47401925Y-56294465D01*
X47401925Y-56294465D02*
X47414180Y-56306720D01*
X49002125Y-55397462D02*
X49002125Y-56298655D01*
X49002125Y-56298655D02*
X48988980Y-56311800D01*
X47446500Y-51663600D02*
X46520100Y-51663600D01*
X46520100Y-51663600D02*
X46515020Y-51658520D01*
X47446500Y-50101500D02*
X46497240Y-50101500D01*
X46497240Y-50101500D02*
X46494700Y-50104040D01*
X45812223Y-55401501D02*
X45816262Y-55397462D01*
D19*
X38389600Y-60888700D02*
X39268400Y-60009900D01*
X39268400Y-60009900D02*
X39268400Y-58547000D01*
D20*
X53235860Y-52283360D02*
X53235860Y-52278280D01*
X53235860Y-52288440D02*
X53235860Y-52283360D01*
X59410600Y-52539200D02*
X57835800Y-52539200D01*
D19*
X37439600Y-63088700D02*
X37439600Y-62064900D01*
X37439600Y-62064900D02*
X37442140Y-62062360D01*
X37439600Y-63088700D02*
X37439600Y-64135700D01*
X37439600Y-64135700D02*
X38023100Y-64719200D01*
X36489600Y-63088700D02*
X37439600Y-63088700D01*
X36513200Y-64719200D02*
X36489600Y-64695600D01*
X36489600Y-64695600D02*
X36489600Y-63088700D01*
X38023100Y-64719200D02*
X36513200Y-64719200D01*
X34810700Y-60883100D02*
X36484000Y-60883100D01*
X36484000Y-60883100D02*
X36489600Y-60888700D01*
D20*
X37833300Y-43992800D02*
X37820600Y-43980100D01*
X37820600Y-43980100D02*
X37820600Y-43066400D01*
X42887900Y-44056300D02*
X42887900Y-43104500D01*
X42900600Y-44069000D02*
X42887900Y-44056300D01*
X35318700Y-44069000D02*
X35318700Y-43079100D01*
X35306000Y-44081700D02*
X35318700Y-44069000D01*
X40360600Y-44018200D02*
X40360600Y-43079100D01*
X45427900Y-44094400D02*
X45427900Y-43104500D01*
X45440600Y-44107100D02*
X45427900Y-44094400D01*
X54817580Y-53781960D02*
X54817580Y-52227480D01*
X54817580Y-52227480D02*
X54802340Y-52212240D01*
X53906420Y-53781960D02*
X54817580Y-53781960D01*
X53891180Y-53766720D02*
X53906420Y-53781960D01*
X58140600Y-44107100D02*
X58140600Y-43104500D01*
X53047900Y-44043600D02*
X53035200Y-44030900D01*
X53035200Y-44030900D02*
X53035200Y-43104500D01*
X47967900Y-44069000D02*
X47980600Y-44056300D01*
X47980600Y-44056300D02*
X47980600Y-43104500D01*
X55638700Y-44081700D02*
X55638700Y-43104500D01*
X55626000Y-44094400D02*
X55638700Y-44081700D01*
X50520600Y-44069000D02*
X50520600Y-43104500D01*
X38329300Y-51676300D02*
X39243700Y-52590700D01*
X39243700Y-52590700D02*
X39255700Y-52590700D01*
X38329300Y-50114200D02*
X38329300Y-51676300D01*
X39397940Y-55788560D02*
X39057580Y-55448200D01*
X39057580Y-55448200D02*
X38329300Y-55448200D01*
X38329300Y-53263800D02*
X38849300Y-53263800D01*
X38849300Y-53263800D02*
X39370000Y-53784500D01*
X36180000Y-37041000D02*
X35280600Y-37940400D01*
X35280600Y-37940400D02*
X35280600Y-39293800D01*
X36830000Y-37041000D02*
X36830000Y-37782500D01*
X36830000Y-37782500D02*
X37820600Y-38773100D01*
X37820600Y-38773100D02*
X37820600Y-39293800D01*
X43070600Y-36296600D02*
X41948100Y-36296600D01*
X40360600Y-37884100D02*
X40360600Y-39293800D01*
X41948100Y-36296600D02*
X40360600Y-37884100D01*
X42900600Y-39293800D02*
X42900600Y-37116600D01*
X42900600Y-37116600D02*
X43070600Y-36946600D01*
X45270600Y-36296600D02*
X44589700Y-36296600D01*
X44094400Y-37947600D02*
X45440600Y-39293800D01*
X44094400Y-36791900D02*
X44094400Y-37947600D01*
X44589700Y-36296600D02*
X44094400Y-36791900D01*
X45270600Y-36946600D02*
X45633400Y-36946600D01*
X45633400Y-36946600D02*
X47980600Y-39293800D01*
X53192500Y-36131500D02*
X52235100Y-36131500D01*
X50520600Y-37846000D02*
X50520600Y-39293800D01*
X52235100Y-36131500D02*
X50520600Y-37846000D01*
X53192500Y-36781500D02*
X53192500Y-39161900D01*
X53192500Y-39161900D02*
X53060600Y-39293800D01*
X55392500Y-36131500D02*
X54559200Y-36131500D01*
X54216300Y-37909500D02*
X55600600Y-39293800D01*
X54216300Y-36474400D02*
X54216300Y-37909500D01*
X54559200Y-36131500D02*
X54216300Y-36474400D01*
X55392500Y-36131500D02*
X55379800Y-36118800D01*
X55392500Y-36781500D02*
X55628300Y-36781500D01*
X55628300Y-36781500D02*
X58140600Y-39293800D01*
D21*
G36*
X60706800Y-59446220D02*
X55412680Y-59447152D01*
X55412680Y-59187599D01*
X55428287Y-59172019D01*
X55532182Y-58921814D01*
X55532418Y-58650895D01*
X55428961Y-58400508D01*
X55237559Y-58208773D01*
X54987354Y-58104878D01*
X54716435Y-58104642D01*
X54466048Y-58208099D01*
X54274313Y-58399501D01*
X54170418Y-58649706D01*
X54170182Y-58920625D01*
X54269680Y-59161430D01*
X54269680Y-59447353D01*
X51400640Y-59447858D01*
X51400640Y-56676936D01*
X51406127Y-56671459D01*
X51510022Y-56421254D01*
X51510258Y-56150335D01*
X51416502Y-55923425D01*
X52600462Y-55923425D01*
X52703919Y-56173812D01*
X52816340Y-56286428D01*
X52704593Y-56397981D01*
X52600698Y-56648186D01*
X52600462Y-56919105D01*
X52703919Y-57169492D01*
X52895321Y-57361227D01*
X53145526Y-57465122D01*
X53416445Y-57465358D01*
X53666832Y-57361901D01*
X53858567Y-57170499D01*
X53962462Y-56920294D01*
X53962698Y-56649375D01*
X53859241Y-56398988D01*
X53746820Y-56286372D01*
X53858567Y-56174819D01*
X53962462Y-55924614D01*
X53962698Y-55653695D01*
X53859241Y-55403308D01*
X53667839Y-55211573D01*
X53417634Y-55107678D01*
X53146715Y-55107442D01*
X52896328Y-55210899D01*
X52704593Y-55402301D01*
X52600698Y-55652506D01*
X52600462Y-55923425D01*
X51416502Y-55923425D01*
X51406801Y-55899948D01*
X51215399Y-55708213D01*
X50965194Y-55604318D01*
X50694275Y-55604082D01*
X50443888Y-55707539D01*
X50252153Y-55898941D01*
X50148258Y-56149146D01*
X50148022Y-56420065D01*
X50251479Y-56670452D01*
X50257640Y-56676624D01*
X50257640Y-59448059D01*
X37092778Y-59450376D01*
X37085081Y-59431748D01*
X36893679Y-59240013D01*
X36643474Y-59136118D01*
X36372555Y-59135882D01*
X36122168Y-59239339D01*
X35930433Y-59430741D01*
X35922194Y-59450582D01*
X32536600Y-59451177D01*
X32536600Y-58879985D01*
X41312702Y-58879985D01*
X41416159Y-59130372D01*
X41607561Y-59322107D01*
X41857766Y-59426002D01*
X42128685Y-59426238D01*
X42379072Y-59322781D01*
X42570807Y-59131379D01*
X42674702Y-58881174D01*
X42674938Y-58610255D01*
X42571481Y-58359868D01*
X42380079Y-58168133D01*
X42129874Y-58064238D01*
X41858955Y-58064002D01*
X41608568Y-58167459D01*
X41416833Y-58358861D01*
X41312938Y-58609066D01*
X41312702Y-58879985D01*
X32536600Y-58879985D01*
X32536600Y-55670450D01*
X36048300Y-55670450D01*
X36048300Y-55898985D01*
X36106304Y-56039019D01*
X36213480Y-56146196D01*
X36353514Y-56204200D01*
X36607050Y-56204200D01*
X36702300Y-56108950D01*
X36702300Y-55575200D01*
X36143550Y-55575200D01*
X36048300Y-55670450D01*
X32536600Y-55670450D01*
X32536600Y-54997415D01*
X36048300Y-54997415D01*
X36048300Y-55225950D01*
X36143550Y-55321200D01*
X36702300Y-55321200D01*
X36702300Y-54787450D01*
X36956300Y-54787450D01*
X36956300Y-55321200D01*
X36976300Y-55321200D01*
X36976300Y-55575200D01*
X36956300Y-55575200D01*
X36956300Y-56108950D01*
X37051550Y-56204200D01*
X37305086Y-56204200D01*
X37445120Y-56146196D01*
X37552296Y-56039019D01*
X37577019Y-55979333D01*
X37650846Y-56094065D01*
X37778166Y-56181059D01*
X37929300Y-56211664D01*
X38729300Y-56211664D01*
X38837703Y-56191266D01*
X39011681Y-56365547D01*
X39261886Y-56469442D01*
X39532805Y-56469678D01*
X39674563Y-56411105D01*
X41251742Y-56411105D01*
X41355199Y-56661492D01*
X41546601Y-56853227D01*
X41796806Y-56957122D01*
X42067725Y-56957358D01*
X42318112Y-56853901D01*
X42509847Y-56662499D01*
X42613742Y-56412294D01*
X42613978Y-56141375D01*
X42510521Y-55890988D01*
X42319119Y-55699253D01*
X42068914Y-55595358D01*
X41797995Y-55595122D01*
X41547608Y-55698579D01*
X41355873Y-55889981D01*
X41251978Y-56140186D01*
X41251742Y-56411105D01*
X39674563Y-56411105D01*
X39783192Y-56366221D01*
X39974927Y-56174819D01*
X40078822Y-55924614D01*
X40079058Y-55653695D01*
X39975601Y-55403308D01*
X39784199Y-55211573D01*
X39533994Y-55107678D01*
X39432562Y-55107590D01*
X39415376Y-55090404D01*
X39251218Y-54980717D01*
X39094496Y-54949543D01*
X39091197Y-54932010D01*
X39007754Y-54802335D01*
X38880434Y-54715341D01*
X38729300Y-54684736D01*
X37929300Y-54684736D01*
X37788110Y-54711303D01*
X37658435Y-54794746D01*
X37576203Y-54915097D01*
X37552296Y-54857381D01*
X37445120Y-54750204D01*
X37305086Y-54692200D01*
X37051550Y-54692200D01*
X36956300Y-54787450D01*
X36702300Y-54787450D01*
X36607050Y-54692200D01*
X36353514Y-54692200D01*
X36213480Y-54750204D01*
X36106304Y-54857381D01*
X36048300Y-54997415D01*
X32536600Y-54997415D01*
X32536600Y-53486050D01*
X36048300Y-53486050D01*
X36048300Y-53714585D01*
X36106304Y-53854619D01*
X36213480Y-53961796D01*
X36353514Y-54019800D01*
X36607050Y-54019800D01*
X36702300Y-53924550D01*
X36702300Y-53390800D01*
X36143550Y-53390800D01*
X36048300Y-53486050D01*
X32536600Y-53486050D01*
X32536600Y-52813015D01*
X36048300Y-52813015D01*
X36048300Y-53041550D01*
X36143550Y-53136800D01*
X36702300Y-53136800D01*
X36702300Y-52603050D01*
X36607050Y-52507800D01*
X36353514Y-52507800D01*
X36213480Y-52565804D01*
X36106304Y-52672981D01*
X36048300Y-52813015D01*
X32536600Y-52813015D01*
X32536600Y-51898550D01*
X36048300Y-51898550D01*
X36048300Y-52127085D01*
X36106304Y-52267119D01*
X36213480Y-52374296D01*
X36353514Y-52432300D01*
X36607050Y-52432300D01*
X36702300Y-52337050D01*
X36702300Y-51803300D01*
X36143550Y-51803300D01*
X36048300Y-51898550D01*
X32536600Y-51898550D01*
X32536600Y-51225515D01*
X36048300Y-51225515D01*
X36048300Y-51454050D01*
X36143550Y-51549300D01*
X36702300Y-51549300D01*
X36702300Y-51015550D01*
X36607050Y-50920300D01*
X36353514Y-50920300D01*
X36213480Y-50978304D01*
X36106304Y-51085481D01*
X36048300Y-51225515D01*
X32536600Y-51225515D01*
X32536600Y-50336450D01*
X36048300Y-50336450D01*
X36048300Y-50564985D01*
X36106304Y-50705019D01*
X36213480Y-50812196D01*
X36353514Y-50870200D01*
X36607050Y-50870200D01*
X36702300Y-50774950D01*
X36702300Y-50241200D01*
X36143550Y-50241200D01*
X36048300Y-50336450D01*
X32536600Y-50336450D01*
X32536600Y-49663415D01*
X36048300Y-49663415D01*
X36048300Y-49891950D01*
X36143550Y-49987200D01*
X36702300Y-49987200D01*
X36702300Y-49453450D01*
X36956300Y-49453450D01*
X36956300Y-49987200D01*
X36976300Y-49987200D01*
X36976300Y-50241200D01*
X36956300Y-50241200D01*
X36956300Y-50774950D01*
X37051550Y-50870200D01*
X37305086Y-50870200D01*
X37445120Y-50812196D01*
X37552296Y-50705019D01*
X37577019Y-50645333D01*
X37650846Y-50760065D01*
X37778166Y-50847059D01*
X37823300Y-50856199D01*
X37823300Y-50932781D01*
X37788110Y-50939403D01*
X37658435Y-51022846D01*
X37576203Y-51143197D01*
X37552296Y-51085481D01*
X37445120Y-50978304D01*
X37305086Y-50920300D01*
X37051550Y-50920300D01*
X36956300Y-51015550D01*
X36956300Y-51549300D01*
X36976300Y-51549300D01*
X36976300Y-51803300D01*
X36956300Y-51803300D01*
X36956300Y-52337050D01*
X37051550Y-52432300D01*
X37305086Y-52432300D01*
X37445120Y-52374296D01*
X37552296Y-52267119D01*
X37577019Y-52207433D01*
X37650846Y-52322165D01*
X37778166Y-52409159D01*
X37929300Y-52439764D01*
X38377172Y-52439764D01*
X38437744Y-52500336D01*
X37929300Y-52500336D01*
X37788110Y-52526903D01*
X37658435Y-52610346D01*
X37576203Y-52730697D01*
X37552296Y-52672981D01*
X37445120Y-52565804D01*
X37305086Y-52507800D01*
X37051550Y-52507800D01*
X36956300Y-52603050D01*
X36956300Y-53136800D01*
X36976300Y-53136800D01*
X36976300Y-53390800D01*
X36956300Y-53390800D01*
X36956300Y-53924550D01*
X37051550Y-54019800D01*
X37305086Y-54019800D01*
X37445120Y-53961796D01*
X37552296Y-53854619D01*
X37577019Y-53794933D01*
X37650846Y-53909665D01*
X37778166Y-53996659D01*
X37929300Y-54027264D01*
X38729300Y-54027264D01*
X38733164Y-54026537D01*
X38792339Y-54169752D01*
X38983741Y-54361487D01*
X39233946Y-54465382D01*
X39504865Y-54465618D01*
X39755252Y-54362161D01*
X39946987Y-54170759D01*
X40050882Y-53920554D01*
X40051118Y-53649635D01*
X39989911Y-53501501D01*
X43461260Y-53501501D01*
X43461260Y-54301501D01*
X43487827Y-54442691D01*
X43571270Y-54572366D01*
X43688522Y-54652481D01*
X43578859Y-54723047D01*
X43491865Y-54850367D01*
X43461260Y-55001501D01*
X43461260Y-55801501D01*
X43487827Y-55942691D01*
X43571270Y-56072366D01*
X43579748Y-56078159D01*
X43532898Y-56190986D01*
X43532662Y-56461905D01*
X43636119Y-56712292D01*
X43827521Y-56904027D01*
X44077726Y-57007922D01*
X44348645Y-57008158D01*
X44599032Y-56904701D01*
X44790767Y-56713299D01*
X44894662Y-56463094D01*
X44894898Y-56192175D01*
X44853163Y-56091168D01*
X44870589Y-56079955D01*
X44957583Y-55952635D01*
X44988188Y-55801501D01*
X44988188Y-55001501D01*
X44961621Y-54860311D01*
X44878178Y-54730636D01*
X44760926Y-54650521D01*
X44870589Y-54579955D01*
X44957583Y-54452635D01*
X44988188Y-54301501D01*
X44988188Y-53501501D01*
X44985799Y-53488801D01*
X45061459Y-53488801D01*
X45061459Y-54288801D01*
X45088026Y-54429991D01*
X45171469Y-54559666D01*
X45288721Y-54639781D01*
X45179058Y-54710347D01*
X45092064Y-54837667D01*
X45061459Y-54988801D01*
X45061459Y-55788801D01*
X45088026Y-55929991D01*
X45171469Y-56059666D01*
X45193312Y-56074591D01*
X45153418Y-56170666D01*
X45153182Y-56441585D01*
X45256639Y-56691972D01*
X45448041Y-56883707D01*
X45698246Y-56987602D01*
X45969165Y-56987838D01*
X46219552Y-56884381D01*
X46411287Y-56692979D01*
X46515182Y-56442774D01*
X46515418Y-56171855D01*
X46471667Y-56065969D01*
X46557782Y-55939935D01*
X46588387Y-55788801D01*
X46588387Y-54988801D01*
X46561820Y-54847611D01*
X46478377Y-54717936D01*
X46361125Y-54637821D01*
X46470788Y-54567255D01*
X46557782Y-54439935D01*
X46588387Y-54288801D01*
X46588387Y-53488801D01*
X46561820Y-53347611D01*
X46478377Y-53217936D01*
X46466629Y-53209909D01*
X46510102Y-53105214D01*
X46510338Y-52834295D01*
X46406881Y-52583908D01*
X46215479Y-52392173D01*
X45965274Y-52288278D01*
X45694355Y-52288042D01*
X45443968Y-52391499D01*
X45252233Y-52582901D01*
X45148338Y-52833106D01*
X45148102Y-53104025D01*
X45189308Y-53203751D01*
X45179058Y-53210347D01*
X45092064Y-53337667D01*
X45061459Y-53488801D01*
X44985799Y-53488801D01*
X44961621Y-53360311D01*
X44878178Y-53230636D01*
X44873152Y-53227202D01*
X44904822Y-53150934D01*
X44905058Y-52880015D01*
X44801601Y-52629628D01*
X44610199Y-52437893D01*
X44359994Y-52333998D01*
X44089075Y-52333762D01*
X43838688Y-52437219D01*
X43646953Y-52628621D01*
X43543058Y-52878826D01*
X43542822Y-53149745D01*
X43575276Y-53228291D01*
X43491865Y-53350367D01*
X43461260Y-53501501D01*
X39989911Y-53501501D01*
X39947661Y-53399248D01*
X39756259Y-53207513D01*
X39647127Y-53162197D01*
X39832687Y-52976959D01*
X39936582Y-52726754D01*
X39936818Y-52455835D01*
X39865590Y-52283449D01*
X39985087Y-52164159D01*
X40088982Y-51913954D01*
X40089218Y-51643035D01*
X39985761Y-51392648D01*
X39794359Y-51200913D01*
X39544154Y-51097018D01*
X39273235Y-51096782D01*
X39093273Y-51171140D01*
X39091197Y-51160110D01*
X39007754Y-51030435D01*
X38880434Y-50943441D01*
X38835300Y-50934301D01*
X38835300Y-50857719D01*
X38870490Y-50851097D01*
X39000165Y-50767654D01*
X39087159Y-50640334D01*
X39117764Y-50489200D01*
X39117764Y-50414165D01*
X41139982Y-50414165D01*
X41243439Y-50664552D01*
X41429387Y-50850824D01*
X41396513Y-50883641D01*
X41292618Y-51133846D01*
X41292382Y-51404765D01*
X41395839Y-51655152D01*
X41587241Y-51846887D01*
X41837446Y-51950782D01*
X42108365Y-51951018D01*
X42358752Y-51847561D01*
X42413022Y-51793385D01*
X45833902Y-51793385D01*
X45937359Y-52043772D01*
X46128761Y-52235507D01*
X46378966Y-52339402D01*
X46649885Y-52339638D01*
X46758566Y-52294732D01*
X46768046Y-52309465D01*
X46895366Y-52396459D01*
X47010749Y-52419824D01*
X46827033Y-52603221D01*
X46723138Y-52853426D01*
X46722902Y-53124345D01*
X46760765Y-53215981D01*
X46756060Y-53219008D01*
X46669066Y-53346328D01*
X46638461Y-53497462D01*
X46638461Y-54297462D01*
X46665028Y-54438652D01*
X46748471Y-54568327D01*
X46865723Y-54648442D01*
X46756060Y-54719008D01*
X46669066Y-54846328D01*
X46638461Y-54997462D01*
X46638461Y-55797462D01*
X46665028Y-55938652D01*
X46748471Y-56068327D01*
X46769755Y-56082869D01*
X46733298Y-56170666D01*
X46733062Y-56441585D01*
X46836519Y-56691972D01*
X47027921Y-56883707D01*
X47278126Y-56987602D01*
X47549045Y-56987838D01*
X47799432Y-56884381D01*
X47991167Y-56692979D01*
X48095062Y-56442774D01*
X48095298Y-56171855D01*
X48052692Y-56068741D01*
X48134784Y-55948596D01*
X48165389Y-55797462D01*
X48165389Y-54997462D01*
X48138822Y-54856272D01*
X48055379Y-54726597D01*
X47938127Y-54646482D01*
X48047790Y-54575916D01*
X48134784Y-54448596D01*
X48165389Y-54297462D01*
X48165389Y-53497462D01*
X48138822Y-53356272D01*
X48055379Y-53226597D01*
X48045687Y-53219974D01*
X48084902Y-53125534D01*
X48085138Y-52854615D01*
X47981681Y-52604228D01*
X47804825Y-52427064D01*
X47846500Y-52427064D01*
X47987690Y-52400497D01*
X48117365Y-52317054D01*
X48199597Y-52196703D01*
X48223504Y-52254419D01*
X48330680Y-52361596D01*
X48470714Y-52419600D01*
X48637020Y-52419600D01*
X48618968Y-52427059D01*
X48427233Y-52618461D01*
X48323338Y-52868666D01*
X48323102Y-53139585D01*
X48356047Y-53219319D01*
X48269266Y-53346328D01*
X48238661Y-53497462D01*
X48238661Y-54297462D01*
X48265228Y-54438652D01*
X48348671Y-54568327D01*
X48465923Y-54648442D01*
X48356260Y-54719008D01*
X48269266Y-54846328D01*
X48238661Y-54997462D01*
X48238661Y-55797462D01*
X48265228Y-55938652D01*
X48348671Y-56068327D01*
X48351812Y-56070473D01*
X48308098Y-56175746D01*
X48307862Y-56446665D01*
X48411319Y-56697052D01*
X48602721Y-56888787D01*
X48852926Y-56992682D01*
X49123845Y-56992918D01*
X49374232Y-56889461D01*
X49565967Y-56698059D01*
X49669862Y-56447854D01*
X49670098Y-56176935D01*
X49632481Y-56085895D01*
X49647990Y-56075916D01*
X49734984Y-55948596D01*
X49765589Y-55797462D01*
X49765589Y-54997462D01*
X49739022Y-54856272D01*
X49655579Y-54726597D01*
X49538327Y-54646482D01*
X49647990Y-54575916D01*
X49734984Y-54448596D01*
X49744941Y-54399425D01*
X50156982Y-54399425D01*
X50260439Y-54649812D01*
X50451841Y-54841547D01*
X50702046Y-54945442D01*
X50972965Y-54945678D01*
X51223352Y-54842221D01*
X51415087Y-54650819D01*
X51518982Y-54400614D01*
X51519218Y-54129695D01*
X51415761Y-53879308D01*
X51224359Y-53687573D01*
X50974154Y-53583678D01*
X50703235Y-53583442D01*
X50452848Y-53686899D01*
X50261113Y-53878301D01*
X50157218Y-54128506D01*
X50156982Y-54399425D01*
X49744941Y-54399425D01*
X49765589Y-54297462D01*
X49765589Y-53497462D01*
X49739022Y-53356272D01*
X49655579Y-53226597D01*
X49650816Y-53223343D01*
X49685102Y-53140774D01*
X49685200Y-53027825D01*
X53138942Y-53027825D01*
X53242399Y-53278212D01*
X53329358Y-53365322D01*
X53314193Y-53380461D01*
X53210298Y-53630666D01*
X53210062Y-53901585D01*
X53313519Y-54151972D01*
X53504921Y-54343707D01*
X53755126Y-54447602D01*
X54026045Y-54447838D01*
X54125548Y-54406724D01*
X54139126Y-54427825D01*
X54266446Y-54514819D01*
X54417580Y-54545424D01*
X55217580Y-54545424D01*
X55358770Y-54518857D01*
X55488445Y-54435414D01*
X55570677Y-54315063D01*
X55594584Y-54372779D01*
X55701760Y-54479956D01*
X55841794Y-54537960D01*
X56095330Y-54537960D01*
X56190580Y-54442710D01*
X56190580Y-53908960D01*
X56170580Y-53908960D01*
X56170580Y-53654960D01*
X56190580Y-53654960D01*
X56190580Y-53121210D01*
X56095330Y-53025960D01*
X55841794Y-53025960D01*
X55701760Y-53083964D01*
X55594584Y-53191141D01*
X55569861Y-53250827D01*
X55496034Y-53136095D01*
X55368714Y-53049101D01*
X55323580Y-53039961D01*
X55323580Y-52952891D01*
X55343530Y-52949137D01*
X55473205Y-52865694D01*
X55555437Y-52745343D01*
X55579344Y-52803059D01*
X55686520Y-52910236D01*
X55826554Y-52968240D01*
X56080090Y-52968240D01*
X56175340Y-52872990D01*
X56175340Y-52339240D01*
X56155340Y-52339240D01*
X56155340Y-52085240D01*
X56175340Y-52085240D01*
X56175340Y-51551490D01*
X56429340Y-51551490D01*
X56429340Y-52085240D01*
X56449340Y-52085240D01*
X56449340Y-52339240D01*
X56429340Y-52339240D01*
X56429340Y-52872990D01*
X56524590Y-52968240D01*
X56778126Y-52968240D01*
X56918160Y-52910236D01*
X57025336Y-52803059D01*
X57082024Y-52666202D01*
X57175048Y-52666202D01*
X57079800Y-52761450D01*
X57079800Y-53014986D01*
X57137804Y-53155020D01*
X57244981Y-53262196D01*
X57304667Y-53286919D01*
X57189935Y-53360746D01*
X57102941Y-53488066D01*
X57098580Y-53509602D01*
X57098580Y-53331175D01*
X57040576Y-53191141D01*
X56933400Y-53083964D01*
X56793366Y-53025960D01*
X56539830Y-53025960D01*
X56444580Y-53121210D01*
X56444580Y-53654960D01*
X56464580Y-53654960D01*
X56464580Y-53908960D01*
X56444580Y-53908960D01*
X56444580Y-54442710D01*
X56539830Y-54537960D01*
X56793366Y-54537960D01*
X56933400Y-54479956D01*
X57040576Y-54372779D01*
X57072336Y-54296104D01*
X57072336Y-54439200D01*
X57098903Y-54580390D01*
X57182346Y-54710065D01*
X57264300Y-54766062D01*
X57264300Y-54853264D01*
X57258813Y-54858741D01*
X57154918Y-55108946D01*
X57154682Y-55379865D01*
X57258139Y-55630252D01*
X57449541Y-55821987D01*
X57699746Y-55925882D01*
X57970665Y-55926118D01*
X58221052Y-55822661D01*
X58412787Y-55631259D01*
X58516682Y-55381054D01*
X58516918Y-55110135D01*
X58413461Y-54859748D01*
X58407300Y-54853576D01*
X58407300Y-54765506D01*
X58481665Y-54717654D01*
X58554744Y-54610700D01*
X58693207Y-54610700D01*
X58757146Y-54710065D01*
X58839100Y-54766062D01*
X58839100Y-54850712D01*
X58742418Y-55083546D01*
X58742182Y-55354465D01*
X58845639Y-55604852D01*
X59037041Y-55796587D01*
X59287246Y-55900482D01*
X59558165Y-55900718D01*
X59808552Y-55797261D01*
X60000287Y-55605859D01*
X60104182Y-55355654D01*
X60104418Y-55084735D01*
X60000961Y-54834348D01*
X59982100Y-54815454D01*
X59982100Y-54765506D01*
X60056465Y-54717654D01*
X60143459Y-54590334D01*
X60174064Y-54439200D01*
X60174064Y-53639200D01*
X60147497Y-53498010D01*
X60064054Y-53368335D01*
X59943703Y-53286103D01*
X60001419Y-53262196D01*
X60108596Y-53155020D01*
X60166600Y-53014986D01*
X60166600Y-52761450D01*
X60071350Y-52666200D01*
X59537600Y-52666200D01*
X59537600Y-52686200D01*
X59283600Y-52686200D01*
X59283600Y-52666200D01*
X58749850Y-52666200D01*
X58654600Y-52761450D01*
X58654600Y-53014986D01*
X58712604Y-53155020D01*
X58819781Y-53262196D01*
X58879467Y-53286919D01*
X58764735Y-53360746D01*
X58691656Y-53467700D01*
X58553193Y-53467700D01*
X58489254Y-53368335D01*
X58368903Y-53286103D01*
X58426619Y-53262196D01*
X58533796Y-53155020D01*
X58591800Y-53014986D01*
X58591800Y-52761450D01*
X58496550Y-52666200D01*
X57962800Y-52666200D01*
X57962800Y-52686200D01*
X57708800Y-52686200D01*
X57708800Y-52666200D01*
X57688800Y-52666200D01*
X57688800Y-52412200D01*
X57708800Y-52412200D01*
X57708800Y-51853450D01*
X57962800Y-51853450D01*
X57962800Y-52412200D01*
X58496550Y-52412200D01*
X58591800Y-52316950D01*
X58591800Y-52063414D01*
X58654600Y-52063414D01*
X58654600Y-52316950D01*
X58749850Y-52412200D01*
X59283600Y-52412200D01*
X59283600Y-51853450D01*
X59537600Y-51853450D01*
X59537600Y-52412200D01*
X60071350Y-52412200D01*
X60166600Y-52316950D01*
X60166600Y-52063414D01*
X60108596Y-51923380D01*
X60001419Y-51816204D01*
X59861385Y-51758200D01*
X59632850Y-51758200D01*
X59537600Y-51853450D01*
X59283600Y-51853450D01*
X59188350Y-51758200D01*
X58959815Y-51758200D01*
X58819781Y-51816204D01*
X58712604Y-51923380D01*
X58654600Y-52063414D01*
X58591800Y-52063414D01*
X58533796Y-51923380D01*
X58426619Y-51816204D01*
X58286585Y-51758200D01*
X58058050Y-51758200D01*
X57962800Y-51853450D01*
X57708800Y-51853450D01*
X57613550Y-51758200D01*
X57385015Y-51758200D01*
X57244981Y-51816204D01*
X57137804Y-51923380D01*
X57079800Y-52063414D01*
X57079800Y-52085238D01*
X56988092Y-52085238D01*
X57083340Y-51989990D01*
X57083340Y-51761455D01*
X57025336Y-51621421D01*
X56918160Y-51514244D01*
X56778126Y-51456240D01*
X56524590Y-51456240D01*
X56429340Y-51551490D01*
X56175340Y-51551490D01*
X56080090Y-51456240D01*
X55826554Y-51456240D01*
X55686520Y-51514244D01*
X55579344Y-51621421D01*
X55554621Y-51681107D01*
X55480794Y-51566375D01*
X55353474Y-51479381D01*
X55202340Y-51448776D01*
X54402340Y-51448776D01*
X54261150Y-51475343D01*
X54131475Y-51558786D01*
X54044481Y-51686106D01*
X54013876Y-51837240D01*
X54013876Y-52236063D01*
X53956114Y-52212078D01*
X53685195Y-52211842D01*
X53434808Y-52315299D01*
X53243073Y-52506701D01*
X53139178Y-52756906D01*
X53138942Y-53027825D01*
X49685200Y-53027825D01*
X49685338Y-52869855D01*
X49581881Y-52619468D01*
X49390479Y-52427733D01*
X49370893Y-52419600D01*
X49422286Y-52419600D01*
X49562320Y-52361596D01*
X49669496Y-52254419D01*
X49727500Y-52114385D01*
X49727500Y-51930545D01*
X50253502Y-51930545D01*
X50356959Y-52180932D01*
X50548361Y-52372667D01*
X50798566Y-52476562D01*
X51069485Y-52476798D01*
X51319872Y-52373341D01*
X51511607Y-52181939D01*
X51615502Y-51931734D01*
X51615738Y-51660815D01*
X51517288Y-51422545D01*
X52585222Y-51422545D01*
X52688679Y-51672932D01*
X52880081Y-51864667D01*
X53130286Y-51968562D01*
X53401205Y-51968798D01*
X53651592Y-51865341D01*
X53843327Y-51673939D01*
X53947222Y-51423734D01*
X53947458Y-51152815D01*
X53844001Y-50902428D01*
X53652599Y-50710693D01*
X53402394Y-50606798D01*
X53131475Y-50606562D01*
X52881088Y-50710019D01*
X52689353Y-50901421D01*
X52585458Y-51151626D01*
X52585222Y-51422545D01*
X51517288Y-51422545D01*
X51512281Y-51410428D01*
X51320879Y-51218693D01*
X51070674Y-51114798D01*
X50799755Y-51114562D01*
X50549368Y-51218019D01*
X50357633Y-51409421D01*
X50253738Y-51659626D01*
X50253502Y-51930545D01*
X49727500Y-51930545D01*
X49727500Y-51885850D01*
X49632250Y-51790600D01*
X49073500Y-51790600D01*
X49073500Y-51810600D01*
X48819500Y-51810600D01*
X48819500Y-51790600D01*
X48799500Y-51790600D01*
X48799500Y-51536600D01*
X48819500Y-51536600D01*
X48819500Y-51002850D01*
X49073500Y-51002850D01*
X49073500Y-51536600D01*
X49632250Y-51536600D01*
X49727500Y-51441350D01*
X49727500Y-51212815D01*
X49669496Y-51072781D01*
X49562320Y-50965604D01*
X49422286Y-50907600D01*
X49168750Y-50907600D01*
X49073500Y-51002850D01*
X48819500Y-51002850D01*
X48724250Y-50907600D01*
X48470714Y-50907600D01*
X48330680Y-50965604D01*
X48223504Y-51072781D01*
X48198781Y-51132467D01*
X48124954Y-51017735D01*
X47997634Y-50930741D01*
X47846500Y-50900136D01*
X47046500Y-50900136D01*
X46905310Y-50926703D01*
X46775635Y-51010146D01*
X46765408Y-51025114D01*
X46651074Y-50977638D01*
X46380155Y-50977402D01*
X46129768Y-51080859D01*
X45938033Y-51272261D01*
X45834138Y-51522466D01*
X45833902Y-51793385D01*
X42413022Y-51793385D01*
X42550487Y-51656159D01*
X42654382Y-51405954D01*
X42654618Y-51135035D01*
X42551161Y-50884648D01*
X42365213Y-50698376D01*
X42398087Y-50665559D01*
X42501982Y-50415354D01*
X42502135Y-50238905D01*
X45813582Y-50238905D01*
X45917039Y-50489292D01*
X46108441Y-50681027D01*
X46358646Y-50784922D01*
X46629565Y-50785158D01*
X46758171Y-50732019D01*
X46768046Y-50747365D01*
X46895366Y-50834359D01*
X47046500Y-50864964D01*
X47846500Y-50864964D01*
X47987690Y-50838397D01*
X48117365Y-50754954D01*
X48199597Y-50634603D01*
X48223504Y-50692319D01*
X48330680Y-50799496D01*
X48470714Y-50857500D01*
X48724250Y-50857500D01*
X48819500Y-50762250D01*
X48819500Y-50228500D01*
X49073500Y-50228500D01*
X49073500Y-50762250D01*
X49168750Y-50857500D01*
X49422286Y-50857500D01*
X49562320Y-50799496D01*
X49669496Y-50692319D01*
X49727500Y-50552285D01*
X49727500Y-50323750D01*
X49632250Y-50228500D01*
X49073500Y-50228500D01*
X48819500Y-50228500D01*
X48799500Y-50228500D01*
X48799500Y-49974500D01*
X48819500Y-49974500D01*
X48819500Y-49440750D01*
X49073500Y-49440750D01*
X49073500Y-49974500D01*
X49632250Y-49974500D01*
X49727500Y-49879250D01*
X49727500Y-49650715D01*
X49669496Y-49510681D01*
X49562320Y-49403504D01*
X49422286Y-49345500D01*
X49168750Y-49345500D01*
X49073500Y-49440750D01*
X48819500Y-49440750D01*
X48724250Y-49345500D01*
X48470714Y-49345500D01*
X48330680Y-49403504D01*
X48223504Y-49510681D01*
X48198781Y-49570367D01*
X48124954Y-49455635D01*
X47997634Y-49368641D01*
X47846500Y-49338036D01*
X47046500Y-49338036D01*
X46905310Y-49364603D01*
X46775635Y-49448046D01*
X46756861Y-49475523D01*
X46630754Y-49423158D01*
X46359835Y-49422922D01*
X46109448Y-49526379D01*
X45917713Y-49717781D01*
X45813818Y-49967986D01*
X45813582Y-50238905D01*
X42502135Y-50238905D01*
X42502218Y-50144435D01*
X42398761Y-49894048D01*
X42207359Y-49702313D01*
X41957154Y-49598418D01*
X41686235Y-49598182D01*
X41435848Y-49701639D01*
X41244113Y-49893041D01*
X41140218Y-50143246D01*
X41139982Y-50414165D01*
X39117764Y-50414165D01*
X39117764Y-49739200D01*
X39091197Y-49598010D01*
X39007754Y-49468335D01*
X38880434Y-49381341D01*
X38729300Y-49350736D01*
X37929300Y-49350736D01*
X37788110Y-49377303D01*
X37658435Y-49460746D01*
X37576203Y-49581097D01*
X37552296Y-49523381D01*
X37445120Y-49416204D01*
X37305086Y-49358200D01*
X37051550Y-49358200D01*
X36956300Y-49453450D01*
X36702300Y-49453450D01*
X36607050Y-49358200D01*
X36353514Y-49358200D01*
X36213480Y-49416204D01*
X36106304Y-49523381D01*
X36048300Y-49663415D01*
X32536600Y-49663415D01*
X32536600Y-41179100D01*
X34555236Y-41179100D01*
X34555236Y-41979100D01*
X34581803Y-42120290D01*
X34665246Y-42249965D01*
X34782498Y-42330080D01*
X34672835Y-42400646D01*
X34585841Y-42527966D01*
X34555236Y-42679100D01*
X34555236Y-43479100D01*
X34581803Y-43620290D01*
X34665246Y-43749965D01*
X34697283Y-43771855D01*
X34625118Y-43945646D01*
X34624882Y-44216565D01*
X34728339Y-44466952D01*
X34919741Y-44658687D01*
X35169946Y-44762582D01*
X35440865Y-44762818D01*
X35691252Y-44659361D01*
X35882987Y-44467959D01*
X35986882Y-44217754D01*
X35987118Y-43946835D01*
X35920599Y-43785845D01*
X35964565Y-43757554D01*
X36051559Y-43630234D01*
X36082164Y-43479100D01*
X36082164Y-42679100D01*
X36055597Y-42537910D01*
X35972154Y-42408235D01*
X35854902Y-42328120D01*
X35964565Y-42257554D01*
X36051559Y-42130234D01*
X36060699Y-42085100D01*
X36092779Y-42085100D01*
X36164341Y-42156787D01*
X36414546Y-42260682D01*
X36685465Y-42260918D01*
X36935852Y-42157461D01*
X37068223Y-42025320D01*
X37083703Y-42107590D01*
X37167146Y-42237265D01*
X37284398Y-42317380D01*
X37174735Y-42387946D01*
X37087741Y-42515266D01*
X37057136Y-42666400D01*
X37057136Y-43466400D01*
X37083703Y-43607590D01*
X37167146Y-43737265D01*
X37194321Y-43755833D01*
X37152418Y-43856746D01*
X37152182Y-44127665D01*
X37255639Y-44378052D01*
X37447041Y-44569787D01*
X37697246Y-44673682D01*
X37968165Y-44673918D01*
X38218552Y-44570461D01*
X38410287Y-44379059D01*
X38514182Y-44128854D01*
X38514418Y-43857935D01*
X38467231Y-43743733D01*
X38553459Y-43617534D01*
X38584064Y-43466400D01*
X38584064Y-42666400D01*
X38557497Y-42525210D01*
X38474054Y-42395535D01*
X38356802Y-42315420D01*
X38466465Y-42244854D01*
X38553459Y-42117534D01*
X38562599Y-42072400D01*
X38620101Y-42072400D01*
X38704341Y-42156787D01*
X38954546Y-42260682D01*
X39225465Y-42260918D01*
X39475852Y-42157461D01*
X39606211Y-42027328D01*
X39623703Y-42120290D01*
X39707146Y-42249965D01*
X39824398Y-42330080D01*
X39714735Y-42400646D01*
X39627741Y-42527966D01*
X39597136Y-42679100D01*
X39597136Y-43479100D01*
X39623703Y-43620290D01*
X39707146Y-43749965D01*
X39728536Y-43764580D01*
X39679718Y-43882146D01*
X39679482Y-44153065D01*
X39782939Y-44403452D01*
X39974341Y-44595187D01*
X40224546Y-44699082D01*
X40495465Y-44699318D01*
X40745852Y-44595861D01*
X40937587Y-44404459D01*
X41041482Y-44154254D01*
X41041718Y-43883335D01*
X40993258Y-43766052D01*
X41006465Y-43757554D01*
X41093459Y-43630234D01*
X41124064Y-43479100D01*
X41124064Y-42679100D01*
X41097497Y-42537910D01*
X41014054Y-42408235D01*
X40896802Y-42328120D01*
X41006465Y-42257554D01*
X41093459Y-42130234D01*
X41102599Y-42085100D01*
X41198179Y-42085100D01*
X41269741Y-42156787D01*
X41519946Y-42260682D01*
X41790865Y-42260918D01*
X42041252Y-42157461D01*
X42135512Y-42063364D01*
X42151003Y-42145690D01*
X42234446Y-42275365D01*
X42351698Y-42355480D01*
X42242035Y-42426046D01*
X42155041Y-42553366D01*
X42124436Y-42704500D01*
X42124436Y-43504500D01*
X42151003Y-43645690D01*
X42234446Y-43775365D01*
X42273945Y-43802354D01*
X42219718Y-43932946D01*
X42219482Y-44203865D01*
X42322939Y-44454252D01*
X42514341Y-44645987D01*
X42764546Y-44749882D01*
X43035465Y-44750118D01*
X43285852Y-44646661D01*
X43477587Y-44455259D01*
X43581482Y-44205054D01*
X43581718Y-43934135D01*
X43522300Y-43790331D01*
X43533765Y-43782954D01*
X43620759Y-43655634D01*
X43651364Y-43504500D01*
X43651364Y-42704500D01*
X43624797Y-42563310D01*
X43541354Y-42433635D01*
X43424102Y-42353520D01*
X43533765Y-42282954D01*
X43620759Y-42155634D01*
X43629899Y-42110500D01*
X43700101Y-42110500D01*
X43784341Y-42194887D01*
X44034546Y-42298782D01*
X44305465Y-42299018D01*
X44555852Y-42195561D01*
X44677531Y-42074093D01*
X44691003Y-42145690D01*
X44774446Y-42275365D01*
X44891698Y-42355480D01*
X44782035Y-42426046D01*
X44695041Y-42553366D01*
X44664436Y-42704500D01*
X44664436Y-43504500D01*
X44691003Y-43645690D01*
X44774446Y-43775365D01*
X44826269Y-43810774D01*
X44759718Y-43971046D01*
X44759482Y-44241965D01*
X44862939Y-44492352D01*
X45054341Y-44684087D01*
X45304546Y-44787982D01*
X45575465Y-44788218D01*
X45825852Y-44684761D01*
X46017587Y-44493359D01*
X46121482Y-44243154D01*
X46121718Y-43972235D01*
X46049864Y-43798334D01*
X46073765Y-43782954D01*
X46160759Y-43655634D01*
X46191364Y-43504500D01*
X46191364Y-42704500D01*
X46164797Y-42563310D01*
X46081354Y-42433635D01*
X45964102Y-42353520D01*
X46073765Y-42282954D01*
X46160759Y-42155634D01*
X46169899Y-42110500D01*
X46265479Y-42110500D01*
X46337041Y-42182187D01*
X46587246Y-42286082D01*
X46858165Y-42286318D01*
X47108552Y-42182861D01*
X47228219Y-42063402D01*
X47243703Y-42145690D01*
X47327146Y-42275365D01*
X47444398Y-42355480D01*
X47334735Y-42426046D01*
X47247741Y-42553366D01*
X47217136Y-42704500D01*
X47217136Y-43504500D01*
X47243703Y-43645690D01*
X47327146Y-43775365D01*
X47346859Y-43788834D01*
X47287018Y-43932946D01*
X47286782Y-44203865D01*
X47390239Y-44454252D01*
X47581641Y-44645987D01*
X47831846Y-44749882D01*
X48102765Y-44750118D01*
X48353152Y-44646661D01*
X48544887Y-44455259D01*
X48648782Y-44205054D01*
X48649018Y-43934135D01*
X48594935Y-43803243D01*
X48626465Y-43782954D01*
X48713459Y-43655634D01*
X48744064Y-43504500D01*
X48744064Y-42704500D01*
X48717497Y-42563310D01*
X48634054Y-42433635D01*
X48516802Y-42353520D01*
X48626465Y-42282954D01*
X48713459Y-42155634D01*
X48722599Y-42110500D01*
X48767401Y-42110500D01*
X48851641Y-42194887D01*
X49101846Y-42298782D01*
X49372765Y-42299018D01*
X49623152Y-42195561D01*
X49766214Y-42052747D01*
X49783703Y-42145690D01*
X49867146Y-42275365D01*
X49984398Y-42355480D01*
X49874735Y-42426046D01*
X49787741Y-42553366D01*
X49757136Y-42704500D01*
X49757136Y-43504500D01*
X49783703Y-43645690D01*
X49867146Y-43775365D01*
X49896752Y-43795594D01*
X49839718Y-43932946D01*
X49839482Y-44203865D01*
X49942939Y-44454252D01*
X50134341Y-44645987D01*
X50384546Y-44749882D01*
X50655465Y-44750118D01*
X50905852Y-44646661D01*
X51097587Y-44455259D01*
X51201482Y-44205054D01*
X51201718Y-43934135D01*
X51144967Y-43796787D01*
X51166465Y-43782954D01*
X51253459Y-43655634D01*
X51284064Y-43504500D01*
X51284064Y-42704500D01*
X51257497Y-42563310D01*
X51174054Y-42433635D01*
X51056802Y-42353520D01*
X51166465Y-42282954D01*
X51253459Y-42155634D01*
X51262599Y-42110500D01*
X51307423Y-42110500D01*
X51404341Y-42207587D01*
X51654546Y-42311482D01*
X51925465Y-42311718D01*
X52175852Y-42208261D01*
X52288851Y-42095458D01*
X52298303Y-42145690D01*
X52381746Y-42275365D01*
X52498998Y-42355480D01*
X52389335Y-42426046D01*
X52302341Y-42553366D01*
X52271736Y-42704500D01*
X52271736Y-43504500D01*
X52298303Y-43645690D01*
X52381746Y-43775365D01*
X52413029Y-43796740D01*
X52367018Y-43907546D01*
X52366782Y-44178465D01*
X52470239Y-44428852D01*
X52661641Y-44620587D01*
X52911846Y-44724482D01*
X53182765Y-44724718D01*
X53433152Y-44621261D01*
X53624887Y-44429859D01*
X53728782Y-44179654D01*
X53729018Y-43908735D01*
X53677891Y-43784997D01*
X53681065Y-43782954D01*
X53768059Y-43655634D01*
X53798664Y-43504500D01*
X53798664Y-42704500D01*
X53772097Y-42563310D01*
X53688654Y-42433635D01*
X53571402Y-42353520D01*
X53681065Y-42282954D01*
X53768059Y-42155634D01*
X53777199Y-42110500D01*
X53872801Y-42110500D01*
X53957041Y-42194887D01*
X54207246Y-42298782D01*
X54478165Y-42299018D01*
X54728552Y-42195561D01*
X54882306Y-42042074D01*
X54901803Y-42145690D01*
X54985246Y-42275365D01*
X55102498Y-42355480D01*
X54992835Y-42426046D01*
X54905841Y-42553366D01*
X54875236Y-42704500D01*
X54875236Y-43504500D01*
X54901803Y-43645690D01*
X54985246Y-43775365D01*
X55013175Y-43794448D01*
X54945118Y-43958346D01*
X54944882Y-44229265D01*
X55048339Y-44479652D01*
X55239741Y-44671387D01*
X55489946Y-44775282D01*
X55760865Y-44775518D01*
X56011252Y-44672061D01*
X56202987Y-44480659D01*
X56306882Y-44230454D01*
X56307118Y-43959535D01*
X56244744Y-43808578D01*
X56284565Y-43782954D01*
X56371559Y-43655634D01*
X56402164Y-43504500D01*
X56402164Y-42704500D01*
X56375597Y-42563310D01*
X56292154Y-42433635D01*
X56174902Y-42353520D01*
X56284565Y-42282954D01*
X56371559Y-42155634D01*
X56380699Y-42110500D01*
X56400101Y-42110500D01*
X56484341Y-42194887D01*
X56734546Y-42298782D01*
X57005465Y-42299018D01*
X57255852Y-42195561D01*
X57388223Y-42063420D01*
X57403703Y-42145690D01*
X57487146Y-42275365D01*
X57604398Y-42355480D01*
X57494735Y-42426046D01*
X57407741Y-42553366D01*
X57377136Y-42704500D01*
X57377136Y-43504500D01*
X57403703Y-43645690D01*
X57487146Y-43775365D01*
X57529076Y-43804015D01*
X57459718Y-43971046D01*
X57459482Y-44241965D01*
X57562939Y-44492352D01*
X57754341Y-44684087D01*
X58004546Y-44787982D01*
X58275465Y-44788218D01*
X58525852Y-44684761D01*
X58717587Y-44493359D01*
X58821482Y-44243154D01*
X58821718Y-43972235D01*
X58752531Y-43804789D01*
X58786465Y-43782954D01*
X58873459Y-43655634D01*
X58904064Y-43504500D01*
X58904064Y-42704500D01*
X58877497Y-42563310D01*
X58794054Y-42433635D01*
X58676802Y-42353520D01*
X58786465Y-42282954D01*
X58873459Y-42155634D01*
X58882599Y-42110500D01*
X59029001Y-42110500D01*
X59113241Y-42194887D01*
X59363446Y-42298782D01*
X59634365Y-42299018D01*
X59884752Y-42195561D01*
X60076487Y-42004159D01*
X60180382Y-41753954D01*
X60180618Y-41483035D01*
X60077161Y-41232648D01*
X59885759Y-41040913D01*
X59635554Y-40937018D01*
X59364635Y-40936782D01*
X59114248Y-41040239D01*
X59055886Y-41098500D01*
X58884119Y-41098500D01*
X58877497Y-41063310D01*
X58794054Y-40933635D01*
X58666734Y-40846641D01*
X58515600Y-40816036D01*
X57765600Y-40816036D01*
X57624410Y-40842603D01*
X57494735Y-40926046D01*
X57407741Y-41053366D01*
X57384392Y-41168668D01*
X57256859Y-41040913D01*
X57006654Y-40937018D01*
X56735735Y-40936782D01*
X56485348Y-41040239D01*
X56426986Y-41098500D01*
X56382219Y-41098500D01*
X56375597Y-41063310D01*
X56292154Y-40933635D01*
X56164834Y-40846641D01*
X56013700Y-40816036D01*
X55263700Y-40816036D01*
X55122510Y-40842603D01*
X54992835Y-40926046D01*
X54905841Y-41053366D01*
X54878209Y-41189821D01*
X54729559Y-41040913D01*
X54479354Y-40937018D01*
X54208435Y-40936782D01*
X53958048Y-41040239D01*
X53899686Y-41098500D01*
X53778719Y-41098500D01*
X53772097Y-41063310D01*
X53688654Y-40933635D01*
X53561334Y-40846641D01*
X53410200Y-40816036D01*
X52660200Y-40816036D01*
X52519010Y-40842603D01*
X52389335Y-40926046D01*
X52302341Y-41053366D01*
X52281138Y-41158073D01*
X52176859Y-41053613D01*
X51926654Y-40949718D01*
X51655735Y-40949482D01*
X51405348Y-41052939D01*
X51359708Y-41098500D01*
X51264119Y-41098500D01*
X51257497Y-41063310D01*
X51174054Y-40933635D01*
X51046734Y-40846641D01*
X50895600Y-40816036D01*
X50145600Y-40816036D01*
X50004410Y-40842603D01*
X49874735Y-40926046D01*
X49787741Y-41053366D01*
X49762250Y-41179245D01*
X49624159Y-41040913D01*
X49373954Y-40937018D01*
X49103035Y-40936782D01*
X48852648Y-41040239D01*
X48794286Y-41098500D01*
X48724119Y-41098500D01*
X48717497Y-41063310D01*
X48634054Y-40933635D01*
X48506734Y-40846641D01*
X48355600Y-40816036D01*
X47605600Y-40816036D01*
X47464410Y-40842603D01*
X47334735Y-40926046D01*
X47247741Y-41053366D01*
X47228672Y-41147533D01*
X47109559Y-41028213D01*
X46859354Y-40924318D01*
X46588435Y-40924082D01*
X46338048Y-41027539D01*
X46266964Y-41098500D01*
X46171419Y-41098500D01*
X46164797Y-41063310D01*
X46081354Y-40933635D01*
X45954034Y-40846641D01*
X45802900Y-40816036D01*
X45052900Y-40816036D01*
X44911710Y-40842603D01*
X44782035Y-40926046D01*
X44695041Y-41053366D01*
X44673834Y-41158091D01*
X44556859Y-41040913D01*
X44306654Y-40937018D01*
X44035735Y-40936782D01*
X43785348Y-41040239D01*
X43726986Y-41098500D01*
X43631419Y-41098500D01*
X43624797Y-41063310D01*
X43541354Y-40933635D01*
X43414034Y-40846641D01*
X43262900Y-40816036D01*
X42512900Y-40816036D01*
X42371710Y-40842603D01*
X42242035Y-40926046D01*
X42155041Y-41053366D01*
X42144532Y-41105264D01*
X42042259Y-41002813D01*
X41792054Y-40898918D01*
X41521135Y-40898682D01*
X41270748Y-41002139D01*
X41199664Y-41073100D01*
X41104119Y-41073100D01*
X41097497Y-41037910D01*
X41014054Y-40908235D01*
X40886734Y-40821241D01*
X40735600Y-40790636D01*
X39985600Y-40790636D01*
X39844410Y-40817203D01*
X39714735Y-40900646D01*
X39627741Y-41027966D01*
X39606530Y-41132710D01*
X39476859Y-41002813D01*
X39226654Y-40898918D01*
X38955735Y-40898682D01*
X38705348Y-41002139D01*
X38646986Y-41060400D01*
X38564119Y-41060400D01*
X38557497Y-41025210D01*
X38474054Y-40895535D01*
X38346734Y-40808541D01*
X38195600Y-40777936D01*
X37445600Y-40777936D01*
X37304410Y-40804503D01*
X37174735Y-40887946D01*
X37087741Y-41015266D01*
X37064392Y-41130568D01*
X36936859Y-41002813D01*
X36686654Y-40898918D01*
X36415735Y-40898682D01*
X36165348Y-41002139D01*
X36094264Y-41073100D01*
X36062219Y-41073100D01*
X36055597Y-41037910D01*
X35972154Y-40908235D01*
X35844834Y-40821241D01*
X35693700Y-40790636D01*
X34943700Y-40790636D01*
X34802510Y-40817203D01*
X34672835Y-40900646D01*
X34585841Y-41027966D01*
X34555236Y-41179100D01*
X32536600Y-41179100D01*
X32536600Y-39114031D01*
X34036000Y-39114031D01*
X34036000Y-39473569D01*
X34130740Y-39949857D01*
X34400535Y-40353634D01*
X34804312Y-40623429D01*
X35280600Y-40718169D01*
X35756888Y-40623429D01*
X36160665Y-40353634D01*
X36430460Y-39949857D01*
X36525200Y-39473569D01*
X36525200Y-39114031D01*
X36430460Y-38637743D01*
X36160665Y-38233966D01*
X35886091Y-38050501D01*
X36082128Y-37854464D01*
X36338315Y-37854464D01*
X36362517Y-37976138D01*
X36472204Y-38140296D01*
X36790467Y-38458559D01*
X36670740Y-38637743D01*
X36576000Y-39114031D01*
X36576000Y-39473569D01*
X36670740Y-39949857D01*
X36940535Y-40353634D01*
X37344312Y-40623429D01*
X37820600Y-40718169D01*
X38296888Y-40623429D01*
X38700665Y-40353634D01*
X38970460Y-39949857D01*
X39065200Y-39473569D01*
X39065200Y-39114031D01*
X39116000Y-39114031D01*
X39116000Y-39473569D01*
X39210740Y-39949857D01*
X39480535Y-40353634D01*
X39884312Y-40623429D01*
X40360600Y-40718169D01*
X40836888Y-40623429D01*
X41240665Y-40353634D01*
X41510460Y-39949857D01*
X41605200Y-39473569D01*
X41605200Y-39114031D01*
X41510460Y-38637743D01*
X41240665Y-38233966D01*
X40932341Y-38027951D01*
X42157692Y-36802600D01*
X42257136Y-36802600D01*
X42257136Y-37121600D01*
X42283703Y-37262790D01*
X42367146Y-37392465D01*
X42394600Y-37411224D01*
X42394600Y-37984024D01*
X42020535Y-38233966D01*
X41750740Y-38637743D01*
X41656000Y-39114031D01*
X41656000Y-39473569D01*
X41750740Y-39949857D01*
X42020535Y-40353634D01*
X42424312Y-40623429D01*
X42900600Y-40718169D01*
X43376888Y-40623429D01*
X43780665Y-40353634D01*
X44050460Y-39949857D01*
X44145200Y-39473569D01*
X44145200Y-39114031D01*
X44050460Y-38637743D01*
X44013225Y-38582017D01*
X44253943Y-38822735D01*
X44196000Y-39114031D01*
X44196000Y-39473569D01*
X44290740Y-39949857D01*
X44560535Y-40353634D01*
X44964312Y-40623429D01*
X45440600Y-40718169D01*
X45916888Y-40623429D01*
X46320665Y-40353634D01*
X46590460Y-39949857D01*
X46685200Y-39473569D01*
X46685200Y-39114031D01*
X46590460Y-38637743D01*
X46553225Y-38582017D01*
X46793943Y-38822735D01*
X46736000Y-39114031D01*
X46736000Y-39473569D01*
X46830740Y-39949857D01*
X47100535Y-40353634D01*
X47504312Y-40623429D01*
X47980600Y-40718169D01*
X48456888Y-40623429D01*
X48860665Y-40353634D01*
X49130460Y-39949857D01*
X49225200Y-39473569D01*
X49225200Y-39114031D01*
X49276000Y-39114031D01*
X49276000Y-39473569D01*
X49370740Y-39949857D01*
X49640535Y-40353634D01*
X50044312Y-40623429D01*
X50520600Y-40718169D01*
X50996888Y-40623429D01*
X51400665Y-40353634D01*
X51670460Y-39949857D01*
X51765200Y-39473569D01*
X51765200Y-39114031D01*
X51670460Y-38637743D01*
X51400665Y-38233966D01*
X51069502Y-38012690D01*
X52379036Y-36703156D01*
X52379036Y-36956500D01*
X52405603Y-37097690D01*
X52489046Y-37227365D01*
X52616366Y-37314359D01*
X52686500Y-37328561D01*
X52686500Y-37943844D01*
X52584312Y-37964171D01*
X52180535Y-38233966D01*
X51910740Y-38637743D01*
X51816000Y-39114031D01*
X51816000Y-39473569D01*
X51910740Y-39949857D01*
X52180535Y-40353634D01*
X52584312Y-40623429D01*
X53060600Y-40718169D01*
X53536888Y-40623429D01*
X53940665Y-40353634D01*
X54210460Y-39949857D01*
X54305200Y-39473569D01*
X54305200Y-39114031D01*
X54210460Y-38637743D01*
X54173225Y-38582017D01*
X54413943Y-38822735D01*
X54356000Y-39114031D01*
X54356000Y-39473569D01*
X54450740Y-39949857D01*
X54720535Y-40353634D01*
X55124312Y-40623429D01*
X55600600Y-40718169D01*
X56076888Y-40623429D01*
X56480665Y-40353634D01*
X56750460Y-39949857D01*
X56845200Y-39473569D01*
X56845200Y-39114031D01*
X56750460Y-38637743D01*
X56713225Y-38582017D01*
X56888536Y-38757328D01*
X56888536Y-40309800D01*
X56915103Y-40450990D01*
X56998546Y-40580665D01*
X57125866Y-40667659D01*
X57277000Y-40698264D01*
X59004200Y-40698264D01*
X59145390Y-40671697D01*
X59275065Y-40588254D01*
X59362059Y-40460934D01*
X59392664Y-40309800D01*
X59392664Y-38277800D01*
X59366097Y-38136610D01*
X59282654Y-38006935D01*
X59155334Y-37919941D01*
X59004200Y-37889336D01*
X57451728Y-37889336D01*
X56205964Y-36643572D01*
X56205964Y-36606500D01*
X56179397Y-36465310D01*
X56174895Y-36458313D01*
X56175359Y-36457634D01*
X56205964Y-36306500D01*
X56205964Y-35956500D01*
X56179397Y-35815310D01*
X56174895Y-35808313D01*
X56175359Y-35807634D01*
X56205964Y-35656500D01*
X56205964Y-35306500D01*
X56179397Y-35165310D01*
X56095954Y-35035635D01*
X56065762Y-35015006D01*
X56078282Y-34984854D01*
X56078518Y-34713935D01*
X55975061Y-34463548D01*
X55783659Y-34271813D01*
X55533454Y-34167918D01*
X55262535Y-34167682D01*
X55012148Y-34271139D01*
X54820413Y-34462541D01*
X54716518Y-34712746D01*
X54716282Y-34983665D01*
X54726642Y-35008737D01*
X54696635Y-35028046D01*
X54609641Y-35155366D01*
X54579036Y-35306500D01*
X54579036Y-35625500D01*
X54559200Y-35625500D01*
X54365562Y-35664017D01*
X54201404Y-35773704D01*
X54005964Y-35969144D01*
X54005964Y-35956500D01*
X53979397Y-35815310D01*
X53974895Y-35808313D01*
X53975359Y-35807634D01*
X54005964Y-35656500D01*
X54005964Y-35306500D01*
X53979397Y-35165310D01*
X53895954Y-35035635D01*
X53768634Y-34948641D01*
X53617500Y-34918036D01*
X52767500Y-34918036D01*
X52626310Y-34944603D01*
X52496635Y-35028046D01*
X52409641Y-35155366D01*
X52379036Y-35306500D01*
X52379036Y-35625500D01*
X52235100Y-35625500D01*
X52041462Y-35664017D01*
X51877304Y-35773704D01*
X50162804Y-37488204D01*
X50053117Y-37652362D01*
X50014600Y-37846000D01*
X50014600Y-37984024D01*
X49640535Y-38233966D01*
X49370740Y-38637743D01*
X49276000Y-39114031D01*
X49225200Y-39114031D01*
X49130460Y-38637743D01*
X48860665Y-38233966D01*
X48456888Y-37964171D01*
X47980600Y-37869431D01*
X47504312Y-37964171D01*
X47421737Y-38019345D01*
X46063221Y-36660829D01*
X46057497Y-36630410D01*
X46052995Y-36623413D01*
X46053459Y-36622734D01*
X46084064Y-36471600D01*
X46084064Y-36305415D01*
X46142746Y-36329782D01*
X46413665Y-36330018D01*
X46664052Y-36226561D01*
X46855787Y-36035159D01*
X46959682Y-35784954D01*
X46959918Y-35514035D01*
X46856461Y-35263648D01*
X46665059Y-35071913D01*
X46414854Y-34968018D01*
X46143935Y-34967782D01*
X45893548Y-35071239D01*
X45849250Y-35115460D01*
X45846734Y-35113741D01*
X45695600Y-35083136D01*
X44845600Y-35083136D01*
X44704410Y-35109703D01*
X44574735Y-35193146D01*
X44487741Y-35320466D01*
X44457136Y-35471600D01*
X44457136Y-35816969D01*
X44396062Y-35829117D01*
X44231904Y-35938804D01*
X43884064Y-36286644D01*
X43884064Y-36121600D01*
X43857497Y-35980410D01*
X43852995Y-35973413D01*
X43853459Y-35972734D01*
X43884064Y-35821600D01*
X43884064Y-35471600D01*
X43857497Y-35330410D01*
X43774054Y-35200735D01*
X43646734Y-35113741D01*
X43495600Y-35083136D01*
X42645600Y-35083136D01*
X42504410Y-35109703D01*
X42374735Y-35193146D01*
X42287741Y-35320466D01*
X42257136Y-35471600D01*
X42257136Y-35790600D01*
X41948100Y-35790600D01*
X41754462Y-35829117D01*
X41590304Y-35938804D01*
X40002804Y-37526304D01*
X39893117Y-37690462D01*
X39854600Y-37884100D01*
X39854600Y-37984024D01*
X39480535Y-38233966D01*
X39210740Y-38637743D01*
X39116000Y-39114031D01*
X39065200Y-39114031D01*
X38970460Y-38637743D01*
X38700665Y-38233966D01*
X38296888Y-37964171D01*
X37820600Y-37869431D01*
X37663727Y-37900635D01*
X37617556Y-37854464D01*
X37655000Y-37854464D01*
X37796190Y-37827897D01*
X37925865Y-37744454D01*
X38012199Y-37618100D01*
X38243346Y-37714082D01*
X38514265Y-37714318D01*
X38764652Y-37610861D01*
X38956387Y-37419459D01*
X39060282Y-37169254D01*
X39060518Y-36898335D01*
X38957061Y-36647948D01*
X38765659Y-36456213D01*
X38515454Y-36352318D01*
X38244535Y-36352082D01*
X38002323Y-36452161D01*
X37933454Y-36345135D01*
X37806134Y-36258141D01*
X37655000Y-36227536D01*
X37305000Y-36227536D01*
X37163810Y-36254103D01*
X37156813Y-36258605D01*
X37156134Y-36258141D01*
X37005000Y-36227536D01*
X36655000Y-36227536D01*
X36513810Y-36254103D01*
X36506813Y-36258605D01*
X36506134Y-36258141D01*
X36355000Y-36227536D01*
X36005000Y-36227536D01*
X35863810Y-36254103D01*
X35734135Y-36337546D01*
X35647141Y-36464866D01*
X35616536Y-36616000D01*
X35616536Y-36888872D01*
X34922804Y-37582604D01*
X34813117Y-37746762D01*
X34774600Y-37940400D01*
X34774600Y-37984024D01*
X34400535Y-38233966D01*
X34130740Y-38637743D01*
X34036000Y-39114031D01*
X32536600Y-39114031D01*
X32536600Y-34416000D01*
X35616536Y-34416000D01*
X35616536Y-35266000D01*
X35643103Y-35407190D01*
X35726546Y-35536865D01*
X35853866Y-35623859D01*
X36005000Y-35654464D01*
X36355000Y-35654464D01*
X36496190Y-35627897D01*
X36503187Y-35623395D01*
X36503866Y-35623859D01*
X36655000Y-35654464D01*
X37005000Y-35654464D01*
X37146190Y-35627897D01*
X37153187Y-35623395D01*
X37153866Y-35623859D01*
X37305000Y-35654464D01*
X37655000Y-35654464D01*
X37796190Y-35627897D01*
X37925865Y-35544454D01*
X38012859Y-35417134D01*
X38043464Y-35266000D01*
X38043464Y-34416000D01*
X38016897Y-34274810D01*
X37933454Y-34145135D01*
X37806134Y-34058141D01*
X37655000Y-34027536D01*
X37305000Y-34027536D01*
X37163810Y-34054103D01*
X37156813Y-34058605D01*
X37156134Y-34058141D01*
X37005000Y-34027536D01*
X36655000Y-34027536D01*
X36513810Y-34054103D01*
X36506813Y-34058605D01*
X36506134Y-34058141D01*
X36355000Y-34027536D01*
X36005000Y-34027536D01*
X35863810Y-34054103D01*
X35734135Y-34137546D01*
X35647141Y-34264866D01*
X35616536Y-34416000D01*
X32536600Y-34416000D01*
X32536600Y-28904400D01*
X60706800Y-28904400D01*
X60706800Y-59446220D01*
X60706800Y-59446220D01*
G37*
X60706800Y-59446220D02*
X55412680Y-59447152D01*
X55412680Y-59187599D01*
X55428287Y-59172019D01*
X55532182Y-58921814D01*
X55532418Y-58650895D01*
X55428961Y-58400508D01*
X55237559Y-58208773D01*
X54987354Y-58104878D01*
X54716435Y-58104642D01*
X54466048Y-58208099D01*
X54274313Y-58399501D01*
X54170418Y-58649706D01*
X54170182Y-58920625D01*
X54269680Y-59161430D01*
X54269680Y-59447353D01*
X51400640Y-59447858D01*
X51400640Y-56676936D01*
X51406127Y-56671459D01*
X51510022Y-56421254D01*
X51510258Y-56150335D01*
X51416502Y-55923425D01*
X52600462Y-55923425D01*
X52703919Y-56173812D01*
X52816340Y-56286428D01*
X52704593Y-56397981D01*
X52600698Y-56648186D01*
X52600462Y-56919105D01*
X52703919Y-57169492D01*
X52895321Y-57361227D01*
X53145526Y-57465122D01*
X53416445Y-57465358D01*
X53666832Y-57361901D01*
X53858567Y-57170499D01*
X53962462Y-56920294D01*
X53962698Y-56649375D01*
X53859241Y-56398988D01*
X53746820Y-56286372D01*
X53858567Y-56174819D01*
X53962462Y-55924614D01*
X53962698Y-55653695D01*
X53859241Y-55403308D01*
X53667839Y-55211573D01*
X53417634Y-55107678D01*
X53146715Y-55107442D01*
X52896328Y-55210899D01*
X52704593Y-55402301D01*
X52600698Y-55652506D01*
X52600462Y-55923425D01*
X51416502Y-55923425D01*
X51406801Y-55899948D01*
X51215399Y-55708213D01*
X50965194Y-55604318D01*
X50694275Y-55604082D01*
X50443888Y-55707539D01*
X50252153Y-55898941D01*
X50148258Y-56149146D01*
X50148022Y-56420065D01*
X50251479Y-56670452D01*
X50257640Y-56676624D01*
X50257640Y-59448059D01*
X37092778Y-59450376D01*
X37085081Y-59431748D01*
X36893679Y-59240013D01*
X36643474Y-59136118D01*
X36372555Y-59135882D01*
X36122168Y-59239339D01*
X35930433Y-59430741D01*
X35922194Y-59450582D01*
X32536600Y-59451177D01*
X32536600Y-58879985D01*
X41312702Y-58879985D01*
X41416159Y-59130372D01*
X41607561Y-59322107D01*
X41857766Y-59426002D01*
X42128685Y-59426238D01*
X42379072Y-59322781D01*
X42570807Y-59131379D01*
X42674702Y-58881174D01*
X42674938Y-58610255D01*
X42571481Y-58359868D01*
X42380079Y-58168133D01*
X42129874Y-58064238D01*
X41858955Y-58064002D01*
X41608568Y-58167459D01*
X41416833Y-58358861D01*
X41312938Y-58609066D01*
X41312702Y-58879985D01*
X32536600Y-58879985D01*
X32536600Y-55670450D01*
X36048300Y-55670450D01*
X36048300Y-55898985D01*
X36106304Y-56039019D01*
X36213480Y-56146196D01*
X36353514Y-56204200D01*
X36607050Y-56204200D01*
X36702300Y-56108950D01*
X36702300Y-55575200D01*
X36143550Y-55575200D01*
X36048300Y-55670450D01*
X32536600Y-55670450D01*
X32536600Y-54997415D01*
X36048300Y-54997415D01*
X36048300Y-55225950D01*
X36143550Y-55321200D01*
X36702300Y-55321200D01*
X36702300Y-54787450D01*
X36956300Y-54787450D01*
X36956300Y-55321200D01*
X36976300Y-55321200D01*
X36976300Y-55575200D01*
X36956300Y-55575200D01*
X36956300Y-56108950D01*
X37051550Y-56204200D01*
X37305086Y-56204200D01*
X37445120Y-56146196D01*
X37552296Y-56039019D01*
X37577019Y-55979333D01*
X37650846Y-56094065D01*
X37778166Y-56181059D01*
X37929300Y-56211664D01*
X38729300Y-56211664D01*
X38837703Y-56191266D01*
X39011681Y-56365547D01*
X39261886Y-56469442D01*
X39532805Y-56469678D01*
X39674563Y-56411105D01*
X41251742Y-56411105D01*
X41355199Y-56661492D01*
X41546601Y-56853227D01*
X41796806Y-56957122D01*
X42067725Y-56957358D01*
X42318112Y-56853901D01*
X42509847Y-56662499D01*
X42613742Y-56412294D01*
X42613978Y-56141375D01*
X42510521Y-55890988D01*
X42319119Y-55699253D01*
X42068914Y-55595358D01*
X41797995Y-55595122D01*
X41547608Y-55698579D01*
X41355873Y-55889981D01*
X41251978Y-56140186D01*
X41251742Y-56411105D01*
X39674563Y-56411105D01*
X39783192Y-56366221D01*
X39974927Y-56174819D01*
X40078822Y-55924614D01*
X40079058Y-55653695D01*
X39975601Y-55403308D01*
X39784199Y-55211573D01*
X39533994Y-55107678D01*
X39432562Y-55107590D01*
X39415376Y-55090404D01*
X39251218Y-54980717D01*
X39094496Y-54949543D01*
X39091197Y-54932010D01*
X39007754Y-54802335D01*
X38880434Y-54715341D01*
X38729300Y-54684736D01*
X37929300Y-54684736D01*
X37788110Y-54711303D01*
X37658435Y-54794746D01*
X37576203Y-54915097D01*
X37552296Y-54857381D01*
X37445120Y-54750204D01*
X37305086Y-54692200D01*
X37051550Y-54692200D01*
X36956300Y-54787450D01*
X36702300Y-54787450D01*
X36607050Y-54692200D01*
X36353514Y-54692200D01*
X36213480Y-54750204D01*
X36106304Y-54857381D01*
X36048300Y-54997415D01*
X32536600Y-54997415D01*
X32536600Y-53486050D01*
X36048300Y-53486050D01*
X36048300Y-53714585D01*
X36106304Y-53854619D01*
X36213480Y-53961796D01*
X36353514Y-54019800D01*
X36607050Y-54019800D01*
X36702300Y-53924550D01*
X36702300Y-53390800D01*
X36143550Y-53390800D01*
X36048300Y-53486050D01*
X32536600Y-53486050D01*
X32536600Y-52813015D01*
X36048300Y-52813015D01*
X36048300Y-53041550D01*
X36143550Y-53136800D01*
X36702300Y-53136800D01*
X36702300Y-52603050D01*
X36607050Y-52507800D01*
X36353514Y-52507800D01*
X36213480Y-52565804D01*
X36106304Y-52672981D01*
X36048300Y-52813015D01*
X32536600Y-52813015D01*
X32536600Y-51898550D01*
X36048300Y-51898550D01*
X36048300Y-52127085D01*
X36106304Y-52267119D01*
X36213480Y-52374296D01*
X36353514Y-52432300D01*
X36607050Y-52432300D01*
X36702300Y-52337050D01*
X36702300Y-51803300D01*
X36143550Y-51803300D01*
X36048300Y-51898550D01*
X32536600Y-51898550D01*
X32536600Y-51225515D01*
X36048300Y-51225515D01*
X36048300Y-51454050D01*
X36143550Y-51549300D01*
X36702300Y-51549300D01*
X36702300Y-51015550D01*
X36607050Y-50920300D01*
X36353514Y-50920300D01*
X36213480Y-50978304D01*
X36106304Y-51085481D01*
X36048300Y-51225515D01*
X32536600Y-51225515D01*
X32536600Y-50336450D01*
X36048300Y-50336450D01*
X36048300Y-50564985D01*
X36106304Y-50705019D01*
X36213480Y-50812196D01*
X36353514Y-50870200D01*
X36607050Y-50870200D01*
X36702300Y-50774950D01*
X36702300Y-50241200D01*
X36143550Y-50241200D01*
X36048300Y-50336450D01*
X32536600Y-50336450D01*
X32536600Y-49663415D01*
X36048300Y-49663415D01*
X36048300Y-49891950D01*
X36143550Y-49987200D01*
X36702300Y-49987200D01*
X36702300Y-49453450D01*
X36956300Y-49453450D01*
X36956300Y-49987200D01*
X36976300Y-49987200D01*
X36976300Y-50241200D01*
X36956300Y-50241200D01*
X36956300Y-50774950D01*
X37051550Y-50870200D01*
X37305086Y-50870200D01*
X37445120Y-50812196D01*
X37552296Y-50705019D01*
X37577019Y-50645333D01*
X37650846Y-50760065D01*
X37778166Y-50847059D01*
X37823300Y-50856199D01*
X37823300Y-50932781D01*
X37788110Y-50939403D01*
X37658435Y-51022846D01*
X37576203Y-51143197D01*
X37552296Y-51085481D01*
X37445120Y-50978304D01*
X37305086Y-50920300D01*
X37051550Y-50920300D01*
X36956300Y-51015550D01*
X36956300Y-51549300D01*
X36976300Y-51549300D01*
X36976300Y-51803300D01*
X36956300Y-51803300D01*
X36956300Y-52337050D01*
X37051550Y-52432300D01*
X37305086Y-52432300D01*
X37445120Y-52374296D01*
X37552296Y-52267119D01*
X37577019Y-52207433D01*
X37650846Y-52322165D01*
X37778166Y-52409159D01*
X37929300Y-52439764D01*
X38377172Y-52439764D01*
X38437744Y-52500336D01*
X37929300Y-52500336D01*
X37788110Y-52526903D01*
X37658435Y-52610346D01*
X37576203Y-52730697D01*
X37552296Y-52672981D01*
X37445120Y-52565804D01*
X37305086Y-52507800D01*
X37051550Y-52507800D01*
X36956300Y-52603050D01*
X36956300Y-53136800D01*
X36976300Y-53136800D01*
X36976300Y-53390800D01*
X36956300Y-53390800D01*
X36956300Y-53924550D01*
X37051550Y-54019800D01*
X37305086Y-54019800D01*
X37445120Y-53961796D01*
X37552296Y-53854619D01*
X37577019Y-53794933D01*
X37650846Y-53909665D01*
X37778166Y-53996659D01*
X37929300Y-54027264D01*
X38729300Y-54027264D01*
X38733164Y-54026537D01*
X38792339Y-54169752D01*
X38983741Y-54361487D01*
X39233946Y-54465382D01*
X39504865Y-54465618D01*
X39755252Y-54362161D01*
X39946987Y-54170759D01*
X40050882Y-53920554D01*
X40051118Y-53649635D01*
X39989911Y-53501501D01*
X43461260Y-53501501D01*
X43461260Y-54301501D01*
X43487827Y-54442691D01*
X43571270Y-54572366D01*
X43688522Y-54652481D01*
X43578859Y-54723047D01*
X43491865Y-54850367D01*
X43461260Y-55001501D01*
X43461260Y-55801501D01*
X43487827Y-55942691D01*
X43571270Y-56072366D01*
X43579748Y-56078159D01*
X43532898Y-56190986D01*
X43532662Y-56461905D01*
X43636119Y-56712292D01*
X43827521Y-56904027D01*
X44077726Y-57007922D01*
X44348645Y-57008158D01*
X44599032Y-56904701D01*
X44790767Y-56713299D01*
X44894662Y-56463094D01*
X44894898Y-56192175D01*
X44853163Y-56091168D01*
X44870589Y-56079955D01*
X44957583Y-55952635D01*
X44988188Y-55801501D01*
X44988188Y-55001501D01*
X44961621Y-54860311D01*
X44878178Y-54730636D01*
X44760926Y-54650521D01*
X44870589Y-54579955D01*
X44957583Y-54452635D01*
X44988188Y-54301501D01*
X44988188Y-53501501D01*
X44985799Y-53488801D01*
X45061459Y-53488801D01*
X45061459Y-54288801D01*
X45088026Y-54429991D01*
X45171469Y-54559666D01*
X45288721Y-54639781D01*
X45179058Y-54710347D01*
X45092064Y-54837667D01*
X45061459Y-54988801D01*
X45061459Y-55788801D01*
X45088026Y-55929991D01*
X45171469Y-56059666D01*
X45193312Y-56074591D01*
X45153418Y-56170666D01*
X45153182Y-56441585D01*
X45256639Y-56691972D01*
X45448041Y-56883707D01*
X45698246Y-56987602D01*
X45969165Y-56987838D01*
X46219552Y-56884381D01*
X46411287Y-56692979D01*
X46515182Y-56442774D01*
X46515418Y-56171855D01*
X46471667Y-56065969D01*
X46557782Y-55939935D01*
X46588387Y-55788801D01*
X46588387Y-54988801D01*
X46561820Y-54847611D01*
X46478377Y-54717936D01*
X46361125Y-54637821D01*
X46470788Y-54567255D01*
X46557782Y-54439935D01*
X46588387Y-54288801D01*
X46588387Y-53488801D01*
X46561820Y-53347611D01*
X46478377Y-53217936D01*
X46466629Y-53209909D01*
X46510102Y-53105214D01*
X46510338Y-52834295D01*
X46406881Y-52583908D01*
X46215479Y-52392173D01*
X45965274Y-52288278D01*
X45694355Y-52288042D01*
X45443968Y-52391499D01*
X45252233Y-52582901D01*
X45148338Y-52833106D01*
X45148102Y-53104025D01*
X45189308Y-53203751D01*
X45179058Y-53210347D01*
X45092064Y-53337667D01*
X45061459Y-53488801D01*
X44985799Y-53488801D01*
X44961621Y-53360311D01*
X44878178Y-53230636D01*
X44873152Y-53227202D01*
X44904822Y-53150934D01*
X44905058Y-52880015D01*
X44801601Y-52629628D01*
X44610199Y-52437893D01*
X44359994Y-52333998D01*
X44089075Y-52333762D01*
X43838688Y-52437219D01*
X43646953Y-52628621D01*
X43543058Y-52878826D01*
X43542822Y-53149745D01*
X43575276Y-53228291D01*
X43491865Y-53350367D01*
X43461260Y-53501501D01*
X39989911Y-53501501D01*
X39947661Y-53399248D01*
X39756259Y-53207513D01*
X39647127Y-53162197D01*
X39832687Y-52976959D01*
X39936582Y-52726754D01*
X39936818Y-52455835D01*
X39865590Y-52283449D01*
X39985087Y-52164159D01*
X40088982Y-51913954D01*
X40089218Y-51643035D01*
X39985761Y-51392648D01*
X39794359Y-51200913D01*
X39544154Y-51097018D01*
X39273235Y-51096782D01*
X39093273Y-51171140D01*
X39091197Y-51160110D01*
X39007754Y-51030435D01*
X38880434Y-50943441D01*
X38835300Y-50934301D01*
X38835300Y-50857719D01*
X38870490Y-50851097D01*
X39000165Y-50767654D01*
X39087159Y-50640334D01*
X39117764Y-50489200D01*
X39117764Y-50414165D01*
X41139982Y-50414165D01*
X41243439Y-50664552D01*
X41429387Y-50850824D01*
X41396513Y-50883641D01*
X41292618Y-51133846D01*
X41292382Y-51404765D01*
X41395839Y-51655152D01*
X41587241Y-51846887D01*
X41837446Y-51950782D01*
X42108365Y-51951018D01*
X42358752Y-51847561D01*
X42413022Y-51793385D01*
X45833902Y-51793385D01*
X45937359Y-52043772D01*
X46128761Y-52235507D01*
X46378966Y-52339402D01*
X46649885Y-52339638D01*
X46758566Y-52294732D01*
X46768046Y-52309465D01*
X46895366Y-52396459D01*
X47010749Y-52419824D01*
X46827033Y-52603221D01*
X46723138Y-52853426D01*
X46722902Y-53124345D01*
X46760765Y-53215981D01*
X46756060Y-53219008D01*
X46669066Y-53346328D01*
X46638461Y-53497462D01*
X46638461Y-54297462D01*
X46665028Y-54438652D01*
X46748471Y-54568327D01*
X46865723Y-54648442D01*
X46756060Y-54719008D01*
X46669066Y-54846328D01*
X46638461Y-54997462D01*
X46638461Y-55797462D01*
X46665028Y-55938652D01*
X46748471Y-56068327D01*
X46769755Y-56082869D01*
X46733298Y-56170666D01*
X46733062Y-56441585D01*
X46836519Y-56691972D01*
X47027921Y-56883707D01*
X47278126Y-56987602D01*
X47549045Y-56987838D01*
X47799432Y-56884381D01*
X47991167Y-56692979D01*
X48095062Y-56442774D01*
X48095298Y-56171855D01*
X48052692Y-56068741D01*
X48134784Y-55948596D01*
X48165389Y-55797462D01*
X48165389Y-54997462D01*
X48138822Y-54856272D01*
X48055379Y-54726597D01*
X47938127Y-54646482D01*
X48047790Y-54575916D01*
X48134784Y-54448596D01*
X48165389Y-54297462D01*
X48165389Y-53497462D01*
X48138822Y-53356272D01*
X48055379Y-53226597D01*
X48045687Y-53219974D01*
X48084902Y-53125534D01*
X48085138Y-52854615D01*
X47981681Y-52604228D01*
X47804825Y-52427064D01*
X47846500Y-52427064D01*
X47987690Y-52400497D01*
X48117365Y-52317054D01*
X48199597Y-52196703D01*
X48223504Y-52254419D01*
X48330680Y-52361596D01*
X48470714Y-52419600D01*
X48637020Y-52419600D01*
X48618968Y-52427059D01*
X48427233Y-52618461D01*
X48323338Y-52868666D01*
X48323102Y-53139585D01*
X48356047Y-53219319D01*
X48269266Y-53346328D01*
X48238661Y-53497462D01*
X48238661Y-54297462D01*
X48265228Y-54438652D01*
X48348671Y-54568327D01*
X48465923Y-54648442D01*
X48356260Y-54719008D01*
X48269266Y-54846328D01*
X48238661Y-54997462D01*
X48238661Y-55797462D01*
X48265228Y-55938652D01*
X48348671Y-56068327D01*
X48351812Y-56070473D01*
X48308098Y-56175746D01*
X48307862Y-56446665D01*
X48411319Y-56697052D01*
X48602721Y-56888787D01*
X48852926Y-56992682D01*
X49123845Y-56992918D01*
X49374232Y-56889461D01*
X49565967Y-56698059D01*
X49669862Y-56447854D01*
X49670098Y-56176935D01*
X49632481Y-56085895D01*
X49647990Y-56075916D01*
X49734984Y-55948596D01*
X49765589Y-55797462D01*
X49765589Y-54997462D01*
X49739022Y-54856272D01*
X49655579Y-54726597D01*
X49538327Y-54646482D01*
X49647990Y-54575916D01*
X49734984Y-54448596D01*
X49744941Y-54399425D01*
X50156982Y-54399425D01*
X50260439Y-54649812D01*
X50451841Y-54841547D01*
X50702046Y-54945442D01*
X50972965Y-54945678D01*
X51223352Y-54842221D01*
X51415087Y-54650819D01*
X51518982Y-54400614D01*
X51519218Y-54129695D01*
X51415761Y-53879308D01*
X51224359Y-53687573D01*
X50974154Y-53583678D01*
X50703235Y-53583442D01*
X50452848Y-53686899D01*
X50261113Y-53878301D01*
X50157218Y-54128506D01*
X50156982Y-54399425D01*
X49744941Y-54399425D01*
X49765589Y-54297462D01*
X49765589Y-53497462D01*
X49739022Y-53356272D01*
X49655579Y-53226597D01*
X49650816Y-53223343D01*
X49685102Y-53140774D01*
X49685200Y-53027825D01*
X53138942Y-53027825D01*
X53242399Y-53278212D01*
X53329358Y-53365322D01*
X53314193Y-53380461D01*
X53210298Y-53630666D01*
X53210062Y-53901585D01*
X53313519Y-54151972D01*
X53504921Y-54343707D01*
X53755126Y-54447602D01*
X54026045Y-54447838D01*
X54125548Y-54406724D01*
X54139126Y-54427825D01*
X54266446Y-54514819D01*
X54417580Y-54545424D01*
X55217580Y-54545424D01*
X55358770Y-54518857D01*
X55488445Y-54435414D01*
X55570677Y-54315063D01*
X55594584Y-54372779D01*
X55701760Y-54479956D01*
X55841794Y-54537960D01*
X56095330Y-54537960D01*
X56190580Y-54442710D01*
X56190580Y-53908960D01*
X56170580Y-53908960D01*
X56170580Y-53654960D01*
X56190580Y-53654960D01*
X56190580Y-53121210D01*
X56095330Y-53025960D01*
X55841794Y-53025960D01*
X55701760Y-53083964D01*
X55594584Y-53191141D01*
X55569861Y-53250827D01*
X55496034Y-53136095D01*
X55368714Y-53049101D01*
X55323580Y-53039961D01*
X55323580Y-52952891D01*
X55343530Y-52949137D01*
X55473205Y-52865694D01*
X55555437Y-52745343D01*
X55579344Y-52803059D01*
X55686520Y-52910236D01*
X55826554Y-52968240D01*
X56080090Y-52968240D01*
X56175340Y-52872990D01*
X56175340Y-52339240D01*
X56155340Y-52339240D01*
X56155340Y-52085240D01*
X56175340Y-52085240D01*
X56175340Y-51551490D01*
X56429340Y-51551490D01*
X56429340Y-52085240D01*
X56449340Y-52085240D01*
X56449340Y-52339240D01*
X56429340Y-52339240D01*
X56429340Y-52872990D01*
X56524590Y-52968240D01*
X56778126Y-52968240D01*
X56918160Y-52910236D01*
X57025336Y-52803059D01*
X57082024Y-52666202D01*
X57175048Y-52666202D01*
X57079800Y-52761450D01*
X57079800Y-53014986D01*
X57137804Y-53155020D01*
X57244981Y-53262196D01*
X57304667Y-53286919D01*
X57189935Y-53360746D01*
X57102941Y-53488066D01*
X57098580Y-53509602D01*
X57098580Y-53331175D01*
X57040576Y-53191141D01*
X56933400Y-53083964D01*
X56793366Y-53025960D01*
X56539830Y-53025960D01*
X56444580Y-53121210D01*
X56444580Y-53654960D01*
X56464580Y-53654960D01*
X56464580Y-53908960D01*
X56444580Y-53908960D01*
X56444580Y-54442710D01*
X56539830Y-54537960D01*
X56793366Y-54537960D01*
X56933400Y-54479956D01*
X57040576Y-54372779D01*
X57072336Y-54296104D01*
X57072336Y-54439200D01*
X57098903Y-54580390D01*
X57182346Y-54710065D01*
X57264300Y-54766062D01*
X57264300Y-54853264D01*
X57258813Y-54858741D01*
X57154918Y-55108946D01*
X57154682Y-55379865D01*
X57258139Y-55630252D01*
X57449541Y-55821987D01*
X57699746Y-55925882D01*
X57970665Y-55926118D01*
X58221052Y-55822661D01*
X58412787Y-55631259D01*
X58516682Y-55381054D01*
X58516918Y-55110135D01*
X58413461Y-54859748D01*
X58407300Y-54853576D01*
X58407300Y-54765506D01*
X58481665Y-54717654D01*
X58554744Y-54610700D01*
X58693207Y-54610700D01*
X58757146Y-54710065D01*
X58839100Y-54766062D01*
X58839100Y-54850712D01*
X58742418Y-55083546D01*
X58742182Y-55354465D01*
X58845639Y-55604852D01*
X59037041Y-55796587D01*
X59287246Y-55900482D01*
X59558165Y-55900718D01*
X59808552Y-55797261D01*
X60000287Y-55605859D01*
X60104182Y-55355654D01*
X60104418Y-55084735D01*
X60000961Y-54834348D01*
X59982100Y-54815454D01*
X59982100Y-54765506D01*
X60056465Y-54717654D01*
X60143459Y-54590334D01*
X60174064Y-54439200D01*
X60174064Y-53639200D01*
X60147497Y-53498010D01*
X60064054Y-53368335D01*
X59943703Y-53286103D01*
X60001419Y-53262196D01*
X60108596Y-53155020D01*
X60166600Y-53014986D01*
X60166600Y-52761450D01*
X60071350Y-52666200D01*
X59537600Y-52666200D01*
X59537600Y-52686200D01*
X59283600Y-52686200D01*
X59283600Y-52666200D01*
X58749850Y-52666200D01*
X58654600Y-52761450D01*
X58654600Y-53014986D01*
X58712604Y-53155020D01*
X58819781Y-53262196D01*
X58879467Y-53286919D01*
X58764735Y-53360746D01*
X58691656Y-53467700D01*
X58553193Y-53467700D01*
X58489254Y-53368335D01*
X58368903Y-53286103D01*
X58426619Y-53262196D01*
X58533796Y-53155020D01*
X58591800Y-53014986D01*
X58591800Y-52761450D01*
X58496550Y-52666200D01*
X57962800Y-52666200D01*
X57962800Y-52686200D01*
X57708800Y-52686200D01*
X57708800Y-52666200D01*
X57688800Y-52666200D01*
X57688800Y-52412200D01*
X57708800Y-52412200D01*
X57708800Y-51853450D01*
X57962800Y-51853450D01*
X57962800Y-52412200D01*
X58496550Y-52412200D01*
X58591800Y-52316950D01*
X58591800Y-52063414D01*
X58654600Y-52063414D01*
X58654600Y-52316950D01*
X58749850Y-52412200D01*
X59283600Y-52412200D01*
X59283600Y-51853450D01*
X59537600Y-51853450D01*
X59537600Y-52412200D01*
X60071350Y-52412200D01*
X60166600Y-52316950D01*
X60166600Y-52063414D01*
X60108596Y-51923380D01*
X60001419Y-51816204D01*
X59861385Y-51758200D01*
X59632850Y-51758200D01*
X59537600Y-51853450D01*
X59283600Y-51853450D01*
X59188350Y-51758200D01*
X58959815Y-51758200D01*
X58819781Y-51816204D01*
X58712604Y-51923380D01*
X58654600Y-52063414D01*
X58591800Y-52063414D01*
X58533796Y-51923380D01*
X58426619Y-51816204D01*
X58286585Y-51758200D01*
X58058050Y-51758200D01*
X57962800Y-51853450D01*
X57708800Y-51853450D01*
X57613550Y-51758200D01*
X57385015Y-51758200D01*
X57244981Y-51816204D01*
X57137804Y-51923380D01*
X57079800Y-52063414D01*
X57079800Y-52085238D01*
X56988092Y-52085238D01*
X57083340Y-51989990D01*
X57083340Y-51761455D01*
X57025336Y-51621421D01*
X56918160Y-51514244D01*
X56778126Y-51456240D01*
X56524590Y-51456240D01*
X56429340Y-51551490D01*
X56175340Y-51551490D01*
X56080090Y-51456240D01*
X55826554Y-51456240D01*
X55686520Y-51514244D01*
X55579344Y-51621421D01*
X55554621Y-51681107D01*
X55480794Y-51566375D01*
X55353474Y-51479381D01*
X55202340Y-51448776D01*
X54402340Y-51448776D01*
X54261150Y-51475343D01*
X54131475Y-51558786D01*
X54044481Y-51686106D01*
X54013876Y-51837240D01*
X54013876Y-52236063D01*
X53956114Y-52212078D01*
X53685195Y-52211842D01*
X53434808Y-52315299D01*
X53243073Y-52506701D01*
X53139178Y-52756906D01*
X53138942Y-53027825D01*
X49685200Y-53027825D01*
X49685338Y-52869855D01*
X49581881Y-52619468D01*
X49390479Y-52427733D01*
X49370893Y-52419600D01*
X49422286Y-52419600D01*
X49562320Y-52361596D01*
X49669496Y-52254419D01*
X49727500Y-52114385D01*
X49727500Y-51930545D01*
X50253502Y-51930545D01*
X50356959Y-52180932D01*
X50548361Y-52372667D01*
X50798566Y-52476562D01*
X51069485Y-52476798D01*
X51319872Y-52373341D01*
X51511607Y-52181939D01*
X51615502Y-51931734D01*
X51615738Y-51660815D01*
X51517288Y-51422545D01*
X52585222Y-51422545D01*
X52688679Y-51672932D01*
X52880081Y-51864667D01*
X53130286Y-51968562D01*
X53401205Y-51968798D01*
X53651592Y-51865341D01*
X53843327Y-51673939D01*
X53947222Y-51423734D01*
X53947458Y-51152815D01*
X53844001Y-50902428D01*
X53652599Y-50710693D01*
X53402394Y-50606798D01*
X53131475Y-50606562D01*
X52881088Y-50710019D01*
X52689353Y-50901421D01*
X52585458Y-51151626D01*
X52585222Y-51422545D01*
X51517288Y-51422545D01*
X51512281Y-51410428D01*
X51320879Y-51218693D01*
X51070674Y-51114798D01*
X50799755Y-51114562D01*
X50549368Y-51218019D01*
X50357633Y-51409421D01*
X50253738Y-51659626D01*
X50253502Y-51930545D01*
X49727500Y-51930545D01*
X49727500Y-51885850D01*
X49632250Y-51790600D01*
X49073500Y-51790600D01*
X49073500Y-51810600D01*
X48819500Y-51810600D01*
X48819500Y-51790600D01*
X48799500Y-51790600D01*
X48799500Y-51536600D01*
X48819500Y-51536600D01*
X48819500Y-51002850D01*
X49073500Y-51002850D01*
X49073500Y-51536600D01*
X49632250Y-51536600D01*
X49727500Y-51441350D01*
X49727500Y-51212815D01*
X49669496Y-51072781D01*
X49562320Y-50965604D01*
X49422286Y-50907600D01*
X49168750Y-50907600D01*
X49073500Y-51002850D01*
X48819500Y-51002850D01*
X48724250Y-50907600D01*
X48470714Y-50907600D01*
X48330680Y-50965604D01*
X48223504Y-51072781D01*
X48198781Y-51132467D01*
X48124954Y-51017735D01*
X47997634Y-50930741D01*
X47846500Y-50900136D01*
X47046500Y-50900136D01*
X46905310Y-50926703D01*
X46775635Y-51010146D01*
X46765408Y-51025114D01*
X46651074Y-50977638D01*
X46380155Y-50977402D01*
X46129768Y-51080859D01*
X45938033Y-51272261D01*
X45834138Y-51522466D01*
X45833902Y-51793385D01*
X42413022Y-51793385D01*
X42550487Y-51656159D01*
X42654382Y-51405954D01*
X42654618Y-51135035D01*
X42551161Y-50884648D01*
X42365213Y-50698376D01*
X42398087Y-50665559D01*
X42501982Y-50415354D01*
X42502135Y-50238905D01*
X45813582Y-50238905D01*
X45917039Y-50489292D01*
X46108441Y-50681027D01*
X46358646Y-50784922D01*
X46629565Y-50785158D01*
X46758171Y-50732019D01*
X46768046Y-50747365D01*
X46895366Y-50834359D01*
X47046500Y-50864964D01*
X47846500Y-50864964D01*
X47987690Y-50838397D01*
X48117365Y-50754954D01*
X48199597Y-50634603D01*
X48223504Y-50692319D01*
X48330680Y-50799496D01*
X48470714Y-50857500D01*
X48724250Y-50857500D01*
X48819500Y-50762250D01*
X48819500Y-50228500D01*
X49073500Y-50228500D01*
X49073500Y-50762250D01*
X49168750Y-50857500D01*
X49422286Y-50857500D01*
X49562320Y-50799496D01*
X49669496Y-50692319D01*
X49727500Y-50552285D01*
X49727500Y-50323750D01*
X49632250Y-50228500D01*
X49073500Y-50228500D01*
X48819500Y-50228500D01*
X48799500Y-50228500D01*
X48799500Y-49974500D01*
X48819500Y-49974500D01*
X48819500Y-49440750D01*
X49073500Y-49440750D01*
X49073500Y-49974500D01*
X49632250Y-49974500D01*
X49727500Y-49879250D01*
X49727500Y-49650715D01*
X49669496Y-49510681D01*
X49562320Y-49403504D01*
X49422286Y-49345500D01*
X49168750Y-49345500D01*
X49073500Y-49440750D01*
X48819500Y-49440750D01*
X48724250Y-49345500D01*
X48470714Y-49345500D01*
X48330680Y-49403504D01*
X48223504Y-49510681D01*
X48198781Y-49570367D01*
X48124954Y-49455635D01*
X47997634Y-49368641D01*
X47846500Y-49338036D01*
X47046500Y-49338036D01*
X46905310Y-49364603D01*
X46775635Y-49448046D01*
X46756861Y-49475523D01*
X46630754Y-49423158D01*
X46359835Y-49422922D01*
X46109448Y-49526379D01*
X45917713Y-49717781D01*
X45813818Y-49967986D01*
X45813582Y-50238905D01*
X42502135Y-50238905D01*
X42502218Y-50144435D01*
X42398761Y-49894048D01*
X42207359Y-49702313D01*
X41957154Y-49598418D01*
X41686235Y-49598182D01*
X41435848Y-49701639D01*
X41244113Y-49893041D01*
X41140218Y-50143246D01*
X41139982Y-50414165D01*
X39117764Y-50414165D01*
X39117764Y-49739200D01*
X39091197Y-49598010D01*
X39007754Y-49468335D01*
X38880434Y-49381341D01*
X38729300Y-49350736D01*
X37929300Y-49350736D01*
X37788110Y-49377303D01*
X37658435Y-49460746D01*
X37576203Y-49581097D01*
X37552296Y-49523381D01*
X37445120Y-49416204D01*
X37305086Y-49358200D01*
X37051550Y-49358200D01*
X36956300Y-49453450D01*
X36702300Y-49453450D01*
X36607050Y-49358200D01*
X36353514Y-49358200D01*
X36213480Y-49416204D01*
X36106304Y-49523381D01*
X36048300Y-49663415D01*
X32536600Y-49663415D01*
X32536600Y-41179100D01*
X34555236Y-41179100D01*
X34555236Y-41979100D01*
X34581803Y-42120290D01*
X34665246Y-42249965D01*
X34782498Y-42330080D01*
X34672835Y-42400646D01*
X34585841Y-42527966D01*
X34555236Y-42679100D01*
X34555236Y-43479100D01*
X34581803Y-43620290D01*
X34665246Y-43749965D01*
X34697283Y-43771855D01*
X34625118Y-43945646D01*
X34624882Y-44216565D01*
X34728339Y-44466952D01*
X34919741Y-44658687D01*
X35169946Y-44762582D01*
X35440865Y-44762818D01*
X35691252Y-44659361D01*
X35882987Y-44467959D01*
X35986882Y-44217754D01*
X35987118Y-43946835D01*
X35920599Y-43785845D01*
X35964565Y-43757554D01*
X36051559Y-43630234D01*
X36082164Y-43479100D01*
X36082164Y-42679100D01*
X36055597Y-42537910D01*
X35972154Y-42408235D01*
X35854902Y-42328120D01*
X35964565Y-42257554D01*
X36051559Y-42130234D01*
X36060699Y-42085100D01*
X36092779Y-42085100D01*
X36164341Y-42156787D01*
X36414546Y-42260682D01*
X36685465Y-42260918D01*
X36935852Y-42157461D01*
X37068223Y-42025320D01*
X37083703Y-42107590D01*
X37167146Y-42237265D01*
X37284398Y-42317380D01*
X37174735Y-42387946D01*
X37087741Y-42515266D01*
X37057136Y-42666400D01*
X37057136Y-43466400D01*
X37083703Y-43607590D01*
X37167146Y-43737265D01*
X37194321Y-43755833D01*
X37152418Y-43856746D01*
X37152182Y-44127665D01*
X37255639Y-44378052D01*
X37447041Y-44569787D01*
X37697246Y-44673682D01*
X37968165Y-44673918D01*
X38218552Y-44570461D01*
X38410287Y-44379059D01*
X38514182Y-44128854D01*
X38514418Y-43857935D01*
X38467231Y-43743733D01*
X38553459Y-43617534D01*
X38584064Y-43466400D01*
X38584064Y-42666400D01*
X38557497Y-42525210D01*
X38474054Y-42395535D01*
X38356802Y-42315420D01*
X38466465Y-42244854D01*
X38553459Y-42117534D01*
X38562599Y-42072400D01*
X38620101Y-42072400D01*
X38704341Y-42156787D01*
X38954546Y-42260682D01*
X39225465Y-42260918D01*
X39475852Y-42157461D01*
X39606211Y-42027328D01*
X39623703Y-42120290D01*
X39707146Y-42249965D01*
X39824398Y-42330080D01*
X39714735Y-42400646D01*
X39627741Y-42527966D01*
X39597136Y-42679100D01*
X39597136Y-43479100D01*
X39623703Y-43620290D01*
X39707146Y-43749965D01*
X39728536Y-43764580D01*
X39679718Y-43882146D01*
X39679482Y-44153065D01*
X39782939Y-44403452D01*
X39974341Y-44595187D01*
X40224546Y-44699082D01*
X40495465Y-44699318D01*
X40745852Y-44595861D01*
X40937587Y-44404459D01*
X41041482Y-44154254D01*
X41041718Y-43883335D01*
X40993258Y-43766052D01*
X41006465Y-43757554D01*
X41093459Y-43630234D01*
X41124064Y-43479100D01*
X41124064Y-42679100D01*
X41097497Y-42537910D01*
X41014054Y-42408235D01*
X40896802Y-42328120D01*
X41006465Y-42257554D01*
X41093459Y-42130234D01*
X41102599Y-42085100D01*
X41198179Y-42085100D01*
X41269741Y-42156787D01*
X41519946Y-42260682D01*
X41790865Y-42260918D01*
X42041252Y-42157461D01*
X42135512Y-42063364D01*
X42151003Y-42145690D01*
X42234446Y-42275365D01*
X42351698Y-42355480D01*
X42242035Y-42426046D01*
X42155041Y-42553366D01*
X42124436Y-42704500D01*
X42124436Y-43504500D01*
X42151003Y-43645690D01*
X42234446Y-43775365D01*
X42273945Y-43802354D01*
X42219718Y-43932946D01*
X42219482Y-44203865D01*
X42322939Y-44454252D01*
X42514341Y-44645987D01*
X42764546Y-44749882D01*
X43035465Y-44750118D01*
X43285852Y-44646661D01*
X43477587Y-44455259D01*
X43581482Y-44205054D01*
X43581718Y-43934135D01*
X43522300Y-43790331D01*
X43533765Y-43782954D01*
X43620759Y-43655634D01*
X43651364Y-43504500D01*
X43651364Y-42704500D01*
X43624797Y-42563310D01*
X43541354Y-42433635D01*
X43424102Y-42353520D01*
X43533765Y-42282954D01*
X43620759Y-42155634D01*
X43629899Y-42110500D01*
X43700101Y-42110500D01*
X43784341Y-42194887D01*
X44034546Y-42298782D01*
X44305465Y-42299018D01*
X44555852Y-42195561D01*
X44677531Y-42074093D01*
X44691003Y-42145690D01*
X44774446Y-42275365D01*
X44891698Y-42355480D01*
X44782035Y-42426046D01*
X44695041Y-42553366D01*
X44664436Y-42704500D01*
X44664436Y-43504500D01*
X44691003Y-43645690D01*
X44774446Y-43775365D01*
X44826269Y-43810774D01*
X44759718Y-43971046D01*
X44759482Y-44241965D01*
X44862939Y-44492352D01*
X45054341Y-44684087D01*
X45304546Y-44787982D01*
X45575465Y-44788218D01*
X45825852Y-44684761D01*
X46017587Y-44493359D01*
X46121482Y-44243154D01*
X46121718Y-43972235D01*
X46049864Y-43798334D01*
X46073765Y-43782954D01*
X46160759Y-43655634D01*
X46191364Y-43504500D01*
X46191364Y-42704500D01*
X46164797Y-42563310D01*
X46081354Y-42433635D01*
X45964102Y-42353520D01*
X46073765Y-42282954D01*
X46160759Y-42155634D01*
X46169899Y-42110500D01*
X46265479Y-42110500D01*
X46337041Y-42182187D01*
X46587246Y-42286082D01*
X46858165Y-42286318D01*
X47108552Y-42182861D01*
X47228219Y-42063402D01*
X47243703Y-42145690D01*
X47327146Y-42275365D01*
X47444398Y-42355480D01*
X47334735Y-42426046D01*
X47247741Y-42553366D01*
X47217136Y-42704500D01*
X47217136Y-43504500D01*
X47243703Y-43645690D01*
X47327146Y-43775365D01*
X47346859Y-43788834D01*
X47287018Y-43932946D01*
X47286782Y-44203865D01*
X47390239Y-44454252D01*
X47581641Y-44645987D01*
X47831846Y-44749882D01*
X48102765Y-44750118D01*
X48353152Y-44646661D01*
X48544887Y-44455259D01*
X48648782Y-44205054D01*
X48649018Y-43934135D01*
X48594935Y-43803243D01*
X48626465Y-43782954D01*
X48713459Y-43655634D01*
X48744064Y-43504500D01*
X48744064Y-42704500D01*
X48717497Y-42563310D01*
X48634054Y-42433635D01*
X48516802Y-42353520D01*
X48626465Y-42282954D01*
X48713459Y-42155634D01*
X48722599Y-42110500D01*
X48767401Y-42110500D01*
X48851641Y-42194887D01*
X49101846Y-42298782D01*
X49372765Y-42299018D01*
X49623152Y-42195561D01*
X49766214Y-42052747D01*
X49783703Y-42145690D01*
X49867146Y-42275365D01*
X49984398Y-42355480D01*
X49874735Y-42426046D01*
X49787741Y-42553366D01*
X49757136Y-42704500D01*
X49757136Y-43504500D01*
X49783703Y-43645690D01*
X49867146Y-43775365D01*
X49896752Y-43795594D01*
X49839718Y-43932946D01*
X49839482Y-44203865D01*
X49942939Y-44454252D01*
X50134341Y-44645987D01*
X50384546Y-44749882D01*
X50655465Y-44750118D01*
X50905852Y-44646661D01*
X51097587Y-44455259D01*
X51201482Y-44205054D01*
X51201718Y-43934135D01*
X51144967Y-43796787D01*
X51166465Y-43782954D01*
X51253459Y-43655634D01*
X51284064Y-43504500D01*
X51284064Y-42704500D01*
X51257497Y-42563310D01*
X51174054Y-42433635D01*
X51056802Y-42353520D01*
X51166465Y-42282954D01*
X51253459Y-42155634D01*
X51262599Y-42110500D01*
X51307423Y-42110500D01*
X51404341Y-42207587D01*
X51654546Y-42311482D01*
X51925465Y-42311718D01*
X52175852Y-42208261D01*
X52288851Y-42095458D01*
X52298303Y-42145690D01*
X52381746Y-42275365D01*
X52498998Y-42355480D01*
X52389335Y-42426046D01*
X52302341Y-42553366D01*
X52271736Y-42704500D01*
X52271736Y-43504500D01*
X52298303Y-43645690D01*
X52381746Y-43775365D01*
X52413029Y-43796740D01*
X52367018Y-43907546D01*
X52366782Y-44178465D01*
X52470239Y-44428852D01*
X52661641Y-44620587D01*
X52911846Y-44724482D01*
X53182765Y-44724718D01*
X53433152Y-44621261D01*
X53624887Y-44429859D01*
X53728782Y-44179654D01*
X53729018Y-43908735D01*
X53677891Y-43784997D01*
X53681065Y-43782954D01*
X53768059Y-43655634D01*
X53798664Y-43504500D01*
X53798664Y-42704500D01*
X53772097Y-42563310D01*
X53688654Y-42433635D01*
X53571402Y-42353520D01*
X53681065Y-42282954D01*
X53768059Y-42155634D01*
X53777199Y-42110500D01*
X53872801Y-42110500D01*
X53957041Y-42194887D01*
X54207246Y-42298782D01*
X54478165Y-42299018D01*
X54728552Y-42195561D01*
X54882306Y-42042074D01*
X54901803Y-42145690D01*
X54985246Y-42275365D01*
X55102498Y-42355480D01*
X54992835Y-42426046D01*
X54905841Y-42553366D01*
X54875236Y-42704500D01*
X54875236Y-43504500D01*
X54901803Y-43645690D01*
X54985246Y-43775365D01*
X55013175Y-43794448D01*
X54945118Y-43958346D01*
X54944882Y-44229265D01*
X55048339Y-44479652D01*
X55239741Y-44671387D01*
X55489946Y-44775282D01*
X55760865Y-44775518D01*
X56011252Y-44672061D01*
X56202987Y-44480659D01*
X56306882Y-44230454D01*
X56307118Y-43959535D01*
X56244744Y-43808578D01*
X56284565Y-43782954D01*
X56371559Y-43655634D01*
X56402164Y-43504500D01*
X56402164Y-42704500D01*
X56375597Y-42563310D01*
X56292154Y-42433635D01*
X56174902Y-42353520D01*
X56284565Y-42282954D01*
X56371559Y-42155634D01*
X56380699Y-42110500D01*
X56400101Y-42110500D01*
X56484341Y-42194887D01*
X56734546Y-42298782D01*
X57005465Y-42299018D01*
X57255852Y-42195561D01*
X57388223Y-42063420D01*
X57403703Y-42145690D01*
X57487146Y-42275365D01*
X57604398Y-42355480D01*
X57494735Y-42426046D01*
X57407741Y-42553366D01*
X57377136Y-42704500D01*
X57377136Y-43504500D01*
X57403703Y-43645690D01*
X57487146Y-43775365D01*
X57529076Y-43804015D01*
X57459718Y-43971046D01*
X57459482Y-44241965D01*
X57562939Y-44492352D01*
X57754341Y-44684087D01*
X58004546Y-44787982D01*
X58275465Y-44788218D01*
X58525852Y-44684761D01*
X58717587Y-44493359D01*
X58821482Y-44243154D01*
X58821718Y-43972235D01*
X58752531Y-43804789D01*
X58786465Y-43782954D01*
X58873459Y-43655634D01*
X58904064Y-43504500D01*
X58904064Y-42704500D01*
X58877497Y-42563310D01*
X58794054Y-42433635D01*
X58676802Y-42353520D01*
X58786465Y-42282954D01*
X58873459Y-42155634D01*
X58882599Y-42110500D01*
X59029001Y-42110500D01*
X59113241Y-42194887D01*
X59363446Y-42298782D01*
X59634365Y-42299018D01*
X59884752Y-42195561D01*
X60076487Y-42004159D01*
X60180382Y-41753954D01*
X60180618Y-41483035D01*
X60077161Y-41232648D01*
X59885759Y-41040913D01*
X59635554Y-40937018D01*
X59364635Y-40936782D01*
X59114248Y-41040239D01*
X59055886Y-41098500D01*
X58884119Y-41098500D01*
X58877497Y-41063310D01*
X58794054Y-40933635D01*
X58666734Y-40846641D01*
X58515600Y-40816036D01*
X57765600Y-40816036D01*
X57624410Y-40842603D01*
X57494735Y-40926046D01*
X57407741Y-41053366D01*
X57384392Y-41168668D01*
X57256859Y-41040913D01*
X57006654Y-40937018D01*
X56735735Y-40936782D01*
X56485348Y-41040239D01*
X56426986Y-41098500D01*
X56382219Y-41098500D01*
X56375597Y-41063310D01*
X56292154Y-40933635D01*
X56164834Y-40846641D01*
X56013700Y-40816036D01*
X55263700Y-40816036D01*
X55122510Y-40842603D01*
X54992835Y-40926046D01*
X54905841Y-41053366D01*
X54878209Y-41189821D01*
X54729559Y-41040913D01*
X54479354Y-40937018D01*
X54208435Y-40936782D01*
X53958048Y-41040239D01*
X53899686Y-41098500D01*
X53778719Y-41098500D01*
X53772097Y-41063310D01*
X53688654Y-40933635D01*
X53561334Y-40846641D01*
X53410200Y-40816036D01*
X52660200Y-40816036D01*
X52519010Y-40842603D01*
X52389335Y-40926046D01*
X52302341Y-41053366D01*
X52281138Y-41158073D01*
X52176859Y-41053613D01*
X51926654Y-40949718D01*
X51655735Y-40949482D01*
X51405348Y-41052939D01*
X51359708Y-41098500D01*
X51264119Y-41098500D01*
X51257497Y-41063310D01*
X51174054Y-40933635D01*
X51046734Y-40846641D01*
X50895600Y-40816036D01*
X50145600Y-40816036D01*
X50004410Y-40842603D01*
X49874735Y-40926046D01*
X49787741Y-41053366D01*
X49762250Y-41179245D01*
X49624159Y-41040913D01*
X49373954Y-40937018D01*
X49103035Y-40936782D01*
X48852648Y-41040239D01*
X48794286Y-41098500D01*
X48724119Y-41098500D01*
X48717497Y-41063310D01*
X48634054Y-40933635D01*
X48506734Y-40846641D01*
X48355600Y-40816036D01*
X47605600Y-40816036D01*
X47464410Y-40842603D01*
X47334735Y-40926046D01*
X47247741Y-41053366D01*
X47228672Y-41147533D01*
X47109559Y-41028213D01*
X46859354Y-40924318D01*
X46588435Y-40924082D01*
X46338048Y-41027539D01*
X46266964Y-41098500D01*
X46171419Y-41098500D01*
X46164797Y-41063310D01*
X46081354Y-40933635D01*
X45954034Y-40846641D01*
X45802900Y-40816036D01*
X45052900Y-40816036D01*
X44911710Y-40842603D01*
X44782035Y-40926046D01*
X44695041Y-41053366D01*
X44673834Y-41158091D01*
X44556859Y-41040913D01*
X44306654Y-40937018D01*
X44035735Y-40936782D01*
X43785348Y-41040239D01*
X43726986Y-41098500D01*
X43631419Y-41098500D01*
X43624797Y-41063310D01*
X43541354Y-40933635D01*
X43414034Y-40846641D01*
X43262900Y-40816036D01*
X42512900Y-40816036D01*
X42371710Y-40842603D01*
X42242035Y-40926046D01*
X42155041Y-41053366D01*
X42144532Y-41105264D01*
X42042259Y-41002813D01*
X41792054Y-40898918D01*
X41521135Y-40898682D01*
X41270748Y-41002139D01*
X41199664Y-41073100D01*
X41104119Y-41073100D01*
X41097497Y-41037910D01*
X41014054Y-40908235D01*
X40886734Y-40821241D01*
X40735600Y-40790636D01*
X39985600Y-40790636D01*
X39844410Y-40817203D01*
X39714735Y-40900646D01*
X39627741Y-41027966D01*
X39606530Y-41132710D01*
X39476859Y-41002813D01*
X39226654Y-40898918D01*
X38955735Y-40898682D01*
X38705348Y-41002139D01*
X38646986Y-41060400D01*
X38564119Y-41060400D01*
X38557497Y-41025210D01*
X38474054Y-40895535D01*
X38346734Y-40808541D01*
X38195600Y-40777936D01*
X37445600Y-40777936D01*
X37304410Y-40804503D01*
X37174735Y-40887946D01*
X37087741Y-41015266D01*
X37064392Y-41130568D01*
X36936859Y-41002813D01*
X36686654Y-40898918D01*
X36415735Y-40898682D01*
X36165348Y-41002139D01*
X36094264Y-41073100D01*
X36062219Y-41073100D01*
X36055597Y-41037910D01*
X35972154Y-40908235D01*
X35844834Y-40821241D01*
X35693700Y-40790636D01*
X34943700Y-40790636D01*
X34802510Y-40817203D01*
X34672835Y-40900646D01*
X34585841Y-41027966D01*
X34555236Y-41179100D01*
X32536600Y-41179100D01*
X32536600Y-39114031D01*
X34036000Y-39114031D01*
X34036000Y-39473569D01*
X34130740Y-39949857D01*
X34400535Y-40353634D01*
X34804312Y-40623429D01*
X35280600Y-40718169D01*
X35756888Y-40623429D01*
X36160665Y-40353634D01*
X36430460Y-39949857D01*
X36525200Y-39473569D01*
X36525200Y-39114031D01*
X36430460Y-38637743D01*
X36160665Y-38233966D01*
X35886091Y-38050501D01*
X36082128Y-37854464D01*
X36338315Y-37854464D01*
X36362517Y-37976138D01*
X36472204Y-38140296D01*
X36790467Y-38458559D01*
X36670740Y-38637743D01*
X36576000Y-39114031D01*
X36576000Y-39473569D01*
X36670740Y-39949857D01*
X36940535Y-40353634D01*
X37344312Y-40623429D01*
X37820600Y-40718169D01*
X38296888Y-40623429D01*
X38700665Y-40353634D01*
X38970460Y-39949857D01*
X39065200Y-39473569D01*
X39065200Y-39114031D01*
X39116000Y-39114031D01*
X39116000Y-39473569D01*
X39210740Y-39949857D01*
X39480535Y-40353634D01*
X39884312Y-40623429D01*
X40360600Y-40718169D01*
X40836888Y-40623429D01*
X41240665Y-40353634D01*
X41510460Y-39949857D01*
X41605200Y-39473569D01*
X41605200Y-39114031D01*
X41510460Y-38637743D01*
X41240665Y-38233966D01*
X40932341Y-38027951D01*
X42157692Y-36802600D01*
X42257136Y-36802600D01*
X42257136Y-37121600D01*
X42283703Y-37262790D01*
X42367146Y-37392465D01*
X42394600Y-37411224D01*
X42394600Y-37984024D01*
X42020535Y-38233966D01*
X41750740Y-38637743D01*
X41656000Y-39114031D01*
X41656000Y-39473569D01*
X41750740Y-39949857D01*
X42020535Y-40353634D01*
X42424312Y-40623429D01*
X42900600Y-40718169D01*
X43376888Y-40623429D01*
X43780665Y-40353634D01*
X44050460Y-39949857D01*
X44145200Y-39473569D01*
X44145200Y-39114031D01*
X44050460Y-38637743D01*
X44013225Y-38582017D01*
X44253943Y-38822735D01*
X44196000Y-39114031D01*
X44196000Y-39473569D01*
X44290740Y-39949857D01*
X44560535Y-40353634D01*
X44964312Y-40623429D01*
X45440600Y-40718169D01*
X45916888Y-40623429D01*
X46320665Y-40353634D01*
X46590460Y-39949857D01*
X46685200Y-39473569D01*
X46685200Y-39114031D01*
X46590460Y-38637743D01*
X46553225Y-38582017D01*
X46793943Y-38822735D01*
X46736000Y-39114031D01*
X46736000Y-39473569D01*
X46830740Y-39949857D01*
X47100535Y-40353634D01*
X47504312Y-40623429D01*
X47980600Y-40718169D01*
X48456888Y-40623429D01*
X48860665Y-40353634D01*
X49130460Y-39949857D01*
X49225200Y-39473569D01*
X49225200Y-39114031D01*
X49276000Y-39114031D01*
X49276000Y-39473569D01*
X49370740Y-39949857D01*
X49640535Y-40353634D01*
X50044312Y-40623429D01*
X50520600Y-40718169D01*
X50996888Y-40623429D01*
X51400665Y-40353634D01*
X51670460Y-39949857D01*
X51765200Y-39473569D01*
X51765200Y-39114031D01*
X51670460Y-38637743D01*
X51400665Y-38233966D01*
X51069502Y-38012690D01*
X52379036Y-36703156D01*
X52379036Y-36956500D01*
X52405603Y-37097690D01*
X52489046Y-37227365D01*
X52616366Y-37314359D01*
X52686500Y-37328561D01*
X52686500Y-37943844D01*
X52584312Y-37964171D01*
X52180535Y-38233966D01*
X51910740Y-38637743D01*
X51816000Y-39114031D01*
X51816000Y-39473569D01*
X51910740Y-39949857D01*
X52180535Y-40353634D01*
X52584312Y-40623429D01*
X53060600Y-40718169D01*
X53536888Y-40623429D01*
X53940665Y-40353634D01*
X54210460Y-39949857D01*
X54305200Y-39473569D01*
X54305200Y-39114031D01*
X54210460Y-38637743D01*
X54173225Y-38582017D01*
X54413943Y-38822735D01*
X54356000Y-39114031D01*
X54356000Y-39473569D01*
X54450740Y-39949857D01*
X54720535Y-40353634D01*
X55124312Y-40623429D01*
X55600600Y-40718169D01*
X56076888Y-40623429D01*
X56480665Y-40353634D01*
X56750460Y-39949857D01*
X56845200Y-39473569D01*
X56845200Y-39114031D01*
X56750460Y-38637743D01*
X56713225Y-38582017D01*
X56888536Y-38757328D01*
X56888536Y-40309800D01*
X56915103Y-40450990D01*
X56998546Y-40580665D01*
X57125866Y-40667659D01*
X57277000Y-40698264D01*
X59004200Y-40698264D01*
X59145390Y-40671697D01*
X59275065Y-40588254D01*
X59362059Y-40460934D01*
X59392664Y-40309800D01*
X59392664Y-38277800D01*
X59366097Y-38136610D01*
X59282654Y-38006935D01*
X59155334Y-37919941D01*
X59004200Y-37889336D01*
X57451728Y-37889336D01*
X56205964Y-36643572D01*
X56205964Y-36606500D01*
X56179397Y-36465310D01*
X56174895Y-36458313D01*
X56175359Y-36457634D01*
X56205964Y-36306500D01*
X56205964Y-35956500D01*
X56179397Y-35815310D01*
X56174895Y-35808313D01*
X56175359Y-35807634D01*
X56205964Y-35656500D01*
X56205964Y-35306500D01*
X56179397Y-35165310D01*
X56095954Y-35035635D01*
X56065762Y-35015006D01*
X56078282Y-34984854D01*
X56078518Y-34713935D01*
X55975061Y-34463548D01*
X55783659Y-34271813D01*
X55533454Y-34167918D01*
X55262535Y-34167682D01*
X55012148Y-34271139D01*
X54820413Y-34462541D01*
X54716518Y-34712746D01*
X54716282Y-34983665D01*
X54726642Y-35008737D01*
X54696635Y-35028046D01*
X54609641Y-35155366D01*
X54579036Y-35306500D01*
X54579036Y-35625500D01*
X54559200Y-35625500D01*
X54365562Y-35664017D01*
X54201404Y-35773704D01*
X54005964Y-35969144D01*
X54005964Y-35956500D01*
X53979397Y-35815310D01*
X53974895Y-35808313D01*
X53975359Y-35807634D01*
X54005964Y-35656500D01*
X54005964Y-35306500D01*
X53979397Y-35165310D01*
X53895954Y-35035635D01*
X53768634Y-34948641D01*
X53617500Y-34918036D01*
X52767500Y-34918036D01*
X52626310Y-34944603D01*
X52496635Y-35028046D01*
X52409641Y-35155366D01*
X52379036Y-35306500D01*
X52379036Y-35625500D01*
X52235100Y-35625500D01*
X52041462Y-35664017D01*
X51877304Y-35773704D01*
X50162804Y-37488204D01*
X50053117Y-37652362D01*
X50014600Y-37846000D01*
X50014600Y-37984024D01*
X49640535Y-38233966D01*
X49370740Y-38637743D01*
X49276000Y-39114031D01*
X49225200Y-39114031D01*
X49130460Y-38637743D01*
X48860665Y-38233966D01*
X48456888Y-37964171D01*
X47980600Y-37869431D01*
X47504312Y-37964171D01*
X47421737Y-38019345D01*
X46063221Y-36660829D01*
X46057497Y-36630410D01*
X46052995Y-36623413D01*
X46053459Y-36622734D01*
X46084064Y-36471600D01*
X46084064Y-36305415D01*
X46142746Y-36329782D01*
X46413665Y-36330018D01*
X46664052Y-36226561D01*
X46855787Y-36035159D01*
X46959682Y-35784954D01*
X46959918Y-35514035D01*
X46856461Y-35263648D01*
X46665059Y-35071913D01*
X46414854Y-34968018D01*
X46143935Y-34967782D01*
X45893548Y-35071239D01*
X45849250Y-35115460D01*
X45846734Y-35113741D01*
X45695600Y-35083136D01*
X44845600Y-35083136D01*
X44704410Y-35109703D01*
X44574735Y-35193146D01*
X44487741Y-35320466D01*
X44457136Y-35471600D01*
X44457136Y-35816969D01*
X44396062Y-35829117D01*
X44231904Y-35938804D01*
X43884064Y-36286644D01*
X43884064Y-36121600D01*
X43857497Y-35980410D01*
X43852995Y-35973413D01*
X43853459Y-35972734D01*
X43884064Y-35821600D01*
X43884064Y-35471600D01*
X43857497Y-35330410D01*
X43774054Y-35200735D01*
X43646734Y-35113741D01*
X43495600Y-35083136D01*
X42645600Y-35083136D01*
X42504410Y-35109703D01*
X42374735Y-35193146D01*
X42287741Y-35320466D01*
X42257136Y-35471600D01*
X42257136Y-35790600D01*
X41948100Y-35790600D01*
X41754462Y-35829117D01*
X41590304Y-35938804D01*
X40002804Y-37526304D01*
X39893117Y-37690462D01*
X39854600Y-37884100D01*
X39854600Y-37984024D01*
X39480535Y-38233966D01*
X39210740Y-38637743D01*
X39116000Y-39114031D01*
X39065200Y-39114031D01*
X38970460Y-38637743D01*
X38700665Y-38233966D01*
X38296888Y-37964171D01*
X37820600Y-37869431D01*
X37663727Y-37900635D01*
X37617556Y-37854464D01*
X37655000Y-37854464D01*
X37796190Y-37827897D01*
X37925865Y-37744454D01*
X38012199Y-37618100D01*
X38243346Y-37714082D01*
X38514265Y-37714318D01*
X38764652Y-37610861D01*
X38956387Y-37419459D01*
X39060282Y-37169254D01*
X39060518Y-36898335D01*
X38957061Y-36647948D01*
X38765659Y-36456213D01*
X38515454Y-36352318D01*
X38244535Y-36352082D01*
X38002323Y-36452161D01*
X37933454Y-36345135D01*
X37806134Y-36258141D01*
X37655000Y-36227536D01*
X37305000Y-36227536D01*
X37163810Y-36254103D01*
X37156813Y-36258605D01*
X37156134Y-36258141D01*
X37005000Y-36227536D01*
X36655000Y-36227536D01*
X36513810Y-36254103D01*
X36506813Y-36258605D01*
X36506134Y-36258141D01*
X36355000Y-36227536D01*
X36005000Y-36227536D01*
X35863810Y-36254103D01*
X35734135Y-36337546D01*
X35647141Y-36464866D01*
X35616536Y-36616000D01*
X35616536Y-36888872D01*
X34922804Y-37582604D01*
X34813117Y-37746762D01*
X34774600Y-37940400D01*
X34774600Y-37984024D01*
X34400535Y-38233966D01*
X34130740Y-38637743D01*
X34036000Y-39114031D01*
X32536600Y-39114031D01*
X32536600Y-34416000D01*
X35616536Y-34416000D01*
X35616536Y-35266000D01*
X35643103Y-35407190D01*
X35726546Y-35536865D01*
X35853866Y-35623859D01*
X36005000Y-35654464D01*
X36355000Y-35654464D01*
X36496190Y-35627897D01*
X36503187Y-35623395D01*
X36503866Y-35623859D01*
X36655000Y-35654464D01*
X37005000Y-35654464D01*
X37146190Y-35627897D01*
X37153187Y-35623395D01*
X37153866Y-35623859D01*
X37305000Y-35654464D01*
X37655000Y-35654464D01*
X37796190Y-35627897D01*
X37925865Y-35544454D01*
X38012859Y-35417134D01*
X38043464Y-35266000D01*
X38043464Y-34416000D01*
X38016897Y-34274810D01*
X37933454Y-34145135D01*
X37806134Y-34058141D01*
X37655000Y-34027536D01*
X37305000Y-34027536D01*
X37163810Y-34054103D01*
X37156813Y-34058605D01*
X37156134Y-34058141D01*
X37005000Y-34027536D01*
X36655000Y-34027536D01*
X36513810Y-34054103D01*
X36506813Y-34058605D01*
X36506134Y-34058141D01*
X36355000Y-34027536D01*
X36005000Y-34027536D01*
X35863810Y-34054103D01*
X35734135Y-34137546D01*
X35647141Y-34264866D01*
X35616536Y-34416000D01*
X32536600Y-34416000D01*
X32536600Y-28904400D01*
X60706800Y-28904400D01*
X60706800Y-59446220D01*
G36*
X34164835Y-60204646D02*
X34077841Y-60331966D01*
X34047236Y-60483100D01*
X34047236Y-61283100D01*
X34073803Y-61424290D01*
X34157246Y-61553965D01*
X34274498Y-61634080D01*
X34164835Y-61704646D01*
X34077841Y-61831966D01*
X34047236Y-61983100D01*
X34047236Y-62783100D01*
X34073803Y-62924290D01*
X34157246Y-63053965D01*
X34239200Y-63109962D01*
X34239200Y-63175795D01*
X34139978Y-63414746D01*
X34139742Y-63685665D01*
X34243199Y-63936052D01*
X34360804Y-64053862D01*
X34342335Y-64065746D01*
X34309251Y-64114166D01*
X34199994Y-64068798D01*
X33929075Y-64068562D01*
X33678688Y-64172019D01*
X33486953Y-64363421D01*
X33383058Y-64613626D01*
X33382822Y-64884545D01*
X33486279Y-65134932D01*
X33677681Y-65326667D01*
X33927886Y-65430562D01*
X34198805Y-65430798D01*
X34343468Y-65371025D01*
X34462066Y-65452059D01*
X34613200Y-65482664D01*
X35413200Y-65482664D01*
X35554390Y-65456097D01*
X35684065Y-65372654D01*
X35764180Y-65255402D01*
X35834746Y-65365065D01*
X35962066Y-65452059D01*
X36113200Y-65482664D01*
X36913200Y-65482664D01*
X37054390Y-65456097D01*
X37184065Y-65372654D01*
X37240062Y-65290700D01*
X37296794Y-65290700D01*
X37344646Y-65365065D01*
X37471966Y-65452059D01*
X37623100Y-65482664D01*
X38423100Y-65482664D01*
X38564290Y-65456097D01*
X38693965Y-65372654D01*
X38774080Y-65255402D01*
X38844646Y-65365065D01*
X38943581Y-65432664D01*
X38849138Y-65660106D01*
X38848902Y-65931025D01*
X38952359Y-66181412D01*
X39143761Y-66373147D01*
X39393966Y-66477042D01*
X39609145Y-66477229D01*
X39302735Y-66681966D01*
X39032940Y-67085743D01*
X38938200Y-67562031D01*
X38938200Y-67921569D01*
X39032940Y-68397857D01*
X39302735Y-68801634D01*
X39706512Y-69071429D01*
X40182800Y-69166169D01*
X40659088Y-69071429D01*
X41062865Y-68801634D01*
X41332660Y-68397857D01*
X41427400Y-67921569D01*
X41427400Y-67562031D01*
X41478200Y-67562031D01*
X41478200Y-67921569D01*
X41572940Y-68397857D01*
X41842735Y-68801634D01*
X42246512Y-69071429D01*
X42722800Y-69166169D01*
X43199088Y-69071429D01*
X43602865Y-68801634D01*
X43872660Y-68397857D01*
X43967400Y-67921569D01*
X43967400Y-67562031D01*
X44018200Y-67562031D01*
X44018200Y-67921569D01*
X44112940Y-68397857D01*
X44382735Y-68801634D01*
X44786512Y-69071429D01*
X45262800Y-69166169D01*
X45739088Y-69071429D01*
X46142865Y-68801634D01*
X46412660Y-68397857D01*
X46507400Y-67921569D01*
X46507400Y-67562031D01*
X46558200Y-67562031D01*
X46558200Y-67921569D01*
X46652940Y-68397857D01*
X46922735Y-68801634D01*
X47326512Y-69071429D01*
X47802800Y-69166169D01*
X48279088Y-69071429D01*
X48682865Y-68801634D01*
X48952660Y-68397857D01*
X49047400Y-67921569D01*
X49047400Y-67562031D01*
X49098200Y-67562031D01*
X49098200Y-67921569D01*
X49192940Y-68397857D01*
X49462735Y-68801634D01*
X49866512Y-69071429D01*
X50342800Y-69166169D01*
X50819088Y-69071429D01*
X51222865Y-68801634D01*
X51492660Y-68397857D01*
X51587400Y-67921569D01*
X51587400Y-67562031D01*
X51638200Y-67562031D01*
X51638200Y-67921569D01*
X51732940Y-68397857D01*
X52002735Y-68801634D01*
X52406512Y-69071429D01*
X52882800Y-69166169D01*
X53359088Y-69071429D01*
X53762865Y-68801634D01*
X54032660Y-68397857D01*
X54127400Y-67921569D01*
X54127400Y-67562031D01*
X54178200Y-67562031D01*
X54178200Y-67921569D01*
X54272940Y-68397857D01*
X54542735Y-68801634D01*
X54946512Y-69071429D01*
X55422800Y-69166169D01*
X55899088Y-69071429D01*
X56302865Y-68801634D01*
X56572660Y-68397857D01*
X56658949Y-67964050D01*
X56718200Y-67964050D01*
X56718200Y-68833585D01*
X56776204Y-68973619D01*
X56883380Y-69080796D01*
X57023414Y-69138800D01*
X57740550Y-69138800D01*
X57835800Y-69043550D01*
X57835800Y-67868800D01*
X58089800Y-67868800D01*
X58089800Y-69043550D01*
X58185050Y-69138800D01*
X58902186Y-69138800D01*
X59042220Y-69080796D01*
X59149396Y-68973619D01*
X59207400Y-68833585D01*
X59207400Y-67964050D01*
X59112150Y-67868800D01*
X58089800Y-67868800D01*
X57835800Y-67868800D01*
X56813450Y-67868800D01*
X56718200Y-67964050D01*
X56658949Y-67964050D01*
X56667400Y-67921569D01*
X56667400Y-67562031D01*
X56572660Y-67085743D01*
X56302865Y-66681966D01*
X56255047Y-66650015D01*
X56718200Y-66650015D01*
X56718200Y-67519550D01*
X56813450Y-67614800D01*
X57835800Y-67614800D01*
X57835800Y-66440050D01*
X58089800Y-66440050D01*
X58089800Y-67614800D01*
X59112150Y-67614800D01*
X59207400Y-67519550D01*
X59207400Y-66650015D01*
X59149396Y-66509981D01*
X59042220Y-66402804D01*
X58902186Y-66344800D01*
X58185050Y-66344800D01*
X58089800Y-66440050D01*
X57835800Y-66440050D01*
X57740550Y-66344800D01*
X57023414Y-66344800D01*
X56883380Y-66402804D01*
X56776204Y-66509981D01*
X56718200Y-66650015D01*
X56255047Y-66650015D01*
X55994300Y-66475790D01*
X55994300Y-66428424D01*
X56493019Y-65929704D01*
X56848260Y-65929704D01*
X56989450Y-65903137D01*
X57119125Y-65819694D01*
X57201357Y-65699343D01*
X57225264Y-65757059D01*
X57332440Y-65864236D01*
X57472474Y-65922240D01*
X57726010Y-65922240D01*
X57821260Y-65826990D01*
X57821260Y-65293240D01*
X58075260Y-65293240D01*
X58075260Y-65826990D01*
X58170510Y-65922240D01*
X58424046Y-65922240D01*
X58564080Y-65864236D01*
X58671256Y-65757059D01*
X58729260Y-65617025D01*
X58729260Y-65388490D01*
X58634010Y-65293240D01*
X58075260Y-65293240D01*
X57821260Y-65293240D01*
X57801260Y-65293240D01*
X57801260Y-65039240D01*
X57821260Y-65039240D01*
X57821260Y-64505490D01*
X58075260Y-64505490D01*
X58075260Y-65039240D01*
X58634010Y-65039240D01*
X58729260Y-64943990D01*
X58729260Y-64715455D01*
X58671256Y-64575421D01*
X58564080Y-64468244D01*
X58424046Y-64410240D01*
X58170510Y-64410240D01*
X58075260Y-64505490D01*
X57821260Y-64505490D01*
X57726010Y-64410240D01*
X57472474Y-64410240D01*
X57332440Y-64468244D01*
X57225264Y-64575421D01*
X57200541Y-64635107D01*
X57126714Y-64520375D01*
X57019760Y-64447296D01*
X57019760Y-64298673D01*
X57119125Y-64234734D01*
X57201357Y-64114383D01*
X57225264Y-64172099D01*
X57332440Y-64279276D01*
X57472474Y-64337280D01*
X57726010Y-64337280D01*
X57821260Y-64242030D01*
X57821260Y-63708280D01*
X58075260Y-63708280D01*
X58075260Y-64242030D01*
X58170510Y-64337280D01*
X58424046Y-64337280D01*
X58564080Y-64279276D01*
X58671256Y-64172099D01*
X58729260Y-64032065D01*
X58729260Y-63803530D01*
X58634010Y-63708280D01*
X58075260Y-63708280D01*
X57821260Y-63708280D01*
X57801260Y-63708280D01*
X57801260Y-63454280D01*
X57821260Y-63454280D01*
X57821260Y-62920530D01*
X58075260Y-62920530D01*
X58075260Y-63454280D01*
X58634010Y-63454280D01*
X58729260Y-63359030D01*
X58729260Y-63130495D01*
X58671256Y-62990461D01*
X58564080Y-62883284D01*
X58424046Y-62825280D01*
X58170510Y-62825280D01*
X58075260Y-62920530D01*
X57821260Y-62920530D01*
X57726010Y-62825280D01*
X57472474Y-62825280D01*
X57332440Y-62883284D01*
X57225264Y-62990461D01*
X57200541Y-63050147D01*
X57126714Y-62935415D01*
X56999394Y-62848421D01*
X56848260Y-62817816D01*
X56048260Y-62817816D01*
X55907070Y-62844383D01*
X55777395Y-62927826D01*
X55690401Y-63055146D01*
X55659796Y-63206280D01*
X55659796Y-63956280D01*
X55686363Y-64097470D01*
X55769806Y-64227145D01*
X55876760Y-64300224D01*
X55876760Y-64448847D01*
X55777395Y-64512786D01*
X55690401Y-64640106D01*
X55659796Y-64791240D01*
X55659796Y-65146481D01*
X55018688Y-65787588D01*
X54894803Y-65972996D01*
X54894803Y-65972997D01*
X54851299Y-66191700D01*
X54851300Y-66191705D01*
X54851300Y-66475790D01*
X54542735Y-66681966D01*
X54272940Y-67085743D01*
X54178200Y-67562031D01*
X54127400Y-67562031D01*
X54032660Y-67085743D01*
X53762865Y-66681966D01*
X53359088Y-66412171D01*
X52882800Y-66317431D01*
X52406512Y-66412171D01*
X52002735Y-66681966D01*
X51732940Y-67085743D01*
X51638200Y-67562031D01*
X51587400Y-67562031D01*
X51492660Y-67085743D01*
X51222865Y-66681966D01*
X50819088Y-66412171D01*
X50342800Y-66317431D01*
X49866512Y-66412171D01*
X49462735Y-66681966D01*
X49192940Y-67085743D01*
X49098200Y-67562031D01*
X49047400Y-67562031D01*
X48952660Y-67085743D01*
X48682865Y-66681966D01*
X48279088Y-66412171D01*
X47802800Y-66317431D01*
X47326512Y-66412171D01*
X46922735Y-66681966D01*
X46652940Y-67085743D01*
X46558200Y-67562031D01*
X46507400Y-67562031D01*
X46412660Y-67085743D01*
X46142865Y-66681966D01*
X45739088Y-66412171D01*
X45262800Y-66317431D01*
X44786512Y-66412171D01*
X44382735Y-66681966D01*
X44112940Y-67085743D01*
X44018200Y-67562031D01*
X43967400Y-67562031D01*
X43872660Y-67085743D01*
X43602865Y-66681966D01*
X43199088Y-66412171D01*
X42722800Y-66317431D01*
X42246512Y-66412171D01*
X41842735Y-66681966D01*
X41572940Y-67085743D01*
X41478200Y-67562031D01*
X41427400Y-67562031D01*
X41332660Y-67085743D01*
X41062865Y-66681966D01*
X40659088Y-66412171D01*
X40182800Y-66317431D01*
X39919244Y-66369856D01*
X40107007Y-66182419D01*
X40210902Y-65932214D01*
X40211138Y-65661295D01*
X40113317Y-65424549D01*
X40193965Y-65372654D01*
X40280959Y-65245334D01*
X40311564Y-65094200D01*
X40311564Y-64344200D01*
X40284997Y-64203010D01*
X40201554Y-64073335D01*
X40074234Y-63986341D01*
X39923100Y-63955736D01*
X39123100Y-63955736D01*
X38981910Y-63982303D01*
X38852235Y-64065746D01*
X38772120Y-64182998D01*
X38701554Y-64073335D01*
X38604709Y-64007164D01*
X38714600Y-64007164D01*
X38855790Y-63980597D01*
X38985465Y-63897154D01*
X39072459Y-63769834D01*
X39103064Y-63618700D01*
X39103064Y-63373740D01*
X39264913Y-63211890D01*
X52235180Y-63211890D01*
X52235180Y-63595426D01*
X52293184Y-63735460D01*
X52400361Y-63842636D01*
X52540395Y-63900640D01*
X52718930Y-63900640D01*
X52814180Y-63805390D01*
X52814180Y-63116640D01*
X52330430Y-63116640D01*
X52235180Y-63211890D01*
X39264913Y-63211890D01*
X39347252Y-63129551D01*
X39355005Y-63129558D01*
X39605392Y-63026101D01*
X39797127Y-62834699D01*
X39901022Y-62584494D01*
X39901197Y-62383854D01*
X52235180Y-62383854D01*
X52235180Y-62767390D01*
X52330430Y-62862640D01*
X52814180Y-62862640D01*
X52814180Y-62173890D01*
X53068180Y-62173890D01*
X53068180Y-62862640D01*
X53088180Y-62862640D01*
X53088180Y-63116640D01*
X53068180Y-63116640D01*
X53068180Y-63805390D01*
X53163430Y-63900640D01*
X53210286Y-63900640D01*
X53210062Y-64158105D01*
X53313519Y-64408492D01*
X53504921Y-64600227D01*
X53755126Y-64704122D01*
X54026045Y-64704358D01*
X54276432Y-64600901D01*
X54468167Y-64409499D01*
X54572062Y-64159294D01*
X54572287Y-63900640D01*
X54618930Y-63900640D01*
X54714180Y-63805390D01*
X54714180Y-63116640D01*
X54968180Y-63116640D01*
X54968180Y-63805390D01*
X55063430Y-63900640D01*
X55241965Y-63900640D01*
X55381999Y-63842636D01*
X55489176Y-63735460D01*
X55547180Y-63595426D01*
X55547180Y-63211890D01*
X55451930Y-63116640D01*
X54968180Y-63116640D01*
X54714180Y-63116640D01*
X54694180Y-63116640D01*
X54694180Y-62862640D01*
X54714180Y-62862640D01*
X54714180Y-62173890D01*
X54968180Y-62173890D01*
X54968180Y-62862640D01*
X55451930Y-62862640D01*
X55547180Y-62767390D01*
X55547180Y-62383854D01*
X55489176Y-62243820D01*
X55381999Y-62136644D01*
X55254785Y-62083950D01*
X57219200Y-62083950D01*
X57219200Y-62312485D01*
X57277204Y-62452519D01*
X57384380Y-62559696D01*
X57524414Y-62617700D01*
X57777950Y-62617700D01*
X57873200Y-62522450D01*
X57873200Y-61988700D01*
X57314450Y-61988700D01*
X57219200Y-62083950D01*
X55254785Y-62083950D01*
X55241965Y-62078640D01*
X55063430Y-62078640D01*
X54968180Y-62173890D01*
X54714180Y-62173890D01*
X54618930Y-62078640D01*
X54440395Y-62078640D01*
X54373811Y-62106220D01*
X54367314Y-62101781D01*
X54216180Y-62071176D01*
X53566180Y-62071176D01*
X53424990Y-62097743D01*
X53410537Y-62107043D01*
X53341965Y-62078640D01*
X53163430Y-62078640D01*
X53068180Y-62173890D01*
X52814180Y-62173890D01*
X52718930Y-62078640D01*
X52540395Y-62078640D01*
X52400361Y-62136644D01*
X52293184Y-62243820D01*
X52235180Y-62383854D01*
X39901197Y-62383854D01*
X39901245Y-62328881D01*
X39996552Y-62289501D01*
X40188287Y-62098099D01*
X40292182Y-61847894D01*
X40292418Y-61576975D01*
X40188961Y-61326588D01*
X39997559Y-61134853D01*
X39747354Y-61030958D01*
X39476435Y-61030722D01*
X39226048Y-61134179D01*
X39103064Y-61256949D01*
X39103064Y-60983460D01*
X39672509Y-60414014D01*
X39672512Y-60414012D01*
X39796397Y-60228604D01*
X39811289Y-60153739D01*
X39813600Y-60142120D01*
X52251514Y-60142120D01*
X52227716Y-60259640D01*
X52227716Y-61319640D01*
X52254283Y-61460830D01*
X52337726Y-61590505D01*
X52465046Y-61677499D01*
X52616180Y-61708104D01*
X53266180Y-61708104D01*
X53407370Y-61681537D01*
X53537045Y-61598094D01*
X53624039Y-61470774D01*
X53654644Y-61319640D01*
X53654644Y-60259640D01*
X53632531Y-60142120D01*
X54151514Y-60142120D01*
X54127716Y-60259640D01*
X54127716Y-61319640D01*
X54154283Y-61460830D01*
X54237726Y-61590505D01*
X54365046Y-61677499D01*
X54516180Y-61708104D01*
X55166180Y-61708104D01*
X55307370Y-61681537D01*
X55437045Y-61598094D01*
X55524039Y-61470774D01*
X55536160Y-61410915D01*
X57219200Y-61410915D01*
X57219200Y-61639450D01*
X57314450Y-61734700D01*
X57873200Y-61734700D01*
X57873200Y-61200950D01*
X57777950Y-61105700D01*
X57524414Y-61105700D01*
X57384380Y-61163704D01*
X57277204Y-61270881D01*
X57219200Y-61410915D01*
X55536160Y-61410915D01*
X55554644Y-61319640D01*
X55554644Y-60259640D01*
X55532531Y-60142120D01*
X59142368Y-60142120D01*
X59114248Y-60153739D01*
X58922513Y-60345141D01*
X58818618Y-60595346D01*
X58818382Y-60866265D01*
X58921839Y-61116652D01*
X58928700Y-61123525D01*
X58928700Y-61144307D01*
X58829335Y-61208246D01*
X58747103Y-61328597D01*
X58723196Y-61270881D01*
X58616020Y-61163704D01*
X58475986Y-61105700D01*
X58222450Y-61105700D01*
X58127200Y-61200950D01*
X58127200Y-61734700D01*
X58147200Y-61734700D01*
X58147200Y-61988700D01*
X58127200Y-61988700D01*
X58127200Y-62522450D01*
X58222450Y-62617700D01*
X58475986Y-62617700D01*
X58616020Y-62559696D01*
X58723196Y-62452519D01*
X58747919Y-62392833D01*
X58821746Y-62507565D01*
X58928700Y-62580644D01*
X58928700Y-62612265D01*
X58922513Y-62618441D01*
X58818618Y-62868646D01*
X58818382Y-63139565D01*
X58921839Y-63389952D01*
X59113241Y-63581687D01*
X59363446Y-63685582D01*
X59634365Y-63685818D01*
X59884752Y-63582361D01*
X60076487Y-63390959D01*
X60180382Y-63140754D01*
X60180618Y-62869835D01*
X60077161Y-62619448D01*
X60071700Y-62613977D01*
X60071700Y-62579093D01*
X60171065Y-62515154D01*
X60258059Y-62387834D01*
X60288664Y-62236700D01*
X60288664Y-61486700D01*
X60262097Y-61345510D01*
X60178654Y-61215835D01*
X60071700Y-61142756D01*
X60071700Y-61122438D01*
X60076487Y-61117659D01*
X60180382Y-60867454D01*
X60180618Y-60596535D01*
X60077161Y-60346148D01*
X59885759Y-60154413D01*
X59856154Y-60142120D01*
X60706800Y-60142120D01*
X60706800Y-69203100D01*
X32536600Y-69203100D01*
X32536600Y-67562031D01*
X33858200Y-67562031D01*
X33858200Y-67921569D01*
X33952940Y-68397857D01*
X34222735Y-68801634D01*
X34626512Y-69071429D01*
X35102800Y-69166169D01*
X35579088Y-69071429D01*
X35982865Y-68801634D01*
X36252660Y-68397857D01*
X36319065Y-68064013D01*
X36408273Y-68064013D01*
X36567230Y-68523520D01*
X36889933Y-68887219D01*
X37323682Y-69097193D01*
X37515800Y-69036512D01*
X37515800Y-67868800D01*
X37769800Y-67868800D01*
X37769800Y-69036512D01*
X37961918Y-69097193D01*
X38395667Y-68887219D01*
X38718370Y-68523520D01*
X38877327Y-68064013D01*
X38793443Y-67868800D01*
X37769800Y-67868800D01*
X37515800Y-67868800D01*
X36492157Y-67868800D01*
X36408273Y-68064013D01*
X36319065Y-68064013D01*
X36347400Y-67921569D01*
X36347400Y-67562031D01*
X36319066Y-67419587D01*
X36408273Y-67419587D01*
X36492157Y-67614800D01*
X37515800Y-67614800D01*
X37515800Y-66447088D01*
X37769800Y-66447088D01*
X37769800Y-67614800D01*
X38793443Y-67614800D01*
X38877327Y-67419587D01*
X38718370Y-66960080D01*
X38395667Y-66596381D01*
X37961918Y-66386407D01*
X37769800Y-66447088D01*
X37515800Y-66447088D01*
X37323682Y-66386407D01*
X36889933Y-66596381D01*
X36567230Y-66960080D01*
X36408273Y-67419587D01*
X36319066Y-67419587D01*
X36252660Y-67085743D01*
X35982865Y-66681966D01*
X35579088Y-66412171D01*
X35102800Y-66317431D01*
X34626512Y-66412171D01*
X34222735Y-66681966D01*
X33952940Y-67085743D01*
X33858200Y-67562031D01*
X32536600Y-67562031D01*
X32536600Y-60142120D01*
X34262004Y-60142120D01*
X34164835Y-60204646D01*
X34164835Y-60204646D01*
G37*
X34164835Y-60204646D02*
X34077841Y-60331966D01*
X34047236Y-60483100D01*
X34047236Y-61283100D01*
X34073803Y-61424290D01*
X34157246Y-61553965D01*
X34274498Y-61634080D01*
X34164835Y-61704646D01*
X34077841Y-61831966D01*
X34047236Y-61983100D01*
X34047236Y-62783100D01*
X34073803Y-62924290D01*
X34157246Y-63053965D01*
X34239200Y-63109962D01*
X34239200Y-63175795D01*
X34139978Y-63414746D01*
X34139742Y-63685665D01*
X34243199Y-63936052D01*
X34360804Y-64053862D01*
X34342335Y-64065746D01*
X34309251Y-64114166D01*
X34199994Y-64068798D01*
X33929075Y-64068562D01*
X33678688Y-64172019D01*
X33486953Y-64363421D01*
X33383058Y-64613626D01*
X33382822Y-64884545D01*
X33486279Y-65134932D01*
X33677681Y-65326667D01*
X33927886Y-65430562D01*
X34198805Y-65430798D01*
X34343468Y-65371025D01*
X34462066Y-65452059D01*
X34613200Y-65482664D01*
X35413200Y-65482664D01*
X35554390Y-65456097D01*
X35684065Y-65372654D01*
X35764180Y-65255402D01*
X35834746Y-65365065D01*
X35962066Y-65452059D01*
X36113200Y-65482664D01*
X36913200Y-65482664D01*
X37054390Y-65456097D01*
X37184065Y-65372654D01*
X37240062Y-65290700D01*
X37296794Y-65290700D01*
X37344646Y-65365065D01*
X37471966Y-65452059D01*
X37623100Y-65482664D01*
X38423100Y-65482664D01*
X38564290Y-65456097D01*
X38693965Y-65372654D01*
X38774080Y-65255402D01*
X38844646Y-65365065D01*
X38943581Y-65432664D01*
X38849138Y-65660106D01*
X38848902Y-65931025D01*
X38952359Y-66181412D01*
X39143761Y-66373147D01*
X39393966Y-66477042D01*
X39609145Y-66477229D01*
X39302735Y-66681966D01*
X39032940Y-67085743D01*
X38938200Y-67562031D01*
X38938200Y-67921569D01*
X39032940Y-68397857D01*
X39302735Y-68801634D01*
X39706512Y-69071429D01*
X40182800Y-69166169D01*
X40659088Y-69071429D01*
X41062865Y-68801634D01*
X41332660Y-68397857D01*
X41427400Y-67921569D01*
X41427400Y-67562031D01*
X41478200Y-67562031D01*
X41478200Y-67921569D01*
X41572940Y-68397857D01*
X41842735Y-68801634D01*
X42246512Y-69071429D01*
X42722800Y-69166169D01*
X43199088Y-69071429D01*
X43602865Y-68801634D01*
X43872660Y-68397857D01*
X43967400Y-67921569D01*
X43967400Y-67562031D01*
X44018200Y-67562031D01*
X44018200Y-67921569D01*
X44112940Y-68397857D01*
X44382735Y-68801634D01*
X44786512Y-69071429D01*
X45262800Y-69166169D01*
X45739088Y-69071429D01*
X46142865Y-68801634D01*
X46412660Y-68397857D01*
X46507400Y-67921569D01*
X46507400Y-67562031D01*
X46558200Y-67562031D01*
X46558200Y-67921569D01*
X46652940Y-68397857D01*
X46922735Y-68801634D01*
X47326512Y-69071429D01*
X47802800Y-69166169D01*
X48279088Y-69071429D01*
X48682865Y-68801634D01*
X48952660Y-68397857D01*
X49047400Y-67921569D01*
X49047400Y-67562031D01*
X49098200Y-67562031D01*
X49098200Y-67921569D01*
X49192940Y-68397857D01*
X49462735Y-68801634D01*
X49866512Y-69071429D01*
X50342800Y-69166169D01*
X50819088Y-69071429D01*
X51222865Y-68801634D01*
X51492660Y-68397857D01*
X51587400Y-67921569D01*
X51587400Y-67562031D01*
X51638200Y-67562031D01*
X51638200Y-67921569D01*
X51732940Y-68397857D01*
X52002735Y-68801634D01*
X52406512Y-69071429D01*
X52882800Y-69166169D01*
X53359088Y-69071429D01*
X53762865Y-68801634D01*
X54032660Y-68397857D01*
X54127400Y-67921569D01*
X54127400Y-67562031D01*
X54178200Y-67562031D01*
X54178200Y-67921569D01*
X54272940Y-68397857D01*
X54542735Y-68801634D01*
X54946512Y-69071429D01*
X55422800Y-69166169D01*
X55899088Y-69071429D01*
X56302865Y-68801634D01*
X56572660Y-68397857D01*
X56658949Y-67964050D01*
X56718200Y-67964050D01*
X56718200Y-68833585D01*
X56776204Y-68973619D01*
X56883380Y-69080796D01*
X57023414Y-69138800D01*
X57740550Y-69138800D01*
X57835800Y-69043550D01*
X57835800Y-67868800D01*
X58089800Y-67868800D01*
X58089800Y-69043550D01*
X58185050Y-69138800D01*
X58902186Y-69138800D01*
X59042220Y-69080796D01*
X59149396Y-68973619D01*
X59207400Y-68833585D01*
X59207400Y-67964050D01*
X59112150Y-67868800D01*
X58089800Y-67868800D01*
X57835800Y-67868800D01*
X56813450Y-67868800D01*
X56718200Y-67964050D01*
X56658949Y-67964050D01*
X56667400Y-67921569D01*
X56667400Y-67562031D01*
X56572660Y-67085743D01*
X56302865Y-66681966D01*
X56255047Y-66650015D01*
X56718200Y-66650015D01*
X56718200Y-67519550D01*
X56813450Y-67614800D01*
X57835800Y-67614800D01*
X57835800Y-66440050D01*
X58089800Y-66440050D01*
X58089800Y-67614800D01*
X59112150Y-67614800D01*
X59207400Y-67519550D01*
X59207400Y-66650015D01*
X59149396Y-66509981D01*
X59042220Y-66402804D01*
X58902186Y-66344800D01*
X58185050Y-66344800D01*
X58089800Y-66440050D01*
X57835800Y-66440050D01*
X57740550Y-66344800D01*
X57023414Y-66344800D01*
X56883380Y-66402804D01*
X56776204Y-66509981D01*
X56718200Y-66650015D01*
X56255047Y-66650015D01*
X55994300Y-66475790D01*
X55994300Y-66428424D01*
X56493019Y-65929704D01*
X56848260Y-65929704D01*
X56989450Y-65903137D01*
X57119125Y-65819694D01*
X57201357Y-65699343D01*
X57225264Y-65757059D01*
X57332440Y-65864236D01*
X57472474Y-65922240D01*
X57726010Y-65922240D01*
X57821260Y-65826990D01*
X57821260Y-65293240D01*
X58075260Y-65293240D01*
X58075260Y-65826990D01*
X58170510Y-65922240D01*
X58424046Y-65922240D01*
X58564080Y-65864236D01*
X58671256Y-65757059D01*
X58729260Y-65617025D01*
X58729260Y-65388490D01*
X58634010Y-65293240D01*
X58075260Y-65293240D01*
X57821260Y-65293240D01*
X57801260Y-65293240D01*
X57801260Y-65039240D01*
X57821260Y-65039240D01*
X57821260Y-64505490D01*
X58075260Y-64505490D01*
X58075260Y-65039240D01*
X58634010Y-65039240D01*
X58729260Y-64943990D01*
X58729260Y-64715455D01*
X58671256Y-64575421D01*
X58564080Y-64468244D01*
X58424046Y-64410240D01*
X58170510Y-64410240D01*
X58075260Y-64505490D01*
X57821260Y-64505490D01*
X57726010Y-64410240D01*
X57472474Y-64410240D01*
X57332440Y-64468244D01*
X57225264Y-64575421D01*
X57200541Y-64635107D01*
X57126714Y-64520375D01*
X57019760Y-64447296D01*
X57019760Y-64298673D01*
X57119125Y-64234734D01*
X57201357Y-64114383D01*
X57225264Y-64172099D01*
X57332440Y-64279276D01*
X57472474Y-64337280D01*
X57726010Y-64337280D01*
X57821260Y-64242030D01*
X57821260Y-63708280D01*
X58075260Y-63708280D01*
X58075260Y-64242030D01*
X58170510Y-64337280D01*
X58424046Y-64337280D01*
X58564080Y-64279276D01*
X58671256Y-64172099D01*
X58729260Y-64032065D01*
X58729260Y-63803530D01*
X58634010Y-63708280D01*
X58075260Y-63708280D01*
X57821260Y-63708280D01*
X57801260Y-63708280D01*
X57801260Y-63454280D01*
X57821260Y-63454280D01*
X57821260Y-62920530D01*
X58075260Y-62920530D01*
X58075260Y-63454280D01*
X58634010Y-63454280D01*
X58729260Y-63359030D01*
X58729260Y-63130495D01*
X58671256Y-62990461D01*
X58564080Y-62883284D01*
X58424046Y-62825280D01*
X58170510Y-62825280D01*
X58075260Y-62920530D01*
X57821260Y-62920530D01*
X57726010Y-62825280D01*
X57472474Y-62825280D01*
X57332440Y-62883284D01*
X57225264Y-62990461D01*
X57200541Y-63050147D01*
X57126714Y-62935415D01*
X56999394Y-62848421D01*
X56848260Y-62817816D01*
X56048260Y-62817816D01*
X55907070Y-62844383D01*
X55777395Y-62927826D01*
X55690401Y-63055146D01*
X55659796Y-63206280D01*
X55659796Y-63956280D01*
X55686363Y-64097470D01*
X55769806Y-64227145D01*
X55876760Y-64300224D01*
X55876760Y-64448847D01*
X55777395Y-64512786D01*
X55690401Y-64640106D01*
X55659796Y-64791240D01*
X55659796Y-65146481D01*
X55018688Y-65787588D01*
X54894803Y-65972996D01*
X54894803Y-65972997D01*
X54851299Y-66191700D01*
X54851300Y-66191705D01*
X54851300Y-66475790D01*
X54542735Y-66681966D01*
X54272940Y-67085743D01*
X54178200Y-67562031D01*
X54127400Y-67562031D01*
X54032660Y-67085743D01*
X53762865Y-66681966D01*
X53359088Y-66412171D01*
X52882800Y-66317431D01*
X52406512Y-66412171D01*
X52002735Y-66681966D01*
X51732940Y-67085743D01*
X51638200Y-67562031D01*
X51587400Y-67562031D01*
X51492660Y-67085743D01*
X51222865Y-66681966D01*
X50819088Y-66412171D01*
X50342800Y-66317431D01*
X49866512Y-66412171D01*
X49462735Y-66681966D01*
X49192940Y-67085743D01*
X49098200Y-67562031D01*
X49047400Y-67562031D01*
X48952660Y-67085743D01*
X48682865Y-66681966D01*
X48279088Y-66412171D01*
X47802800Y-66317431D01*
X47326512Y-66412171D01*
X46922735Y-66681966D01*
X46652940Y-67085743D01*
X46558200Y-67562031D01*
X46507400Y-67562031D01*
X46412660Y-67085743D01*
X46142865Y-66681966D01*
X45739088Y-66412171D01*
X45262800Y-66317431D01*
X44786512Y-66412171D01*
X44382735Y-66681966D01*
X44112940Y-67085743D01*
X44018200Y-67562031D01*
X43967400Y-67562031D01*
X43872660Y-67085743D01*
X43602865Y-66681966D01*
X43199088Y-66412171D01*
X42722800Y-66317431D01*
X42246512Y-66412171D01*
X41842735Y-66681966D01*
X41572940Y-67085743D01*
X41478200Y-67562031D01*
X41427400Y-67562031D01*
X41332660Y-67085743D01*
X41062865Y-66681966D01*
X40659088Y-66412171D01*
X40182800Y-66317431D01*
X39919244Y-66369856D01*
X40107007Y-66182419D01*
X40210902Y-65932214D01*
X40211138Y-65661295D01*
X40113317Y-65424549D01*
X40193965Y-65372654D01*
X40280959Y-65245334D01*
X40311564Y-65094200D01*
X40311564Y-64344200D01*
X40284997Y-64203010D01*
X40201554Y-64073335D01*
X40074234Y-63986341D01*
X39923100Y-63955736D01*
X39123100Y-63955736D01*
X38981910Y-63982303D01*
X38852235Y-64065746D01*
X38772120Y-64182998D01*
X38701554Y-64073335D01*
X38604709Y-64007164D01*
X38714600Y-64007164D01*
X38855790Y-63980597D01*
X38985465Y-63897154D01*
X39072459Y-63769834D01*
X39103064Y-63618700D01*
X39103064Y-63373740D01*
X39264913Y-63211890D01*
X52235180Y-63211890D01*
X52235180Y-63595426D01*
X52293184Y-63735460D01*
X52400361Y-63842636D01*
X52540395Y-63900640D01*
X52718930Y-63900640D01*
X52814180Y-63805390D01*
X52814180Y-63116640D01*
X52330430Y-63116640D01*
X52235180Y-63211890D01*
X39264913Y-63211890D01*
X39347252Y-63129551D01*
X39355005Y-63129558D01*
X39605392Y-63026101D01*
X39797127Y-62834699D01*
X39901022Y-62584494D01*
X39901197Y-62383854D01*
X52235180Y-62383854D01*
X52235180Y-62767390D01*
X52330430Y-62862640D01*
X52814180Y-62862640D01*
X52814180Y-62173890D01*
X53068180Y-62173890D01*
X53068180Y-62862640D01*
X53088180Y-62862640D01*
X53088180Y-63116640D01*
X53068180Y-63116640D01*
X53068180Y-63805390D01*
X53163430Y-63900640D01*
X53210286Y-63900640D01*
X53210062Y-64158105D01*
X53313519Y-64408492D01*
X53504921Y-64600227D01*
X53755126Y-64704122D01*
X54026045Y-64704358D01*
X54276432Y-64600901D01*
X54468167Y-64409499D01*
X54572062Y-64159294D01*
X54572287Y-63900640D01*
X54618930Y-63900640D01*
X54714180Y-63805390D01*
X54714180Y-63116640D01*
X54968180Y-63116640D01*
X54968180Y-63805390D01*
X55063430Y-63900640D01*
X55241965Y-63900640D01*
X55381999Y-63842636D01*
X55489176Y-63735460D01*
X55547180Y-63595426D01*
X55547180Y-63211890D01*
X55451930Y-63116640D01*
X54968180Y-63116640D01*
X54714180Y-63116640D01*
X54694180Y-63116640D01*
X54694180Y-62862640D01*
X54714180Y-62862640D01*
X54714180Y-62173890D01*
X54968180Y-62173890D01*
X54968180Y-62862640D01*
X55451930Y-62862640D01*
X55547180Y-62767390D01*
X55547180Y-62383854D01*
X55489176Y-62243820D01*
X55381999Y-62136644D01*
X55254785Y-62083950D01*
X57219200Y-62083950D01*
X57219200Y-62312485D01*
X57277204Y-62452519D01*
X57384380Y-62559696D01*
X57524414Y-62617700D01*
X57777950Y-62617700D01*
X57873200Y-62522450D01*
X57873200Y-61988700D01*
X57314450Y-61988700D01*
X57219200Y-62083950D01*
X55254785Y-62083950D01*
X55241965Y-62078640D01*
X55063430Y-62078640D01*
X54968180Y-62173890D01*
X54714180Y-62173890D01*
X54618930Y-62078640D01*
X54440395Y-62078640D01*
X54373811Y-62106220D01*
X54367314Y-62101781D01*
X54216180Y-62071176D01*
X53566180Y-62071176D01*
X53424990Y-62097743D01*
X53410537Y-62107043D01*
X53341965Y-62078640D01*
X53163430Y-62078640D01*
X53068180Y-62173890D01*
X52814180Y-62173890D01*
X52718930Y-62078640D01*
X52540395Y-62078640D01*
X52400361Y-62136644D01*
X52293184Y-62243820D01*
X52235180Y-62383854D01*
X39901197Y-62383854D01*
X39901245Y-62328881D01*
X39996552Y-62289501D01*
X40188287Y-62098099D01*
X40292182Y-61847894D01*
X40292418Y-61576975D01*
X40188961Y-61326588D01*
X39997559Y-61134853D01*
X39747354Y-61030958D01*
X39476435Y-61030722D01*
X39226048Y-61134179D01*
X39103064Y-61256949D01*
X39103064Y-60983460D01*
X39672509Y-60414014D01*
X39672512Y-60414012D01*
X39796397Y-60228604D01*
X39811289Y-60153739D01*
X39813600Y-60142120D01*
X52251514Y-60142120D01*
X52227716Y-60259640D01*
X52227716Y-61319640D01*
X52254283Y-61460830D01*
X52337726Y-61590505D01*
X52465046Y-61677499D01*
X52616180Y-61708104D01*
X53266180Y-61708104D01*
X53407370Y-61681537D01*
X53537045Y-61598094D01*
X53624039Y-61470774D01*
X53654644Y-61319640D01*
X53654644Y-60259640D01*
X53632531Y-60142120D01*
X54151514Y-60142120D01*
X54127716Y-60259640D01*
X54127716Y-61319640D01*
X54154283Y-61460830D01*
X54237726Y-61590505D01*
X54365046Y-61677499D01*
X54516180Y-61708104D01*
X55166180Y-61708104D01*
X55307370Y-61681537D01*
X55437045Y-61598094D01*
X55524039Y-61470774D01*
X55536160Y-61410915D01*
X57219200Y-61410915D01*
X57219200Y-61639450D01*
X57314450Y-61734700D01*
X57873200Y-61734700D01*
X57873200Y-61200950D01*
X57777950Y-61105700D01*
X57524414Y-61105700D01*
X57384380Y-61163704D01*
X57277204Y-61270881D01*
X57219200Y-61410915D01*
X55536160Y-61410915D01*
X55554644Y-61319640D01*
X55554644Y-60259640D01*
X55532531Y-60142120D01*
X59142368Y-60142120D01*
X59114248Y-60153739D01*
X58922513Y-60345141D01*
X58818618Y-60595346D01*
X58818382Y-60866265D01*
X58921839Y-61116652D01*
X58928700Y-61123525D01*
X58928700Y-61144307D01*
X58829335Y-61208246D01*
X58747103Y-61328597D01*
X58723196Y-61270881D01*
X58616020Y-61163704D01*
X58475986Y-61105700D01*
X58222450Y-61105700D01*
X58127200Y-61200950D01*
X58127200Y-61734700D01*
X58147200Y-61734700D01*
X58147200Y-61988700D01*
X58127200Y-61988700D01*
X58127200Y-62522450D01*
X58222450Y-62617700D01*
X58475986Y-62617700D01*
X58616020Y-62559696D01*
X58723196Y-62452519D01*
X58747919Y-62392833D01*
X58821746Y-62507565D01*
X58928700Y-62580644D01*
X58928700Y-62612265D01*
X58922513Y-62618441D01*
X58818618Y-62868646D01*
X58818382Y-63139565D01*
X58921839Y-63389952D01*
X59113241Y-63581687D01*
X59363446Y-63685582D01*
X59634365Y-63685818D01*
X59884752Y-63582361D01*
X60076487Y-63390959D01*
X60180382Y-63140754D01*
X60180618Y-62869835D01*
X60077161Y-62619448D01*
X60071700Y-62613977D01*
X60071700Y-62579093D01*
X60171065Y-62515154D01*
X60258059Y-62387834D01*
X60288664Y-62236700D01*
X60288664Y-61486700D01*
X60262097Y-61345510D01*
X60178654Y-61215835D01*
X60071700Y-61142756D01*
X60071700Y-61122438D01*
X60076487Y-61117659D01*
X60180382Y-60867454D01*
X60180618Y-60596535D01*
X60077161Y-60346148D01*
X59885759Y-60154413D01*
X59856154Y-60142120D01*
X60706800Y-60142120D01*
X60706800Y-69203100D01*
X32536600Y-69203100D01*
X32536600Y-67562031D01*
X33858200Y-67562031D01*
X33858200Y-67921569D01*
X33952940Y-68397857D01*
X34222735Y-68801634D01*
X34626512Y-69071429D01*
X35102800Y-69166169D01*
X35579088Y-69071429D01*
X35982865Y-68801634D01*
X36252660Y-68397857D01*
X36319065Y-68064013D01*
X36408273Y-68064013D01*
X36567230Y-68523520D01*
X36889933Y-68887219D01*
X37323682Y-69097193D01*
X37515800Y-69036512D01*
X37515800Y-67868800D01*
X37769800Y-67868800D01*
X37769800Y-69036512D01*
X37961918Y-69097193D01*
X38395667Y-68887219D01*
X38718370Y-68523520D01*
X38877327Y-68064013D01*
X38793443Y-67868800D01*
X37769800Y-67868800D01*
X37515800Y-67868800D01*
X36492157Y-67868800D01*
X36408273Y-68064013D01*
X36319065Y-68064013D01*
X36347400Y-67921569D01*
X36347400Y-67562031D01*
X36319066Y-67419587D01*
X36408273Y-67419587D01*
X36492157Y-67614800D01*
X37515800Y-67614800D01*
X37515800Y-66447088D01*
X37769800Y-66447088D01*
X37769800Y-67614800D01*
X38793443Y-67614800D01*
X38877327Y-67419587D01*
X38718370Y-66960080D01*
X38395667Y-66596381D01*
X37961918Y-66386407D01*
X37769800Y-66447088D01*
X37515800Y-66447088D01*
X37323682Y-66386407D01*
X36889933Y-66596381D01*
X36567230Y-66960080D01*
X36408273Y-67419587D01*
X36319066Y-67419587D01*
X36252660Y-67085743D01*
X35982865Y-66681966D01*
X35579088Y-66412171D01*
X35102800Y-66317431D01*
X34626512Y-66412171D01*
X34222735Y-66681966D01*
X33952940Y-67085743D01*
X33858200Y-67562031D01*
X32536600Y-67562031D01*
X32536600Y-60142120D01*
X34262004Y-60142120D01*
X34164835Y-60204646D01*
M02*
