G04 #@! TF.FileFunction,Paste,Bot*
%FSLAX46Y46*%
G04 Gerber Fmt 4.6, Leading zero omitted, Abs format (unit mm)*
G04 Created by KiCad (PCBNEW 4.0.4-stable) date Wednesday, May 10, 2017 'PMt' 03:49:53 PM*
%MOMM*%
%LPD*%
G01*
G04 APERTURE LIST*
%ADD10C,0.100000*%
%ADD11R,0.800000X0.750000*%
%ADD12R,0.750000X0.800000*%
%ADD13R,0.650000X1.060000*%
%ADD14R,0.850000X0.350000*%
%ADD15R,0.350000X0.850000*%
G04 APERTURE END LIST*
D10*
D11*
X57948260Y-63581280D03*
X56448260Y-63581280D03*
X57948260Y-65166240D03*
X56448260Y-65166240D03*
X47446500Y-51663600D03*
X48946500Y-51663600D03*
X47446500Y-50101500D03*
X48946500Y-50101500D03*
X36513200Y-64719200D03*
X35013200Y-64719200D03*
D12*
X34810700Y-60883100D03*
X34810700Y-62383100D03*
D11*
X38023100Y-64719200D03*
X39523100Y-64719200D03*
D12*
X49002125Y-55397462D03*
X49002125Y-53897462D03*
X47401925Y-55397462D03*
X47401925Y-53897462D03*
X45824923Y-55388801D03*
X45824923Y-53888801D03*
X44224724Y-55401501D03*
X44224724Y-53901501D03*
D11*
X58000200Y-61861700D03*
X59500200Y-61861700D03*
D12*
X37820600Y-41566400D03*
X37820600Y-43066400D03*
X42887900Y-41604500D03*
X42887900Y-43104500D03*
X35318700Y-41579100D03*
X35318700Y-43079100D03*
X40360600Y-41579100D03*
X40360600Y-43079100D03*
X45427900Y-41604500D03*
X45427900Y-43104500D03*
D11*
X56317580Y-53781960D03*
X54817580Y-53781960D03*
X56302340Y-52212240D03*
X54802340Y-52212240D03*
D12*
X57835800Y-52539200D03*
X57835800Y-54039200D03*
X59410600Y-52539200D03*
X59410600Y-54039200D03*
X58140600Y-43104500D03*
X58140600Y-41604500D03*
X53035200Y-43104500D03*
X53035200Y-41604500D03*
X47980600Y-43104500D03*
X47980600Y-41604500D03*
X55638700Y-43104500D03*
X55638700Y-41604500D03*
X50520600Y-43104500D03*
X50520600Y-41604500D03*
D11*
X36829300Y-51676300D03*
X38329300Y-51676300D03*
X38329300Y-55448200D03*
X36829300Y-55448200D03*
X38329300Y-53263800D03*
X36829300Y-53263800D03*
X36829300Y-50114200D03*
X38329300Y-50114200D03*
D13*
X38389600Y-63088700D03*
X37439600Y-63088700D03*
X36489600Y-63088700D03*
X36489600Y-60888700D03*
X38389600Y-60888700D03*
X54841180Y-62989640D03*
X53891180Y-62989640D03*
X52941180Y-62989640D03*
X52941180Y-60789640D03*
X54841180Y-60789640D03*
D14*
X45270600Y-36946600D03*
X45270600Y-36296600D03*
X45270600Y-35646600D03*
X43070600Y-36946600D03*
X43070600Y-36296600D03*
X43070600Y-35646600D03*
D15*
X36180000Y-37041000D03*
X36830000Y-37041000D03*
X37480000Y-37041000D03*
X36180000Y-34841000D03*
X36830000Y-34841000D03*
X37480000Y-34841000D03*
D14*
X55392500Y-36781500D03*
X55392500Y-36131500D03*
X55392500Y-35481500D03*
X53192500Y-36781500D03*
X53192500Y-36131500D03*
X53192500Y-35481500D03*
M02*
