G04 #@! TF.FileFunction,Paste,Top*
%FSLAX46Y46*%
G04 Gerber Fmt 4.6, Leading zero omitted, Abs format (unit mm)*
G04 Created by KiCad (PCBNEW 4.0.4-stable) date Wednesday, May 10, 2017 'PMt' 03:49:53 PM*
%MOMM*%
%LPD*%
G01*
G04 APERTURE LIST*
%ADD10C,0.100000*%
%ADD11R,0.750000X0.800000*%
%ADD12R,0.800000X0.750000*%
%ADD13R,1.000000X2.500000*%
%ADD14R,0.900000X0.500000*%
%ADD15R,0.650000X1.060000*%
%ADD16R,0.300000X1.500000*%
%ADD17R,1.500000X0.300000*%
G04 APERTURE END LIST*
D10*
D11*
X40698420Y-61713680D03*
X40698420Y-63213680D03*
D12*
X38329300Y-58534300D03*
X36829300Y-58534300D03*
X38329300Y-56984900D03*
X36829300Y-56984900D03*
D11*
X54897020Y-57488520D03*
X54897020Y-55988520D03*
X56497220Y-57488520D03*
X56497220Y-55988520D03*
X58039000Y-45262100D03*
X58039000Y-46762100D03*
D13*
X38190300Y-54571900D03*
X35190300Y-54571900D03*
D14*
X35306000Y-42939400D03*
X35306000Y-41439400D03*
X37820600Y-42914000D03*
X37820600Y-41414000D03*
X40360600Y-42914000D03*
X40360600Y-41414000D03*
X42900600Y-42914000D03*
X42900600Y-41414000D03*
X45440600Y-42914000D03*
X45440600Y-41414000D03*
X59639200Y-45262100D03*
X59639200Y-46762100D03*
X47980600Y-42914000D03*
X47980600Y-41414000D03*
X50520600Y-42914000D03*
X50520600Y-41414000D03*
X53035200Y-42914000D03*
X53035200Y-41414000D03*
X55626000Y-42914000D03*
X55626000Y-41414000D03*
X58140600Y-42914000D03*
X58140600Y-41414000D03*
D15*
X36487060Y-63091240D03*
X37437060Y-63091240D03*
X38387060Y-63091240D03*
X38387060Y-60891240D03*
X36487060Y-60891240D03*
X37437060Y-60891240D03*
D16*
X50130400Y-47335200D03*
X49630400Y-47335200D03*
X49130400Y-47335200D03*
X48630400Y-47335200D03*
X48130400Y-47335200D03*
X47630400Y-47335200D03*
X47130400Y-47335200D03*
X46630400Y-47335200D03*
X46130400Y-47335200D03*
X45630400Y-47335200D03*
X45130400Y-47335200D03*
X44630400Y-47335200D03*
X44130400Y-47335200D03*
X43630400Y-47335200D03*
X43130400Y-47335200D03*
X42630400Y-47335200D03*
D17*
X40680400Y-49285200D03*
X40680400Y-49785200D03*
X40680400Y-50285200D03*
X40680400Y-50785200D03*
X40680400Y-51285200D03*
X40680400Y-51785200D03*
X40680400Y-52285200D03*
X40680400Y-52785200D03*
X40680400Y-53285200D03*
X40680400Y-53785200D03*
X40680400Y-54285200D03*
X40680400Y-54785200D03*
X40680400Y-55285200D03*
X40680400Y-55785200D03*
X40680400Y-56285200D03*
X40680400Y-56785200D03*
D16*
X42630400Y-58735200D03*
X43130400Y-58735200D03*
X43630400Y-58735200D03*
X44130400Y-58735200D03*
X44630400Y-58735200D03*
X45130400Y-58735200D03*
X45630400Y-58735200D03*
X46130400Y-58735200D03*
X46630400Y-58735200D03*
X47130400Y-58735200D03*
X47630400Y-58735200D03*
X48130400Y-58735200D03*
X48630400Y-58735200D03*
X49130400Y-58735200D03*
X49630400Y-58735200D03*
X50130400Y-58735200D03*
D17*
X52080400Y-56785200D03*
X52080400Y-56285200D03*
X52080400Y-55785200D03*
X52080400Y-55285200D03*
X52080400Y-54785200D03*
X52080400Y-54285200D03*
X52080400Y-53785200D03*
X52080400Y-53285200D03*
X52080400Y-52785200D03*
X52080400Y-52285200D03*
X52080400Y-51785200D03*
X52080400Y-51285200D03*
X52080400Y-50785200D03*
X52080400Y-50285200D03*
X52080400Y-49785200D03*
X52080400Y-49285200D03*
M02*
