M48
;DRILL file {KiCad 4.0.4-stable} date Wednesday, May 10, 2017 'PMt' 03:50:01 PM
;FORMAT={-:-/ absolute / metric / decimal}
FMAT,2
METRIC,TZ
T1C0.400
T2C1.016
%
G90
G05
M71
T1
X34.064Y-64.75
X34.112Y-54.585
X34.821Y-63.551
X35.306Y-44.082
X36.507Y-59.817
X36.551Y-41.58
X37.442Y-62.062
X37.833Y-43.993
X38.379Y-37.033
X39.091Y-41.58
X39.22Y-62.448
X39.256Y-52.591
X39.268Y-58.547
X39.357Y-56.921
X39.37Y-53.784
X39.383Y-50.787
X39.398Y-55.789
X39.408Y-51.778
X39.53Y-65.796
X39.611Y-61.712
X39.972Y-60.935
X40.361Y-44.018
X41.656Y-41.58
X41.821Y-50.279
X41.933Y-56.276
X41.961Y-52.273
X41.974Y-51.27
X41.986Y-53.289
X41.994Y-58.745
X42.901Y-44.069
X43.635Y-60.569
X44.171Y-41.618
X44.214Y-56.327
X44.224Y-53.015
X45.441Y-44.107
X45.829Y-52.969
X45.834Y-56.307
X46.279Y-35.649
X46.495Y-50.104
X46.515Y-51.659
X46.723Y-41.605
X47.404Y-52.989
X47.414Y-56.307
X47.968Y-44.069
X48.989Y-56.312
X49.004Y-53.005
X49.238Y-41.618
X50.521Y-44.069
X50.808Y-52.786
X50.829Y-56.285
X50.833Y-60.665
X50.838Y-54.265
X50.935Y-51.796
X51.791Y-41.631
X53.048Y-44.044
X53.236Y-52.288
X53.266Y-51.288
X53.282Y-55.789
X53.282Y-56.784
X53.317Y-54.783
X53.82Y-52.893
X53.891Y-53.767
X53.891Y-64.023
X54.343Y-41.618
X54.851Y-58.786
X54.953Y-61.89
X55.397Y-34.849
X55.626Y-44.094
X56.871Y-41.618
X57.836Y-55.245
X58.141Y-44.107
X59.423Y-55.22
X59.499Y-41.618
X59.499Y-60.731
X59.499Y-63.005
T2
X35.103Y-67.742
X35.281Y-39.294
X37.643Y-67.742
X37.821Y-39.294
X40.183Y-67.742
X40.361Y-39.294
X42.723Y-67.742
X42.901Y-39.294
X45.263Y-67.742
X45.441Y-39.294
X47.803Y-67.742
X47.981Y-39.294
X50.343Y-67.742
X50.521Y-39.294
X52.883Y-67.742
X53.061Y-39.294
X55.423Y-67.742
X55.601Y-39.294
X57.963Y-67.742
X58.141Y-39.294
T0
M30
