G04 #@! TF.FileFunction,Legend,Bot*
%FSLAX46Y46*%
G04 Gerber Fmt 4.6, Leading zero omitted, Abs format (unit mm)*
G04 Created by KiCad (PCBNEW 4.0.4-stable) date Wednesday, May 10, 2017 'PMt' 03:49:53 PM*
%MOMM*%
%LPD*%
G01*
G04 APERTURE LIST*
%ADD10C,0.100000*%
%ADD11C,0.300000*%
%ADD12C,0.150000*%
%ADD13C,0.120000*%
%ADD14C,0.080000*%
G04 APERTURE END LIST*
D10*
D11*
X51361539Y-48049571D02*
X51861539Y-47335286D01*
X52218682Y-48049571D02*
X52218682Y-46549571D01*
X51647254Y-46549571D01*
X51504396Y-46621000D01*
X51432968Y-46692429D01*
X51361539Y-46835286D01*
X51361539Y-47049571D01*
X51432968Y-47192429D01*
X51504396Y-47263857D01*
X51647254Y-47335286D01*
X52218682Y-47335286D01*
X50147254Y-47978143D02*
X50290111Y-48049571D01*
X50575825Y-48049571D01*
X50718682Y-47978143D01*
X50790111Y-47835286D01*
X50790111Y-47263857D01*
X50718682Y-47121000D01*
X50575825Y-47049571D01*
X50290111Y-47049571D01*
X50147254Y-47121000D01*
X50075825Y-47263857D01*
X50075825Y-47406714D01*
X50790111Y-47549571D01*
X49575825Y-47049571D02*
X49218682Y-48049571D01*
X48861540Y-47049571D01*
X47290111Y-47049571D02*
X46932968Y-48049571D01*
X46575826Y-47049571D01*
X45718683Y-46549571D02*
X45575826Y-46549571D01*
X45432969Y-46621000D01*
X45361540Y-46692429D01*
X45290111Y-46835286D01*
X45218683Y-47121000D01*
X45218683Y-47478143D01*
X45290111Y-47763857D01*
X45361540Y-47906714D01*
X45432969Y-47978143D01*
X45575826Y-48049571D01*
X45718683Y-48049571D01*
X45861540Y-47978143D01*
X45932969Y-47906714D01*
X46004397Y-47763857D01*
X46075826Y-47478143D01*
X46075826Y-47121000D01*
X46004397Y-46835286D01*
X45932969Y-46692429D01*
X45861540Y-46621000D01*
X45718683Y-46549571D01*
X44575826Y-47906714D02*
X44504398Y-47978143D01*
X44575826Y-48049571D01*
X44647255Y-47978143D01*
X44575826Y-47906714D01*
X44575826Y-48049571D01*
X43075826Y-48049571D02*
X43932969Y-48049571D01*
X43504397Y-48049571D02*
X43504397Y-46549571D01*
X43647254Y-46763857D01*
X43790112Y-46906714D01*
X43932969Y-46978143D01*
X42432969Y-47906714D02*
X42361541Y-47978143D01*
X42432969Y-48049571D01*
X42504398Y-47978143D01*
X42432969Y-47906714D01*
X42432969Y-48049571D01*
X41432969Y-46549571D02*
X41290112Y-46549571D01*
X41147255Y-46621000D01*
X41075826Y-46692429D01*
X41004397Y-46835286D01*
X40932969Y-47121000D01*
X40932969Y-47478143D01*
X41004397Y-47763857D01*
X41075826Y-47906714D01*
X41147255Y-47978143D01*
X41290112Y-48049571D01*
X41432969Y-48049571D01*
X41575826Y-47978143D01*
X41647255Y-47906714D01*
X41718683Y-47763857D01*
X41790112Y-47478143D01*
X41790112Y-47121000D01*
X41718683Y-46835286D01*
X41647255Y-46692429D01*
X41575826Y-46621000D01*
X41432969Y-46549571D01*
D12*
X57548260Y-62981280D02*
X56848260Y-62981280D01*
X56848260Y-64181280D02*
X57548260Y-64181280D01*
X57548260Y-64566240D02*
X56848260Y-64566240D01*
X56848260Y-65766240D02*
X57548260Y-65766240D01*
X47846500Y-52263600D02*
X48546500Y-52263600D01*
X48546500Y-51063600D02*
X47846500Y-51063600D01*
X47846500Y-50701500D02*
X48546500Y-50701500D01*
X48546500Y-49501500D02*
X47846500Y-49501500D01*
X36113200Y-64119200D02*
X35413200Y-64119200D01*
X35413200Y-65319200D02*
X36113200Y-65319200D01*
X34210700Y-61283100D02*
X34210700Y-61983100D01*
X35410700Y-61983100D02*
X35410700Y-61283100D01*
X38423100Y-65319200D02*
X39123100Y-65319200D01*
X39123100Y-64119200D02*
X38423100Y-64119200D01*
X49602125Y-54997462D02*
X49602125Y-54297462D01*
X48402125Y-54297462D02*
X48402125Y-54997462D01*
X48001925Y-54997462D02*
X48001925Y-54297462D01*
X46801925Y-54297462D02*
X46801925Y-54997462D01*
X46424923Y-54988801D02*
X46424923Y-54288801D01*
X45224923Y-54288801D02*
X45224923Y-54988801D01*
X44824724Y-55001501D02*
X44824724Y-54301501D01*
X43624724Y-54301501D02*
X43624724Y-55001501D01*
X58400200Y-62461700D02*
X59100200Y-62461700D01*
X59100200Y-61261700D02*
X58400200Y-61261700D01*
X37220600Y-41966400D02*
X37220600Y-42666400D01*
X38420600Y-42666400D02*
X38420600Y-41966400D01*
X42287900Y-42004500D02*
X42287900Y-42704500D01*
X43487900Y-42704500D02*
X43487900Y-42004500D01*
X34718700Y-41979100D02*
X34718700Y-42679100D01*
X35918700Y-42679100D02*
X35918700Y-41979100D01*
X39760600Y-41979100D02*
X39760600Y-42679100D01*
X40960600Y-42679100D02*
X40960600Y-41979100D01*
X44827900Y-42004500D02*
X44827900Y-42704500D01*
X46027900Y-42704500D02*
X46027900Y-42004500D01*
X55917580Y-53181960D02*
X55217580Y-53181960D01*
X55217580Y-54381960D02*
X55917580Y-54381960D01*
X55902340Y-51612240D02*
X55202340Y-51612240D01*
X55202340Y-52812240D02*
X55902340Y-52812240D01*
X57235800Y-52939200D02*
X57235800Y-53639200D01*
X58435800Y-53639200D02*
X58435800Y-52939200D01*
X58810600Y-52939200D02*
X58810600Y-53639200D01*
X60010600Y-53639200D02*
X60010600Y-52939200D01*
X58740600Y-42704500D02*
X58740600Y-42004500D01*
X57540600Y-42004500D02*
X57540600Y-42704500D01*
X53635200Y-42704500D02*
X53635200Y-42004500D01*
X52435200Y-42004500D02*
X52435200Y-42704500D01*
X48580600Y-42704500D02*
X48580600Y-42004500D01*
X47380600Y-42004500D02*
X47380600Y-42704500D01*
X56238700Y-42704500D02*
X56238700Y-42004500D01*
X55038700Y-42004500D02*
X55038700Y-42704500D01*
X51120600Y-42704500D02*
X51120600Y-42004500D01*
X49920600Y-42004500D02*
X49920600Y-42704500D01*
X37229300Y-52276300D02*
X37929300Y-52276300D01*
X37929300Y-51076300D02*
X37229300Y-51076300D01*
X37929300Y-54848200D02*
X37229300Y-54848200D01*
X37229300Y-56048200D02*
X37929300Y-56048200D01*
X37929300Y-52663800D02*
X37229300Y-52663800D01*
X37229300Y-53863800D02*
X37929300Y-53863800D01*
X37229300Y-50714200D02*
X37929300Y-50714200D01*
X37929300Y-49514200D02*
X37229300Y-49514200D01*
D13*
X35829600Y-62888700D02*
X35829600Y-61088700D01*
X39049600Y-61088700D02*
X39049600Y-63538700D01*
X52281180Y-62789640D02*
X52281180Y-60989640D01*
X55501180Y-60989640D02*
X55501180Y-63439640D01*
D14*
X59237393Y-63759851D02*
X59261203Y-63783661D01*
X59332631Y-63807470D01*
X59380250Y-63807470D01*
X59451679Y-63783661D01*
X59499298Y-63736042D01*
X59523107Y-63688423D01*
X59546917Y-63593185D01*
X59546917Y-63521756D01*
X59523107Y-63426518D01*
X59499298Y-63378899D01*
X59451679Y-63331280D01*
X59380250Y-63307470D01*
X59332631Y-63307470D01*
X59261203Y-63331280D01*
X59237393Y-63355090D01*
X59046917Y-63355090D02*
X59023107Y-63331280D01*
X58975488Y-63307470D01*
X58856441Y-63307470D01*
X58808822Y-63331280D01*
X58785012Y-63355090D01*
X58761203Y-63402709D01*
X58761203Y-63450328D01*
X58785012Y-63521756D01*
X59070726Y-63807470D01*
X58761203Y-63807470D01*
X59288193Y-65370211D02*
X59312003Y-65394021D01*
X59383431Y-65417830D01*
X59431050Y-65417830D01*
X59502479Y-65394021D01*
X59550098Y-65346402D01*
X59573907Y-65298783D01*
X59597717Y-65203545D01*
X59597717Y-65132116D01*
X59573907Y-65036878D01*
X59550098Y-64989259D01*
X59502479Y-64941640D01*
X59431050Y-64917830D01*
X59383431Y-64917830D01*
X59312003Y-64941640D01*
X59288193Y-64965450D01*
X59121526Y-64917830D02*
X58812003Y-64917830D01*
X58978669Y-65108307D01*
X58907241Y-65108307D01*
X58859622Y-65132116D01*
X58835812Y-65155926D01*
X58812003Y-65203545D01*
X58812003Y-65322592D01*
X58835812Y-65370211D01*
X58859622Y-65394021D01*
X58907241Y-65417830D01*
X59050098Y-65417830D01*
X59097717Y-65394021D01*
X59121526Y-65370211D01*
X46558971Y-51580267D02*
X46582781Y-51556457D01*
X46606590Y-51485029D01*
X46606590Y-51437410D01*
X46582781Y-51365981D01*
X46535162Y-51318362D01*
X46487543Y-51294553D01*
X46392305Y-51270743D01*
X46320876Y-51270743D01*
X46225638Y-51294553D01*
X46178019Y-51318362D01*
X46130400Y-51365981D01*
X46106590Y-51437410D01*
X46106590Y-51485029D01*
X46130400Y-51556457D01*
X46154210Y-51580267D01*
X46273257Y-52008838D02*
X46606590Y-52008838D01*
X46082781Y-51889791D02*
X46439924Y-51770743D01*
X46439924Y-52080267D01*
X46597071Y-50005467D02*
X46620881Y-49981657D01*
X46644690Y-49910229D01*
X46644690Y-49862610D01*
X46620881Y-49791181D01*
X46573262Y-49743562D01*
X46525643Y-49719753D01*
X46430405Y-49695943D01*
X46358976Y-49695943D01*
X46263738Y-49719753D01*
X46216119Y-49743562D01*
X46168500Y-49791181D01*
X46144690Y-49862610D01*
X46144690Y-49910229D01*
X46168500Y-49981657D01*
X46192310Y-50005467D01*
X46144690Y-50457848D02*
X46144690Y-50219753D01*
X46382786Y-50195943D01*
X46358976Y-50219753D01*
X46335167Y-50267372D01*
X46335167Y-50386419D01*
X46358976Y-50434038D01*
X46382786Y-50457848D01*
X46430405Y-50481657D01*
X46549452Y-50481657D01*
X46597071Y-50457848D01*
X46620881Y-50434038D01*
X46644690Y-50386419D01*
X46644690Y-50267372D01*
X46620881Y-50219753D01*
X46597071Y-50195943D01*
X34138371Y-64610467D02*
X34162181Y-64586657D01*
X34185990Y-64515229D01*
X34185990Y-64467610D01*
X34162181Y-64396181D01*
X34114562Y-64348562D01*
X34066943Y-64324753D01*
X33971705Y-64300943D01*
X33900276Y-64300943D01*
X33805038Y-64324753D01*
X33757419Y-64348562D01*
X33709800Y-64396181D01*
X33685990Y-64467610D01*
X33685990Y-64515229D01*
X33709800Y-64586657D01*
X33733610Y-64610467D01*
X33900276Y-64896181D02*
X33876467Y-64848562D01*
X33852657Y-64824753D01*
X33805038Y-64800943D01*
X33781229Y-64800943D01*
X33733610Y-64824753D01*
X33709800Y-64848562D01*
X33685990Y-64896181D01*
X33685990Y-64991419D01*
X33709800Y-65039038D01*
X33733610Y-65062848D01*
X33781229Y-65086657D01*
X33805038Y-65086657D01*
X33852657Y-65062848D01*
X33876467Y-65039038D01*
X33900276Y-64991419D01*
X33900276Y-64896181D01*
X33924086Y-64848562D01*
X33947895Y-64824753D01*
X33995514Y-64800943D01*
X34090752Y-64800943D01*
X34138371Y-64824753D01*
X34162181Y-64848562D01*
X34185990Y-64896181D01*
X34185990Y-64991419D01*
X34162181Y-65039038D01*
X34138371Y-65062848D01*
X34090752Y-65086657D01*
X33995514Y-65086657D01*
X33947895Y-65062848D01*
X33924086Y-65039038D01*
X33900276Y-64991419D01*
D12*
X33267843Y-61466434D02*
X33315462Y-61418815D01*
X33363081Y-61275958D01*
X33363081Y-61180720D01*
X33315462Y-61037862D01*
X33220224Y-60942624D01*
X33124986Y-60895005D01*
X32934510Y-60847386D01*
X32791652Y-60847386D01*
X32601176Y-60895005D01*
X32505938Y-60942624D01*
X32410700Y-61037862D01*
X32363081Y-61180720D01*
X32363081Y-61275958D01*
X32410700Y-61418815D01*
X32458319Y-61466434D01*
X33363081Y-61942624D02*
X33363081Y-62133100D01*
X33315462Y-62228339D01*
X33267843Y-62275958D01*
X33124986Y-62371196D01*
X32934510Y-62418815D01*
X32553557Y-62418815D01*
X32458319Y-62371196D01*
X32410700Y-62323577D01*
X32363081Y-62228339D01*
X32363081Y-62037862D01*
X32410700Y-61942624D01*
X32458319Y-61895005D01*
X32553557Y-61847386D01*
X32791652Y-61847386D01*
X32886890Y-61895005D01*
X32934510Y-61942624D01*
X32982129Y-62037862D01*
X32982129Y-62228339D01*
X32934510Y-62323577D01*
X32886890Y-62371196D01*
X32791652Y-62418815D01*
D14*
X40805871Y-64397772D02*
X40829681Y-64373962D01*
X40853490Y-64302534D01*
X40853490Y-64254915D01*
X40829681Y-64183486D01*
X40782062Y-64135867D01*
X40734443Y-64112058D01*
X40639205Y-64088248D01*
X40567776Y-64088248D01*
X40472538Y-64112058D01*
X40424919Y-64135867D01*
X40377300Y-64183486D01*
X40353490Y-64254915D01*
X40353490Y-64302534D01*
X40377300Y-64373962D01*
X40401110Y-64397772D01*
X40853490Y-64873962D02*
X40853490Y-64588248D01*
X40853490Y-64731105D02*
X40353490Y-64731105D01*
X40424919Y-64683486D01*
X40472538Y-64635867D01*
X40496348Y-64588248D01*
X40353490Y-65183486D02*
X40353490Y-65231105D01*
X40377300Y-65278724D01*
X40401110Y-65302533D01*
X40448729Y-65326343D01*
X40543967Y-65350152D01*
X40663014Y-65350152D01*
X40758252Y-65326343D01*
X40805871Y-65302533D01*
X40829681Y-65278724D01*
X40853490Y-65231105D01*
X40853490Y-65183486D01*
X40829681Y-65135867D01*
X40805871Y-65112057D01*
X40758252Y-65088248D01*
X40663014Y-65064438D01*
X40543967Y-65064438D01*
X40448729Y-65088248D01*
X40401110Y-65112057D01*
X40377300Y-65135867D01*
X40353490Y-65183486D01*
X49323553Y-56654833D02*
X49347363Y-56678643D01*
X49418791Y-56702452D01*
X49466410Y-56702452D01*
X49537839Y-56678643D01*
X49585458Y-56631024D01*
X49609267Y-56583405D01*
X49633077Y-56488167D01*
X49633077Y-56416738D01*
X49609267Y-56321500D01*
X49585458Y-56273881D01*
X49537839Y-56226262D01*
X49466410Y-56202452D01*
X49418791Y-56202452D01*
X49347363Y-56226262D01*
X49323553Y-56250072D01*
X48847363Y-56702452D02*
X49133077Y-56702452D01*
X48990220Y-56702452D02*
X48990220Y-56202452D01*
X49037839Y-56273881D01*
X49085458Y-56321500D01*
X49133077Y-56345310D01*
X48371173Y-56702452D02*
X48656887Y-56702452D01*
X48514030Y-56702452D02*
X48514030Y-56202452D01*
X48561649Y-56273881D01*
X48609268Y-56321500D01*
X48656887Y-56345310D01*
X47723353Y-56654833D02*
X47747163Y-56678643D01*
X47818591Y-56702452D01*
X47866210Y-56702452D01*
X47937639Y-56678643D01*
X47985258Y-56631024D01*
X48009067Y-56583405D01*
X48032877Y-56488167D01*
X48032877Y-56416738D01*
X48009067Y-56321500D01*
X47985258Y-56273881D01*
X47937639Y-56226262D01*
X47866210Y-56202452D01*
X47818591Y-56202452D01*
X47747163Y-56226262D01*
X47723353Y-56250072D01*
X47247163Y-56702452D02*
X47532877Y-56702452D01*
X47390020Y-56702452D02*
X47390020Y-56202452D01*
X47437639Y-56273881D01*
X47485258Y-56321500D01*
X47532877Y-56345310D01*
X47056687Y-56250072D02*
X47032877Y-56226262D01*
X46985258Y-56202452D01*
X46866211Y-56202452D01*
X46818592Y-56226262D01*
X46794782Y-56250072D01*
X46770973Y-56297691D01*
X46770973Y-56345310D01*
X46794782Y-56416738D01*
X47080496Y-56702452D01*
X46770973Y-56702452D01*
X46146351Y-56658872D02*
X46170161Y-56682682D01*
X46241589Y-56706491D01*
X46289208Y-56706491D01*
X46360637Y-56682682D01*
X46408256Y-56635063D01*
X46432065Y-56587444D01*
X46455875Y-56492206D01*
X46455875Y-56420777D01*
X46432065Y-56325539D01*
X46408256Y-56277920D01*
X46360637Y-56230301D01*
X46289208Y-56206491D01*
X46241589Y-56206491D01*
X46170161Y-56230301D01*
X46146351Y-56254111D01*
X45670161Y-56706491D02*
X45955875Y-56706491D01*
X45813018Y-56706491D02*
X45813018Y-56206491D01*
X45860637Y-56277920D01*
X45908256Y-56325539D01*
X45955875Y-56349349D01*
X45503494Y-56206491D02*
X45193971Y-56206491D01*
X45360637Y-56396968D01*
X45289209Y-56396968D01*
X45241590Y-56420777D01*
X45217780Y-56444587D01*
X45193971Y-56492206D01*
X45193971Y-56611253D01*
X45217780Y-56658872D01*
X45241590Y-56682682D01*
X45289209Y-56706491D01*
X45432066Y-56706491D01*
X45479685Y-56682682D01*
X45503494Y-56658872D01*
X44520752Y-56633472D02*
X44544562Y-56657282D01*
X44615990Y-56681091D01*
X44663609Y-56681091D01*
X44735038Y-56657282D01*
X44782657Y-56609663D01*
X44806466Y-56562044D01*
X44830276Y-56466806D01*
X44830276Y-56395377D01*
X44806466Y-56300139D01*
X44782657Y-56252520D01*
X44735038Y-56204901D01*
X44663609Y-56181091D01*
X44615990Y-56181091D01*
X44544562Y-56204901D01*
X44520752Y-56228711D01*
X44044562Y-56681091D02*
X44330276Y-56681091D01*
X44187419Y-56681091D02*
X44187419Y-56181091D01*
X44235038Y-56252520D01*
X44282657Y-56300139D01*
X44330276Y-56323949D01*
X43615991Y-56347758D02*
X43615991Y-56681091D01*
X43735038Y-56157282D02*
X43854086Y-56514425D01*
X43544562Y-56514425D01*
X59071628Y-63259471D02*
X59095438Y-63283281D01*
X59166866Y-63307090D01*
X59214485Y-63307090D01*
X59285914Y-63283281D01*
X59333533Y-63235662D01*
X59357342Y-63188043D01*
X59381152Y-63092805D01*
X59381152Y-63021376D01*
X59357342Y-62926138D01*
X59333533Y-62878519D01*
X59285914Y-62830900D01*
X59214485Y-62807090D01*
X59166866Y-62807090D01*
X59095438Y-62830900D01*
X59071628Y-62854710D01*
X58595438Y-63307090D02*
X58881152Y-63307090D01*
X58738295Y-63307090D02*
X58738295Y-62807090D01*
X58785914Y-62878519D01*
X58833533Y-62926138D01*
X58881152Y-62949948D01*
X58143057Y-62807090D02*
X58381152Y-62807090D01*
X58404962Y-63045186D01*
X58381152Y-63021376D01*
X58333533Y-62997567D01*
X58214486Y-62997567D01*
X58166867Y-63021376D01*
X58143057Y-63045186D01*
X58119248Y-63092805D01*
X58119248Y-63211852D01*
X58143057Y-63259471D01*
X58166867Y-63283281D01*
X58214486Y-63307090D01*
X58333533Y-63307090D01*
X58381152Y-63283281D01*
X58404962Y-63259471D01*
X36805371Y-41994972D02*
X36829181Y-41971162D01*
X36852990Y-41899734D01*
X36852990Y-41852115D01*
X36829181Y-41780686D01*
X36781562Y-41733067D01*
X36733943Y-41709258D01*
X36638705Y-41685448D01*
X36567276Y-41685448D01*
X36472038Y-41709258D01*
X36424419Y-41733067D01*
X36376800Y-41780686D01*
X36352990Y-41852115D01*
X36352990Y-41899734D01*
X36376800Y-41971162D01*
X36400610Y-41994972D01*
X36852990Y-42471162D02*
X36852990Y-42185448D01*
X36852990Y-42328305D02*
X36352990Y-42328305D01*
X36424419Y-42280686D01*
X36472038Y-42233067D01*
X36495848Y-42185448D01*
X36567276Y-42756876D02*
X36543467Y-42709257D01*
X36519657Y-42685448D01*
X36472038Y-42661638D01*
X36448229Y-42661638D01*
X36400610Y-42685448D01*
X36376800Y-42709257D01*
X36352990Y-42756876D01*
X36352990Y-42852114D01*
X36376800Y-42899733D01*
X36400610Y-42923543D01*
X36448229Y-42947352D01*
X36472038Y-42947352D01*
X36519657Y-42923543D01*
X36543467Y-42899733D01*
X36567276Y-42852114D01*
X36567276Y-42756876D01*
X36591086Y-42709257D01*
X36614895Y-42685448D01*
X36662514Y-42661638D01*
X36757752Y-42661638D01*
X36805371Y-42685448D01*
X36829181Y-42709257D01*
X36852990Y-42756876D01*
X36852990Y-42852114D01*
X36829181Y-42899733D01*
X36805371Y-42923543D01*
X36757752Y-42947352D01*
X36662514Y-42947352D01*
X36614895Y-42923543D01*
X36591086Y-42899733D01*
X36567276Y-42852114D01*
X41872671Y-42007672D02*
X41896481Y-41983862D01*
X41920290Y-41912434D01*
X41920290Y-41864815D01*
X41896481Y-41793386D01*
X41848862Y-41745767D01*
X41801243Y-41721958D01*
X41706005Y-41698148D01*
X41634576Y-41698148D01*
X41539338Y-41721958D01*
X41491719Y-41745767D01*
X41444100Y-41793386D01*
X41420290Y-41864815D01*
X41420290Y-41912434D01*
X41444100Y-41983862D01*
X41467910Y-42007672D01*
X41920290Y-42483862D02*
X41920290Y-42198148D01*
X41920290Y-42341005D02*
X41420290Y-42341005D01*
X41491719Y-42293386D01*
X41539338Y-42245767D01*
X41563148Y-42198148D01*
X41920290Y-42721957D02*
X41920290Y-42817195D01*
X41896481Y-42864814D01*
X41872671Y-42888624D01*
X41801243Y-42936243D01*
X41706005Y-42960052D01*
X41515529Y-42960052D01*
X41467910Y-42936243D01*
X41444100Y-42912433D01*
X41420290Y-42864814D01*
X41420290Y-42769576D01*
X41444100Y-42721957D01*
X41467910Y-42698148D01*
X41515529Y-42674338D01*
X41634576Y-42674338D01*
X41682195Y-42698148D01*
X41706005Y-42721957D01*
X41729814Y-42769576D01*
X41729814Y-42864814D01*
X41706005Y-42912433D01*
X41682195Y-42936243D01*
X41634576Y-42960052D01*
X34328871Y-42007672D02*
X34352681Y-41983862D01*
X34376490Y-41912434D01*
X34376490Y-41864815D01*
X34352681Y-41793386D01*
X34305062Y-41745767D01*
X34257443Y-41721958D01*
X34162205Y-41698148D01*
X34090776Y-41698148D01*
X33995538Y-41721958D01*
X33947919Y-41745767D01*
X33900300Y-41793386D01*
X33876490Y-41864815D01*
X33876490Y-41912434D01*
X33900300Y-41983862D01*
X33924110Y-42007672D01*
X33924110Y-42198148D02*
X33900300Y-42221958D01*
X33876490Y-42269577D01*
X33876490Y-42388624D01*
X33900300Y-42436243D01*
X33924110Y-42460053D01*
X33971729Y-42483862D01*
X34019348Y-42483862D01*
X34090776Y-42460053D01*
X34376490Y-42174339D01*
X34376490Y-42483862D01*
X33876490Y-42793386D02*
X33876490Y-42841005D01*
X33900300Y-42888624D01*
X33924110Y-42912433D01*
X33971729Y-42936243D01*
X34066967Y-42960052D01*
X34186014Y-42960052D01*
X34281252Y-42936243D01*
X34328871Y-42912433D01*
X34352681Y-42888624D01*
X34376490Y-42841005D01*
X34376490Y-42793386D01*
X34352681Y-42745767D01*
X34328871Y-42721957D01*
X34281252Y-42698148D01*
X34186014Y-42674338D01*
X34066967Y-42674338D01*
X33971729Y-42698148D01*
X33924110Y-42721957D01*
X33900300Y-42745767D01*
X33876490Y-42793386D01*
X39370771Y-42007672D02*
X39394581Y-41983862D01*
X39418390Y-41912434D01*
X39418390Y-41864815D01*
X39394581Y-41793386D01*
X39346962Y-41745767D01*
X39299343Y-41721958D01*
X39204105Y-41698148D01*
X39132676Y-41698148D01*
X39037438Y-41721958D01*
X38989819Y-41745767D01*
X38942200Y-41793386D01*
X38918390Y-41864815D01*
X38918390Y-41912434D01*
X38942200Y-41983862D01*
X38966010Y-42007672D01*
X38966010Y-42198148D02*
X38942200Y-42221958D01*
X38918390Y-42269577D01*
X38918390Y-42388624D01*
X38942200Y-42436243D01*
X38966010Y-42460053D01*
X39013629Y-42483862D01*
X39061248Y-42483862D01*
X39132676Y-42460053D01*
X39418390Y-42174339D01*
X39418390Y-42483862D01*
X39418390Y-42960052D02*
X39418390Y-42674338D01*
X39418390Y-42817195D02*
X38918390Y-42817195D01*
X38989819Y-42769576D01*
X39037438Y-42721957D01*
X39061248Y-42674338D01*
X44438071Y-42033072D02*
X44461881Y-42009262D01*
X44485690Y-41937834D01*
X44485690Y-41890215D01*
X44461881Y-41818786D01*
X44414262Y-41771167D01*
X44366643Y-41747358D01*
X44271405Y-41723548D01*
X44199976Y-41723548D01*
X44104738Y-41747358D01*
X44057119Y-41771167D01*
X44009500Y-41818786D01*
X43985690Y-41890215D01*
X43985690Y-41937834D01*
X44009500Y-42009262D01*
X44033310Y-42033072D01*
X44033310Y-42223548D02*
X44009500Y-42247358D01*
X43985690Y-42294977D01*
X43985690Y-42414024D01*
X44009500Y-42461643D01*
X44033310Y-42485453D01*
X44080929Y-42509262D01*
X44128548Y-42509262D01*
X44199976Y-42485453D01*
X44485690Y-42199739D01*
X44485690Y-42509262D01*
X44033310Y-42699738D02*
X44009500Y-42723548D01*
X43985690Y-42771167D01*
X43985690Y-42890214D01*
X44009500Y-42937833D01*
X44033310Y-42961643D01*
X44080929Y-42985452D01*
X44128548Y-42985452D01*
X44199976Y-42961643D01*
X44485690Y-42675929D01*
X44485690Y-42985452D01*
X57600351Y-53422432D02*
X57624161Y-53398622D01*
X57647970Y-53327194D01*
X57647970Y-53279575D01*
X57624161Y-53208146D01*
X57576542Y-53160527D01*
X57528923Y-53136718D01*
X57433685Y-53112908D01*
X57362256Y-53112908D01*
X57267018Y-53136718D01*
X57219399Y-53160527D01*
X57171780Y-53208146D01*
X57147970Y-53279575D01*
X57147970Y-53327194D01*
X57171780Y-53398622D01*
X57195590Y-53422432D01*
X57195590Y-53612908D02*
X57171780Y-53636718D01*
X57147970Y-53684337D01*
X57147970Y-53803384D01*
X57171780Y-53851003D01*
X57195590Y-53874813D01*
X57243209Y-53898622D01*
X57290828Y-53898622D01*
X57362256Y-53874813D01*
X57647970Y-53589099D01*
X57647970Y-53898622D01*
X57147970Y-54065289D02*
X57147970Y-54374812D01*
X57338447Y-54208146D01*
X57338447Y-54279574D01*
X57362256Y-54327193D01*
X57386066Y-54351003D01*
X57433685Y-54374812D01*
X57552732Y-54374812D01*
X57600351Y-54351003D01*
X57624161Y-54327193D01*
X57647970Y-54279574D01*
X57647970Y-54136717D01*
X57624161Y-54089098D01*
X57600351Y-54065289D01*
X57610511Y-51928912D02*
X57634321Y-51905102D01*
X57658130Y-51833674D01*
X57658130Y-51786055D01*
X57634321Y-51714626D01*
X57586702Y-51667007D01*
X57539083Y-51643198D01*
X57443845Y-51619388D01*
X57372416Y-51619388D01*
X57277178Y-51643198D01*
X57229559Y-51667007D01*
X57181940Y-51714626D01*
X57158130Y-51786055D01*
X57158130Y-51833674D01*
X57181940Y-51905102D01*
X57205750Y-51928912D01*
X57205750Y-52119388D02*
X57181940Y-52143198D01*
X57158130Y-52190817D01*
X57158130Y-52309864D01*
X57181940Y-52357483D01*
X57205750Y-52381293D01*
X57253369Y-52405102D01*
X57300988Y-52405102D01*
X57372416Y-52381293D01*
X57658130Y-52095579D01*
X57658130Y-52405102D01*
X57324797Y-52833673D02*
X57658130Y-52833673D01*
X57134321Y-52714626D02*
X57491464Y-52595578D01*
X57491464Y-52905102D01*
X58144528Y-55321971D02*
X58168338Y-55345781D01*
X58239766Y-55369590D01*
X58287385Y-55369590D01*
X58358814Y-55345781D01*
X58406433Y-55298162D01*
X58430242Y-55250543D01*
X58454052Y-55155305D01*
X58454052Y-55083876D01*
X58430242Y-54988638D01*
X58406433Y-54941019D01*
X58358814Y-54893400D01*
X58287385Y-54869590D01*
X58239766Y-54869590D01*
X58168338Y-54893400D01*
X58144528Y-54917210D01*
X57954052Y-54917210D02*
X57930242Y-54893400D01*
X57882623Y-54869590D01*
X57763576Y-54869590D01*
X57715957Y-54893400D01*
X57692147Y-54917210D01*
X57668338Y-54964829D01*
X57668338Y-55012448D01*
X57692147Y-55083876D01*
X57977861Y-55369590D01*
X57668338Y-55369590D01*
X57239767Y-54869590D02*
X57335005Y-54869590D01*
X57382624Y-54893400D01*
X57406433Y-54917210D01*
X57454052Y-54988638D01*
X57477862Y-55083876D01*
X57477862Y-55274352D01*
X57454052Y-55321971D01*
X57430243Y-55345781D01*
X57382624Y-55369590D01*
X57287386Y-55369590D01*
X57239767Y-55345781D01*
X57215957Y-55321971D01*
X57192148Y-55274352D01*
X57192148Y-55155305D01*
X57215957Y-55107686D01*
X57239767Y-55083876D01*
X57287386Y-55060067D01*
X57382624Y-55060067D01*
X57430243Y-55083876D01*
X57454052Y-55107686D01*
X57477862Y-55155305D01*
X59757428Y-55372771D02*
X59781238Y-55396581D01*
X59852666Y-55420390D01*
X59900285Y-55420390D01*
X59971714Y-55396581D01*
X60019333Y-55348962D01*
X60043142Y-55301343D01*
X60066952Y-55206105D01*
X60066952Y-55134676D01*
X60043142Y-55039438D01*
X60019333Y-54991819D01*
X59971714Y-54944200D01*
X59900285Y-54920390D01*
X59852666Y-54920390D01*
X59781238Y-54944200D01*
X59757428Y-54968010D01*
X59566952Y-54968010D02*
X59543142Y-54944200D01*
X59495523Y-54920390D01*
X59376476Y-54920390D01*
X59328857Y-54944200D01*
X59305047Y-54968010D01*
X59281238Y-55015629D01*
X59281238Y-55063248D01*
X59305047Y-55134676D01*
X59590761Y-55420390D01*
X59281238Y-55420390D01*
X59114571Y-54920390D02*
X58781238Y-54920390D01*
X58995524Y-55420390D01*
X57176171Y-42033072D02*
X57199981Y-42009262D01*
X57223790Y-41937834D01*
X57223790Y-41890215D01*
X57199981Y-41818786D01*
X57152362Y-41771167D01*
X57104743Y-41747358D01*
X57009505Y-41723548D01*
X56938076Y-41723548D01*
X56842838Y-41747358D01*
X56795219Y-41771167D01*
X56747600Y-41818786D01*
X56723790Y-41890215D01*
X56723790Y-41937834D01*
X56747600Y-42009262D01*
X56771410Y-42033072D01*
X56771410Y-42223548D02*
X56747600Y-42247358D01*
X56723790Y-42294977D01*
X56723790Y-42414024D01*
X56747600Y-42461643D01*
X56771410Y-42485453D01*
X56819029Y-42509262D01*
X56866648Y-42509262D01*
X56938076Y-42485453D01*
X57223790Y-42199739D01*
X57223790Y-42509262D01*
X56938076Y-42794976D02*
X56914267Y-42747357D01*
X56890457Y-42723548D01*
X56842838Y-42699738D01*
X56819029Y-42699738D01*
X56771410Y-42723548D01*
X56747600Y-42747357D01*
X56723790Y-42794976D01*
X56723790Y-42890214D01*
X56747600Y-42937833D01*
X56771410Y-42961643D01*
X56819029Y-42985452D01*
X56842838Y-42985452D01*
X56890457Y-42961643D01*
X56914267Y-42937833D01*
X56938076Y-42890214D01*
X56938076Y-42794976D01*
X56961886Y-42747357D01*
X56985695Y-42723548D01*
X57033314Y-42699738D01*
X57128552Y-42699738D01*
X57176171Y-42723548D01*
X57199981Y-42747357D01*
X57223790Y-42794976D01*
X57223790Y-42890214D01*
X57199981Y-42937833D01*
X57176171Y-42961643D01*
X57128552Y-42985452D01*
X57033314Y-42985452D01*
X56985695Y-42961643D01*
X56961886Y-42937833D01*
X56938076Y-42890214D01*
X52070771Y-42058472D02*
X52094581Y-42034662D01*
X52118390Y-41963234D01*
X52118390Y-41915615D01*
X52094581Y-41844186D01*
X52046962Y-41796567D01*
X51999343Y-41772758D01*
X51904105Y-41748948D01*
X51832676Y-41748948D01*
X51737438Y-41772758D01*
X51689819Y-41796567D01*
X51642200Y-41844186D01*
X51618390Y-41915615D01*
X51618390Y-41963234D01*
X51642200Y-42034662D01*
X51666010Y-42058472D01*
X51666010Y-42248948D02*
X51642200Y-42272758D01*
X51618390Y-42320377D01*
X51618390Y-42439424D01*
X51642200Y-42487043D01*
X51666010Y-42510853D01*
X51713629Y-42534662D01*
X51761248Y-42534662D01*
X51832676Y-42510853D01*
X52118390Y-42225139D01*
X52118390Y-42534662D01*
X52118390Y-42772757D02*
X52118390Y-42867995D01*
X52094581Y-42915614D01*
X52070771Y-42939424D01*
X51999343Y-42987043D01*
X51904105Y-43010852D01*
X51713629Y-43010852D01*
X51666010Y-42987043D01*
X51642200Y-42963233D01*
X51618390Y-42915614D01*
X51618390Y-42820376D01*
X51642200Y-42772757D01*
X51666010Y-42748948D01*
X51713629Y-42725138D01*
X51832676Y-42725138D01*
X51880295Y-42748948D01*
X51904105Y-42772757D01*
X51927914Y-42820376D01*
X51927914Y-42915614D01*
X51904105Y-42963233D01*
X51880295Y-42987043D01*
X51832676Y-43010852D01*
X47016171Y-42033072D02*
X47039981Y-42009262D01*
X47063790Y-41937834D01*
X47063790Y-41890215D01*
X47039981Y-41818786D01*
X46992362Y-41771167D01*
X46944743Y-41747358D01*
X46849505Y-41723548D01*
X46778076Y-41723548D01*
X46682838Y-41747358D01*
X46635219Y-41771167D01*
X46587600Y-41818786D01*
X46563790Y-41890215D01*
X46563790Y-41937834D01*
X46587600Y-42009262D01*
X46611410Y-42033072D01*
X46563790Y-42199739D02*
X46563790Y-42509262D01*
X46754267Y-42342596D01*
X46754267Y-42414024D01*
X46778076Y-42461643D01*
X46801886Y-42485453D01*
X46849505Y-42509262D01*
X46968552Y-42509262D01*
X47016171Y-42485453D01*
X47039981Y-42461643D01*
X47063790Y-42414024D01*
X47063790Y-42271167D01*
X47039981Y-42223548D01*
X47016171Y-42199739D01*
X46563790Y-42818786D02*
X46563790Y-42866405D01*
X46587600Y-42914024D01*
X46611410Y-42937833D01*
X46659029Y-42961643D01*
X46754267Y-42985452D01*
X46873314Y-42985452D01*
X46968552Y-42961643D01*
X47016171Y-42937833D01*
X47039981Y-42914024D01*
X47063790Y-42866405D01*
X47063790Y-42818786D01*
X47039981Y-42771167D01*
X47016171Y-42747357D01*
X46968552Y-42723548D01*
X46873314Y-42699738D01*
X46754267Y-42699738D01*
X46659029Y-42723548D01*
X46611410Y-42747357D01*
X46587600Y-42771167D01*
X46563790Y-42818786D01*
X54674271Y-42033072D02*
X54698081Y-42009262D01*
X54721890Y-41937834D01*
X54721890Y-41890215D01*
X54698081Y-41818786D01*
X54650462Y-41771167D01*
X54602843Y-41747358D01*
X54507605Y-41723548D01*
X54436176Y-41723548D01*
X54340938Y-41747358D01*
X54293319Y-41771167D01*
X54245700Y-41818786D01*
X54221890Y-41890215D01*
X54221890Y-41937834D01*
X54245700Y-42009262D01*
X54269510Y-42033072D01*
X54221890Y-42199739D02*
X54221890Y-42509262D01*
X54412367Y-42342596D01*
X54412367Y-42414024D01*
X54436176Y-42461643D01*
X54459986Y-42485453D01*
X54507605Y-42509262D01*
X54626652Y-42509262D01*
X54674271Y-42485453D01*
X54698081Y-42461643D01*
X54721890Y-42414024D01*
X54721890Y-42271167D01*
X54698081Y-42223548D01*
X54674271Y-42199739D01*
X54721890Y-42985452D02*
X54721890Y-42699738D01*
X54721890Y-42842595D02*
X54221890Y-42842595D01*
X54293319Y-42794976D01*
X54340938Y-42747357D01*
X54364748Y-42699738D01*
X49556171Y-42033072D02*
X49579981Y-42009262D01*
X49603790Y-41937834D01*
X49603790Y-41890215D01*
X49579981Y-41818786D01*
X49532362Y-41771167D01*
X49484743Y-41747358D01*
X49389505Y-41723548D01*
X49318076Y-41723548D01*
X49222838Y-41747358D01*
X49175219Y-41771167D01*
X49127600Y-41818786D01*
X49103790Y-41890215D01*
X49103790Y-41937834D01*
X49127600Y-42009262D01*
X49151410Y-42033072D01*
X49103790Y-42199739D02*
X49103790Y-42509262D01*
X49294267Y-42342596D01*
X49294267Y-42414024D01*
X49318076Y-42461643D01*
X49341886Y-42485453D01*
X49389505Y-42509262D01*
X49508552Y-42509262D01*
X49556171Y-42485453D01*
X49579981Y-42461643D01*
X49603790Y-42414024D01*
X49603790Y-42271167D01*
X49579981Y-42223548D01*
X49556171Y-42199739D01*
X49151410Y-42699738D02*
X49127600Y-42723548D01*
X49103790Y-42771167D01*
X49103790Y-42890214D01*
X49127600Y-42937833D01*
X49151410Y-42961643D01*
X49199029Y-42985452D01*
X49246648Y-42985452D01*
X49318076Y-42961643D01*
X49603790Y-42675929D01*
X49603790Y-42985452D01*
X35941771Y-51342172D02*
X35965581Y-51318362D01*
X35989390Y-51246934D01*
X35989390Y-51199315D01*
X35965581Y-51127886D01*
X35917962Y-51080267D01*
X35870343Y-51056458D01*
X35775105Y-51032648D01*
X35703676Y-51032648D01*
X35608438Y-51056458D01*
X35560819Y-51080267D01*
X35513200Y-51127886D01*
X35489390Y-51199315D01*
X35489390Y-51246934D01*
X35513200Y-51318362D01*
X35537010Y-51342172D01*
X35489390Y-51508839D02*
X35489390Y-51818362D01*
X35679867Y-51651696D01*
X35679867Y-51723124D01*
X35703676Y-51770743D01*
X35727486Y-51794553D01*
X35775105Y-51818362D01*
X35894152Y-51818362D01*
X35941771Y-51794553D01*
X35965581Y-51770743D01*
X35989390Y-51723124D01*
X35989390Y-51580267D01*
X35965581Y-51532648D01*
X35941771Y-51508839D01*
X35489390Y-51985029D02*
X35489390Y-52294552D01*
X35679867Y-52127886D01*
X35679867Y-52199314D01*
X35703676Y-52246933D01*
X35727486Y-52270743D01*
X35775105Y-52294552D01*
X35894152Y-52294552D01*
X35941771Y-52270743D01*
X35965581Y-52246933D01*
X35989390Y-52199314D01*
X35989390Y-52056457D01*
X35965581Y-52008838D01*
X35941771Y-51985029D01*
X35979871Y-55126772D02*
X36003681Y-55102962D01*
X36027490Y-55031534D01*
X36027490Y-54983915D01*
X36003681Y-54912486D01*
X35956062Y-54864867D01*
X35908443Y-54841058D01*
X35813205Y-54817248D01*
X35741776Y-54817248D01*
X35646538Y-54841058D01*
X35598919Y-54864867D01*
X35551300Y-54912486D01*
X35527490Y-54983915D01*
X35527490Y-55031534D01*
X35551300Y-55102962D01*
X35575110Y-55126772D01*
X35527490Y-55293439D02*
X35527490Y-55602962D01*
X35717967Y-55436296D01*
X35717967Y-55507724D01*
X35741776Y-55555343D01*
X35765586Y-55579153D01*
X35813205Y-55602962D01*
X35932252Y-55602962D01*
X35979871Y-55579153D01*
X36003681Y-55555343D01*
X36027490Y-55507724D01*
X36027490Y-55364867D01*
X36003681Y-55317248D01*
X35979871Y-55293439D01*
X35694157Y-56031533D02*
X36027490Y-56031533D01*
X35503681Y-55912486D02*
X35860824Y-55793438D01*
X35860824Y-56102962D01*
X35979871Y-52904272D02*
X36003681Y-52880462D01*
X36027490Y-52809034D01*
X36027490Y-52761415D01*
X36003681Y-52689986D01*
X35956062Y-52642367D01*
X35908443Y-52618558D01*
X35813205Y-52594748D01*
X35741776Y-52594748D01*
X35646538Y-52618558D01*
X35598919Y-52642367D01*
X35551300Y-52689986D01*
X35527490Y-52761415D01*
X35527490Y-52809034D01*
X35551300Y-52880462D01*
X35575110Y-52904272D01*
X35527490Y-53070939D02*
X35527490Y-53380462D01*
X35717967Y-53213796D01*
X35717967Y-53285224D01*
X35741776Y-53332843D01*
X35765586Y-53356653D01*
X35813205Y-53380462D01*
X35932252Y-53380462D01*
X35979871Y-53356653D01*
X36003681Y-53332843D01*
X36027490Y-53285224D01*
X36027490Y-53142367D01*
X36003681Y-53094748D01*
X35979871Y-53070939D01*
X35527490Y-53832843D02*
X35527490Y-53594748D01*
X35765586Y-53570938D01*
X35741776Y-53594748D01*
X35717967Y-53642367D01*
X35717967Y-53761414D01*
X35741776Y-53809033D01*
X35765586Y-53832843D01*
X35813205Y-53856652D01*
X35932252Y-53856652D01*
X35979871Y-53832843D01*
X36003681Y-53809033D01*
X36027490Y-53761414D01*
X36027490Y-53642367D01*
X36003681Y-53594748D01*
X35979871Y-53570938D01*
X35967171Y-49792772D02*
X35990981Y-49768962D01*
X36014790Y-49697534D01*
X36014790Y-49649915D01*
X35990981Y-49578486D01*
X35943362Y-49530867D01*
X35895743Y-49507058D01*
X35800505Y-49483248D01*
X35729076Y-49483248D01*
X35633838Y-49507058D01*
X35586219Y-49530867D01*
X35538600Y-49578486D01*
X35514790Y-49649915D01*
X35514790Y-49697534D01*
X35538600Y-49768962D01*
X35562410Y-49792772D01*
X35514790Y-49959439D02*
X35514790Y-50268962D01*
X35705267Y-50102296D01*
X35705267Y-50173724D01*
X35729076Y-50221343D01*
X35752886Y-50245153D01*
X35800505Y-50268962D01*
X35919552Y-50268962D01*
X35967171Y-50245153D01*
X35990981Y-50221343D01*
X36014790Y-50173724D01*
X36014790Y-50030867D01*
X35990981Y-49983248D01*
X35967171Y-49959439D01*
X35514790Y-50435629D02*
X35514790Y-50768962D01*
X36014790Y-50554676D01*
X39350190Y-63119048D02*
X39754952Y-63119048D01*
X39802571Y-63142857D01*
X39826381Y-63166667D01*
X39850190Y-63214286D01*
X39850190Y-63309524D01*
X39826381Y-63357143D01*
X39802571Y-63380952D01*
X39754952Y-63404762D01*
X39350190Y-63404762D01*
X39850190Y-63904762D02*
X39850190Y-63619048D01*
X39850190Y-63761905D02*
X39350190Y-63761905D01*
X39421619Y-63714286D01*
X39469238Y-63666667D01*
X39493048Y-63619048D01*
D12*
X56243561Y-61127735D02*
X57053085Y-61127735D01*
X57148323Y-61175354D01*
X57195942Y-61222973D01*
X57243561Y-61318211D01*
X57243561Y-61508688D01*
X57195942Y-61603926D01*
X57148323Y-61651545D01*
X57053085Y-61699164D01*
X56243561Y-61699164D01*
X56243561Y-62080116D02*
X56243561Y-62699164D01*
X56624513Y-62365830D01*
X56624513Y-62508688D01*
X56672132Y-62603926D01*
X56719751Y-62651545D01*
X56814990Y-62699164D01*
X57053085Y-62699164D01*
X57148323Y-62651545D01*
X57195942Y-62603926D01*
X57243561Y-62508688D01*
X57243561Y-62222973D01*
X57195942Y-62127735D01*
X57148323Y-62080116D01*
X41184581Y-35509295D02*
X41994105Y-35509295D01*
X42089343Y-35556914D01*
X42136962Y-35604533D01*
X42184581Y-35699771D01*
X42184581Y-35890248D01*
X42136962Y-35985486D01*
X42089343Y-36033105D01*
X41994105Y-36080724D01*
X41184581Y-36080724D01*
X41517914Y-36985486D02*
X42184581Y-36985486D01*
X41136962Y-36747390D02*
X41851248Y-36509295D01*
X41851248Y-37128343D01*
X37617305Y-32954981D02*
X37617305Y-33764505D01*
X37569686Y-33859743D01*
X37522067Y-33907362D01*
X37426829Y-33954981D01*
X37236352Y-33954981D01*
X37141114Y-33907362D01*
X37093495Y-33859743D01*
X37045876Y-33764505D01*
X37045876Y-32954981D01*
X36093495Y-32954981D02*
X36569686Y-32954981D01*
X36617305Y-33431171D01*
X36569686Y-33383552D01*
X36474448Y-33335933D01*
X36236352Y-33335933D01*
X36141114Y-33383552D01*
X36093495Y-33431171D01*
X36045876Y-33526410D01*
X36045876Y-33764505D01*
X36093495Y-33859743D01*
X36141114Y-33907362D01*
X36236352Y-33954981D01*
X36474448Y-33954981D01*
X36569686Y-33907362D01*
X36617305Y-33859743D01*
X51306481Y-35344195D02*
X52116005Y-35344195D01*
X52211243Y-35391814D01*
X52258862Y-35439433D01*
X52306481Y-35534671D01*
X52306481Y-35725148D01*
X52258862Y-35820386D01*
X52211243Y-35868005D01*
X52116005Y-35915624D01*
X51306481Y-35915624D01*
X51306481Y-36296576D02*
X51306481Y-36963243D01*
X52306481Y-36534671D01*
M02*
